<svg width="306" height="240" viewBox="0 0 306 240" fill="none" xmlns="http://www.w3.org/2000/svg">
<path d="M9.4126 231.531C104.377 231.1 210.913 231.093 305.878 231.531C210.913 231.969 104.377 231.962 9.4126 231.531Z" fill="#263238"/>
<path d="M35.5798 111.7C35.8036 107.911 36.3378 104.148 37.1772 100.447C37.9689 97.1174 39.0928 93.7175 41.1921 90.9607C43.1148 88.4514 45.8644 86.4511 49.0664 86.0552C52.1483 85.6806 55.0463 87.0519 57.3506 88.9957C60.178 91.4061 62.3905 94.5939 64.4191 97.6828C66.6676 101.14 68.7138 104.725 70.5475 108.42C70.6111 108.547 70.4273 108.646 70.3637 108.526C68.7776 105.389 66.9459 102.383 64.8856 99.5348C63.0058 96.8064 60.8914 94.2473 58.5664 91.8867C56.4459 89.8227 53.7599 87.886 50.6992 87.787C47.6386 87.688 44.8324 89.4057 42.9946 91.7595C40.9377 94.3889 39.8986 97.6758 39.114 100.878C38.3037 104.4 37.7743 107.981 37.5307 111.587C36.9298 118.994 36.7673 126.43 36.5976 133.873C36.5034 138.081 36.4398 142.287 36.4068 146.491C36.4068 148.611 36.4068 150.732 36.3573 152.852C36.4377 154.91 36.355 156.971 36.1099 159.016C36.0392 159.426 35.4031 159.391 35.297 159.016C35.0473 157.08 34.9527 155.128 35.0143 153.177C35.0143 151.156 34.9577 149.134 34.9436 147.12C34.9436 143.19 34.8871 139.267 34.9012 135.337C34.9507 127.469 35.0426 119.56 35.5798 111.7Z" fill="#263238"/>
<path d="M46.1614 106.108C46.5502 103.988 47.2571 101.288 48.4516 99.662C50.5722 96.7427 52.9118 98.015 50.7701 101.245C49.1887 103.642 48.1623 106.361 47.766 109.204C47.766 109.204 51.3638 114.357 55.7109 116.895C55.5272 114.916 54.9688 111.869 55.3575 108.929C56.1916 102.567 60.0368 102.928 59.0826 107.982C58.3192 112.032 58.0082 116.336 58.2132 118.203C59.6673 119.144 61.2287 119.908 62.8642 120.479C62.6098 119.772 62.3482 118.86 62.0584 117.785C60.5104 112.081 64.3133 110.3 64.4334 113.544C64.6796 116.281 65.174 118.99 65.9107 121.638C68.0313 122.345 69.7277 122.818 70.788 123.186C73.5268 124.203 75.9735 125.878 77.913 128.063C79.8948 126.273 81.5395 124.143 82.769 121.772C81.4402 120.627 79.3408 118.945 76.4074 116.867C70.9435 113.007 72.8732 108.13 77.1779 111.162C80.3092 113.354 82.7266 117.404 83.8293 119.489C85.3077 115.863 86.1471 112.007 86.3103 108.095C82.0127 104.066 71.4029 98.4462 74.5979 98.4462C77.4818 98.4462 83.9212 102.687 86.2891 104.299C86.2261 103.19 86.1033 102.086 85.9216 100.991C81.8784 98.3402 68.7452 94.2122 70.8375 93.0247C73.1347 91.7241 82.3025 95.9722 85.0733 97.3152C84.5532 95.5122 83.731 93.8105 82.6418 92.2825C77.0577 84.797 66.9851 82.2241 62.5886 83.6448C59.4784 84.6556 60.3903 92.5511 59.7188 92.2825C47.25 87.2215 41.5669 90.7769 46.1614 106.108ZM76.7891 105.246C77.6727 104.172 81.737 107.324 80.5849 109.049C79.4327 110.774 75.6511 106.617 76.7891 105.246ZM55.3646 98.5098C56.439 99.2166 54.8486 103.189 53.1804 101.98C51.7667 100.948 54.276 97.8171 55.3646 98.5098Z" fill="#FFC727"/>
<path d="M56.9972 99.7326C57.5627 98.6158 58.1494 97.506 58.7926 96.4387C59.3836 95.3762 60.0747 94.3726 60.8566 93.4416C60.6799 93.2225 60.5102 92.9963 60.3265 92.7843C60.2487 92.6924 60.3759 92.5722 60.4537 92.657C60.6657 92.8974 60.8637 93.1448 61.0686 93.3639C61.1073 93.3864 61.1372 93.4212 61.1535 93.4628C61.9263 94.4053 62.6567 95.3478 63.3447 96.2902C64.5744 96.5735 65.7874 96.9251 66.9779 97.3434C68.2007 97.7534 69.4165 98.1775 70.604 98.6794C70.7312 98.7359 70.6676 98.9409 70.5475 98.8844C69.367 98.3613 68.1654 97.8594 66.9425 97.4707C65.7197 97.0819 64.6099 96.7638 63.4083 96.4457C63.79 96.99 64.1646 97.5272 64.5251 98.0786C66.7313 98.7794 68.8776 99.6563 70.9433 100.701C73.1062 101.733 75.1844 102.928 77.3049 104.129C77.4251 104.2 77.3049 104.384 77.1989 104.313C75.1569 103.117 73.0548 102.027 70.9009 101.047C68.8864 100.107 66.8082 99.3367 64.7867 98.439C69.876 106.462 72.9366 115.651 77.0646 124.133C77.1211 124.253 76.9303 124.359 76.8808 124.232C75.6297 121.249 74.1948 118.344 72.8306 115.403C71.6077 112.767 70.4202 110.116 69.1974 107.48C68.8393 106.712 68.4717 105.941 68.0947 105.168C68.3209 109.409 68.229 113.756 68.9288 117.962C68.9288 117.99 68.9176 118.017 68.8977 118.037C68.8778 118.057 68.8509 118.068 68.8228 118.068C68.7946 118.068 68.7677 118.057 68.7478 118.037C68.7279 118.017 68.7167 117.99 68.7167 117.962C68.4199 113.417 67.6211 108.943 67.6565 104.37C67.6524 104.348 67.6524 104.327 67.6565 104.306C66.7941 102.567 65.8681 100.856 64.8715 99.1883C63.1821 103.168 61.4079 107.211 60.6304 111.487C60.6304 111.615 60.3971 111.558 60.4325 111.424C61.5776 107.14 62.6449 102.85 64.6736 98.8844C63.59 97.0798 62.3881 95.3489 61.0757 93.7032C60.5102 94.7635 59.7822 95.7601 59.139 96.7709C58.4957 97.7817 57.8949 98.7571 57.3082 99.775C56.0518 101.928 54.9852 104.187 54.1203 106.525C54.0709 106.653 53.8659 106.582 53.9154 106.462C54.8979 104.214 55.8592 101.938 56.9972 99.7326Z" fill="#263238"/>
<path d="M16.7778 109.424C20.0576 106.137 23.8463 101.825 28.9215 101.832C33.8058 101.832 37.4036 105.776 39.4606 109.834C41.6235 114.075 42.394 118.888 42.9948 123.561C43.7084 129.162 44.1401 134.796 44.2883 140.44C44.3731 143.572 44.3661 146.71 44.2883 149.841C44.2971 153.019 44.0608 156.193 43.5815 159.334C43.4896 159.836 42.6838 159.857 42.6484 159.334C42.5071 156.691 42.6484 154.04 42.6484 151.403C42.6484 148.767 42.6484 146.201 42.5212 143.628C42.3303 138.369 41.9486 133.117 41.3337 127.894C40.7894 123.335 40.3653 118.641 39.0011 114.23C37.7712 110.251 35.4669 105.706 31.4308 103.96C25.9103 101.514 20.5171 105.875 16.9828 109.558C16.8485 109.65 16.686 109.516 16.7778 109.424Z" fill="#263238"/>
<path d="M0.0750964 116.761C0.0750964 117.432 0.138712 118.097 0.188192 118.747C1.76433 117.572 3.60793 116.807 5.55316 116.52C10.1971 116.033 9.90026 119.567 6.79721 119.715C4.6157 119.744 2.45851 120.178 0.435588 120.995C1.19191 127.13 2.88128 132.071 3.13574 132.135C7.25932 131.9 11.3617 131.38 15.4137 130.58C14.2615 128.12 11.625 124.847 12.968 124.579C14.311 124.31 15.7954 127.229 16.5022 130.353C19.5502 129.778 22.5473 128.96 25.465 127.908C23.4152 126.134 20.2556 123.928 21.4643 122.995C22.673 122.062 25.1823 125.158 26.6808 127.413C28.0504 126.855 29.3466 126.131 30.5402 125.257C27.7906 121.207 21.0755 120.387 21.952 117.482C22.8285 114.577 29.1053 118.613 31.9256 124.034C35.2407 120.592 36.2091 115.729 35.8627 111.58C32.9788 111.24 27.4301 111.848 27.8259 109.777C28.2217 107.706 32.2366 108.102 35.5235 109.311C35.2222 107.666 34.5635 106.107 33.5938 104.744C30.526 100.807 21.2239 105.755 21.2239 105.755C21.2239 105.755 22.2135 96.4248 18.6793 94.8132C16.6365 93.8872 13.0245 93.8943 9.43375 96.0219C11.4553 96.1845 13.901 96.8277 14.8835 98.2343C16.1417 100.03 14.1767 101.005 12.8973 100.178C12.0137 99.5915 10.3526 97.7395 7.35562 97.4992C6.07546 98.5783 4.94828 99.8268 4.00516 101.21C3.66588 101.691 3.3478 102.2 3.02972 102.751C4.74193 101.981 6.60336 101.599 8.48047 101.634C10.3576 101.668 12.2039 102.117 13.8869 102.949C17.9088 104.949 15.6611 109.127 12.2046 107.501C8.74811 105.875 5.44713 104.285 1.7786 105.204C0.483004 108.529 -0.116048 112.085 0.0185487 115.651C1.81182 114.338 3.83187 113.368 5.97727 112.788C9.97095 111.735 11.1797 114.124 6.79014 114.577C4.42727 114.844 2.14299 115.587 0.0750964 116.761ZM4.96647 110.343C4.68374 109.042 7.52526 108.674 7.99178 109.721C8.36641 110.618 5.21387 111.636 4.96647 110.343ZM29.2254 117.517C29.487 116.81 31.3884 117.616 31.2117 118.5C30.9572 119.673 28.9427 118.224 29.2042 117.517H29.2254ZM15.7954 122.069C17.1737 121.511 19.3296 124.953 17.8311 125.738C16.3326 126.522 14.6785 122.522 15.8095 122.069H15.7954Z" fill="#FFC727"/>
<path d="M3.66572 131.435C5.74385 127.943 7.80784 124.444 10.0273 121.016C11.0452 119.425 12.1479 117.863 13.2223 116.329C13.0597 116.329 12.8901 116.245 12.7275 116.216C12.4518 116.153 12.1761 116.103 11.9005 116.054C11.2572 115.941 10.614 115.849 9.96372 115.785C9.31342 115.722 8.74794 115.686 8.14006 115.679C7.48549 115.644 6.82898 115.679 6.18209 115.785C6.10434 115.785 6.0902 115.679 6.18209 115.679C6.83239 115.679 7.49682 115.623 8.14712 115.608C8.79742 115.594 9.41945 115.608 10.0485 115.658C10.6776 115.707 11.236 115.75 11.8227 115.842C12.1479 115.891 12.473 115.948 12.7911 116.011C12.9887 116.044 13.1846 116.086 13.3778 116.139C14.5087 114.584 15.675 113.064 16.912 111.572C13.3045 109.814 9.46204 108.586 5.50352 107.925C5.43283 107.925 5.46111 107.812 5.50352 107.826C9.52252 108.388 13.4276 109.581 17.0746 111.36C17.739 110.54 18.4082 109.725 19.082 108.915C19.8384 108.01 20.6442 107.119 21.3227 106.158C21.3722 106.094 21.4641 106.158 21.4076 106.222C20.4692 107.253 19.5868 108.333 18.764 109.459C20.2534 110.497 21.6704 111.635 23.005 112.866C24.4187 114.096 25.7405 115.368 27.0553 116.669C27.1047 116.718 27.0553 116.796 26.9846 116.746C25.684 115.451 24.3316 114.218 22.9273 113.05C21.5136 111.883 20.0363 110.802 18.6226 109.643C18.2974 110.074 17.9723 110.505 17.6471 110.922L17.1594 111.565L17.1241 111.608C16.5798 112.315 16.0426 113.021 15.5054 113.728C16.1356 114.642 16.6753 115.615 17.117 116.633C17.5835 117.616 17.9864 118.634 18.3611 119.659C19.1096 121.787 19.691 123.971 20.0999 126.19C20.0999 126.254 20.0151 126.289 20.0009 126.19C19.555 124.004 18.9187 121.861 18.0995 119.786C17.6966 118.719 17.2372 117.665 16.7636 116.648C16.29 115.63 15.8023 114.796 15.3994 113.82C14.9328 114.442 14.4663 115.064 13.9857 115.693C13.8584 115.877 13.7312 116.068 13.5969 116.252C13.6035 116.26 13.6076 116.27 13.6089 116.28C13.6102 116.291 13.6085 116.301 13.6041 116.311C13.5997 116.32 13.5928 116.328 13.584 116.334C13.5752 116.34 13.565 116.343 13.5545 116.344C12.1408 118.344 10.7271 120.394 9.44065 122.465C9.51824 122.608 9.57761 122.76 9.61737 122.917C9.70219 123.165 9.78701 123.419 9.85769 123.674C10.0061 124.19 10.1263 124.706 10.2253 125.229C10.3242 125.752 10.3808 126.218 10.4302 126.713C10.4372 127.278 10.4797 127.843 10.5575 128.402C10.5606 128.411 10.5617 128.42 10.5606 128.429C10.5594 128.438 10.5561 128.447 10.5509 128.454C10.5457 128.462 10.5387 128.468 10.5306 128.472C10.5226 128.476 10.5136 128.479 10.5045 128.479C10.4953 128.479 10.4863 128.476 10.4783 128.472C10.4702 128.468 10.4632 128.462 10.458 128.454C10.4528 128.447 10.4495 128.438 10.4484 128.429C10.4472 128.42 10.4483 128.411 10.4514 128.402C10.491 127.874 10.4529 127.343 10.3383 126.826C10.2606 126.289 10.1616 125.752 10.0344 125.222C9.90717 124.691 9.79408 124.267 9.65271 123.808C9.58202 123.568 9.50427 123.334 9.42652 123.101C9.38411 122.981 9.32049 122.847 9.27808 122.712C8.66312 123.688 8.04817 124.663 7.44028 125.653C6.23864 127.597 5.05114 129.555 3.85657 131.505C3.75761 131.619 3.6021 131.534 3.66572 131.435Z" fill="#263238"/>
<path d="M35.799 158.203C35.8555 156.231 36.1665 154.238 36.3786 152.273C36.5906 150.307 36.8168 148.328 37.0289 146.356C37.4318 142.546 37.658 138.659 38.5557 134.926C39.2127 131.679 40.8307 128.704 43.1996 126.388C44.4224 125.161 46.0296 124.393 47.7517 124.211C49.4842 124.158 51.1851 124.682 52.5866 125.702C54.1868 126.88 55.5653 128.333 56.658 129.993C57.8367 131.632 58.895 133.354 59.8247 135.146C59.8247 135.209 59.754 135.252 59.7187 135.188C57.9594 132.198 55.627 129.584 52.8552 127.498C51.6245 126.48 50.1184 125.852 48.5293 125.695C47.7543 125.682 46.9845 125.823 46.2648 126.111C45.5451 126.398 44.89 126.827 44.3377 127.37C42.0333 129.371 40.7045 132.318 39.9128 135.209C38.9727 138.637 38.6688 142.278 38.1952 145.762C37.9195 147.883 37.6509 149.947 37.3752 152.032C37.0996 154.117 36.9299 156.273 36.4846 158.302C36.4715 158.393 36.4228 158.475 36.3492 158.53C36.2756 158.585 36.1832 158.608 36.0923 158.595C36.0014 158.582 35.9194 158.533 35.8644 158.46C35.8094 158.386 35.7858 158.294 35.799 158.203Z" fill="#263238"/>
<path d="M45.5112 142.865C46.1112 143.691 46.8251 144.429 47.6317 145.056C47.3066 143.126 46.9249 139.705 47.8862 137.881C49.3988 135.054 51.1801 136.468 50.2824 138.92C49.3877 141.144 48.8947 143.508 48.8263 145.904C50.8825 147.192 53.0844 148.231 55.3858 149C55.1434 147.891 55.0719 146.752 55.1738 145.621C55.4706 142.596 57.7891 142.653 57.1883 145.798C56.9663 147.02 56.8598 148.26 56.8702 149.502C60.2135 150.529 63.6304 151.3 67.0912 151.806C68.8603 149.512 70.2887 146.974 71.3323 144.271C68.8654 143.649 63.8821 143.515 63.9881 141.748C64.1295 139.38 68.9361 141.203 71.7634 142.921C72.4075 140.865 72.6968 138.713 72.6187 136.56C70.4013 135.942 68.124 135.566 65.8259 135.436C60.7508 134.997 61.0052 132.121 64.6808 132.184C67.3881 132.234 70.8163 133.895 72.4562 134.757C71.4029 127.858 66.1369 123.448 61.9171 123.264C54.8486 122.981 57.3791 131.81 57.3791 131.81C57.3791 131.81 52.5726 128.424 48.0346 128.516C43.4967 128.608 40.6622 136.107 45.5112 142.865ZM64.4547 130.092C64.2991 129.102 67.4658 128.862 67.6284 130.134C67.8192 131.569 64.6172 131.103 64.4547 130.092ZM69.551 140.454C69.4803 139.804 70.8516 139.691 71.1626 140.511C71.3676 141.041 69.6005 141.097 69.551 140.454ZM52.516 141.062C53.5833 141.211 54.1912 145.035 52.3534 144.957C50.9468 144.9 51.6183 140.928 52.516 141.097V141.062Z" fill="#FFC727"/>
<path d="M53.9932 145.338C54.1699 144.858 54.3325 144.377 54.4809 143.925C54.3396 144.419 54.2194 144.907 54.1275 145.409C54.1063 145.437 53.9579 145.402 53.9932 145.338Z" fill="#263238"/>
<path d="M55.859 139.161C56.1912 138.178 56.5658 137.21 56.9475 136.249C57.1549 135.735 57.3669 135.226 57.5837 134.722C57.7469 134.271 57.9603 133.839 58.2198 133.435C57.9975 133.038 57.8061 132.625 57.6473 132.198C57.6426 132.19 57.6415 132.18 57.6441 132.171C57.6468 132.161 57.653 132.154 57.6614 132.149C57.6699 132.144 57.6798 132.143 57.6891 132.146C57.6984 132.148 57.7062 132.155 57.7109 132.163C58.2425 132.828 58.7155 133.537 59.1246 134.284C59.3225 134.616 59.5134 134.99 59.7042 135.294C60.106 135.333 60.5049 135.397 60.8988 135.485L62.1711 135.74L63.4364 136.037C63.8534 136.135 64.2634 136.277 64.6875 136.34C64.7044 136.34 64.7205 136.347 64.7325 136.359C64.7444 136.371 64.7511 136.387 64.7511 136.404C64.7511 136.421 64.7444 136.437 64.7325 136.449C64.7205 136.461 64.7044 136.468 64.6875 136.468C64.2578 136.316 63.8154 136.202 63.3657 136.128C62.9557 136.037 62.5457 135.966 62.1358 135.909C61.7258 135.853 61.3088 135.796 60.8988 135.754L59.9587 135.676C60.1283 135.973 60.305 136.27 60.4676 136.574C60.4676 136.616 60.5171 136.666 60.5454 136.715C60.8729 136.721 61.1983 136.768 61.5138 136.856C61.8813 136.92 62.2206 136.991 62.6094 137.069C63.3162 137.238 64.0867 137.408 64.8147 137.613C66.3486 138.044 67.8683 138.532 69.381 139.026C69.4658 139.026 69.381 139.182 69.3244 139.154C67.8205 138.651 66.2916 138.227 64.744 137.881C64.0372 137.719 63.2879 137.549 62.5599 137.401L61.4713 137.167C61.1849 137.125 60.9016 137.063 60.6231 136.984C61.4007 138.397 62.1358 139.889 62.8143 141.387C64.2846 144.646 65.5216 147.996 66.7868 151.34C66.7868 151.425 66.6879 151.474 66.6596 151.396C65.4358 148.072 64.0197 144.822 62.4185 141.663C62.1358 141.083 61.8389 140.511 61.5562 139.931C61.5562 140.051 61.4996 140.172 61.4784 140.285C61.4077 140.681 61.337 141.076 61.2734 141.472C61.1391 142.264 61.0048 143.056 60.8847 143.847C60.5461 145.476 60.3545 147.132 60.3121 148.795C60.3156 148.806 60.3165 148.817 60.3148 148.828C60.3131 148.839 60.3088 148.85 60.3022 148.859C60.2957 148.868 60.2871 148.875 60.2771 148.88C60.2672 148.885 60.2561 148.888 60.245 148.888C60.2338 148.888 60.2228 148.885 60.2128 148.88C60.2029 148.875 60.1943 148.868 60.1877 148.859C60.1812 148.85 60.1768 148.839 60.1751 148.828C60.1734 148.817 60.1743 148.806 60.1778 148.795C60.305 148.011 60.305 147.191 60.3545 146.392C60.404 145.593 60.4676 144.731 60.5595 143.904C60.6514 143.077 60.7574 142.313 60.8917 141.522C60.9553 141.126 61.026 140.73 61.0967 140.334C61.1132 140.037 61.1901 139.746 61.3229 139.479C60.9059 138.645 60.4959 137.804 60.0718 136.977C59.6477 136.15 59.2801 135.414 58.8772 134.644C58.7005 134.312 58.5167 133.987 58.3329 133.647C58.2046 134.058 58.0487 134.459 57.8664 134.849L57.3151 136.185C56.9122 137.182 56.5305 138.178 56.1559 139.182C55.6187 140.596 55.0249 142.052 54.5796 143.529C55.0178 142.066 55.3854 140.589 55.859 139.161Z" fill="#263238"/>
<path d="M54.481 143.861C54.481 143.748 54.5516 143.635 54.5799 143.515C54.5516 143.635 54.5163 143.748 54.481 143.861Z" fill="#263238"/>
<path d="M23.9385 154.365L24.4403 164.925L25.7197 227.057H53.7957L55.0821 164.925L55.584 154.365H23.9385Z" fill="#37474F"/>
<path d="M23.9385 154.365L24.4403 164.925H55.0821L55.584 154.365H23.9385Z" fill="#263238"/>
<path d="M21.945 158.634H57.5771V150.089H21.945V158.634Z" fill="#37474F"/>
<path d="M51.5263 227.057H46.5996V231.531H51.5263V227.057Z" fill="#37474F"/>
<path d="M51.5263 227.057H46.5996V229.291H51.5263V227.057Z" fill="#263238"/>
<path d="M32.9223 227.057H27.9956V231.531H32.9223V227.057Z" fill="#37474F"/>
<path d="M32.9223 227.057H27.9956V229.291H32.9223V227.057Z" fill="#263238"/>
<path d="M140.914 45.1496C139.67 45.291 134.249 44.6054 130.573 49.5038C127.102 54.1336 125.745 68.3201 124.982 71.416C124.218 74.512 120.154 74.9503 119.164 78.4845C118.309 81.5664 120.543 82.7256 120.748 84.9946C120.91 86.7546 119.115 89.377 120.691 91.9924C122.105 94.3744 124.692 93.9008 126.233 94.6572C127.774 95.4135 128.707 99.0113 131.563 100.008C134.418 101.005 136.984 98.4176 138.504 98.4529C140.024 98.4883 141.784 103.168 146.753 102.814C151.722 102.461 153.199 98.2691 155.235 97.4633C157.271 96.6575 162.431 98.1702 164.806 95.6044C167.181 93.0385 167.633 89.6527 168.693 88.4016C169.754 87.1505 171.973 87.3837 173.323 84.4786C174.673 81.5734 171.98 79.7003 171.627 77.1698C171.379 75.4097 172.963 73.8052 171.888 71.105C170.418 67.387 165.88 68.1292 164.198 64.3193C162.876 61.3223 160.211 48.3446 152.422 45.0719C147.043 42.8453 140.914 45.1496 140.914 45.1496Z" fill="#263238"/>
<path d="M125.13 70.6599C124.821 71.3129 124.358 71.8806 123.78 72.3139L122.154 73.6923C121.04 74.5311 120.064 75.5401 119.263 76.6822C118.889 77.2261 118.646 77.85 118.556 78.5041C118.465 79.1581 118.528 79.8244 118.74 80.4497C118.991 81.0759 119.337 81.6599 119.765 82.1815C120.258 82.7523 120.663 83.3931 120.967 84.0829C121.148 84.8643 121.069 85.6836 120.741 86.4155C120.507 87.1224 120.239 87.7515 120.034 88.4159C119.791 89.0376 119.674 89.701 119.688 90.3682C119.703 91.0353 119.849 91.693 120.118 92.3036C120.404 92.8928 120.879 93.3686 121.469 93.6536C122.091 93.928 122.761 94.0815 123.441 94.106C124.148 94.1625 124.854 94.1484 125.561 94.1626C126.283 94.1171 127.002 94.2894 127.625 94.6573C126.976 94.3752 126.261 94.2798 125.561 94.3817C124.854 94.4241 124.148 94.5018 123.441 94.5018C122.697 94.5211 121.957 94.3914 121.264 94.1202C120.548 93.8176 119.955 93.2821 119.581 92.6004C118.761 91.2574 118.931 89.5751 119.334 88.2038C119.539 87.497 119.793 86.8255 120.041 86.1681C120.296 85.5932 120.363 84.9525 120.232 84.3374C119.822 83.1994 118.549 82.1744 118.111 80.6971C117.872 79.9666 117.812 79.1894 117.935 78.4306C118.058 77.6719 118.36 76.9536 118.818 76.3359C119.709 75.1884 120.778 74.1909 121.985 73.3813L123.723 72.1443C124.293 71.7563 124.773 71.25 125.13 70.6599Z" fill="#263238"/>
<path d="M159.604 52.4585C160.932 54.6497 161.724 57.0954 162.791 59.3997C163.307 60.559 163.795 61.7323 164.389 62.8279C164.667 63.3675 165.004 63.8747 165.393 64.3406C165.473 64.4505 165.571 64.546 165.682 64.6233C165.784 64.7147 165.898 64.7909 166.022 64.8495C166.29 64.998 166.573 65.1252 166.856 65.2524C168.044 65.7439 169.205 66.2984 170.333 66.9135C171.527 67.5448 172.493 68.5333 173.097 69.7409C173.393 70.3641 173.525 71.0528 173.479 71.7413C173.399 72.4026 173.196 73.043 172.878 73.6285C172.2 74.6956 171.779 75.9054 171.648 77.1628C171.623 75.8734 171.92 74.5982 172.511 73.4518C172.771 72.899 172.925 72.3018 172.963 71.6918C172.967 71.1018 172.821 70.5206 172.539 70.0024C171.932 68.9508 171.037 68.0947 169.959 67.5355C168.841 66.9594 167.694 66.4404 166.524 65.9805C166.227 65.8391 165.93 65.6977 165.64 65.5352C165.322 65.3541 165.041 65.1143 164.813 64.8283C164.391 64.3108 164.031 63.7463 163.739 63.146C163.159 61.9998 162.649 60.8196 162.212 59.6118L160.932 56.0139C160.557 54.8045 160.114 53.6175 159.604 52.4585Z" fill="#263238"/>
<path d="M169.937 87.5605C169.485 88.3449 169.196 89.213 169.089 90.1123C168.891 90.9958 168.693 91.8935 168.446 92.7771C168.209 93.6811 167.877 94.5577 167.456 95.3924C167.036 96.2781 166.405 97.0474 165.619 97.6331C163.866 98.7217 161.809 98.5732 160.034 98.2269C159.13 98.0502 158.246 97.824 157.355 97.6685C156.478 97.455 155.561 97.455 154.684 97.6685C155.542 97.3052 156.48 97.1736 157.405 97.2868C158.331 97.3645 159.229 97.5271 160.126 97.619C161.886 97.831 163.767 97.8734 165.166 96.9687C165.851 96.4656 166.406 95.8065 166.785 95.0461C167.207 94.2616 167.564 93.4436 167.852 92.6004C168.163 91.7592 168.432 90.8898 168.707 90.0204C168.863 89.5821 169.018 89.151 169.195 88.7269C169.334 88.2787 169.59 87.8759 169.937 87.5605Z" fill="#263238"/>
<path d="M131.654 96.6506C138.016 111.19 146.951 131.152 151.778 133.315C164.325 138.934 189.807 143.769 198.861 141.846C202.268 141.139 202.954 113.898 199.286 114.548C192.514 115.735 165.18 113.707 163.152 112.668C161.738 111.961 150.181 98.6297 141.006 90.4445C127.993 78.831 129.371 91.434 131.654 96.6506Z" fill="#D3766A"/>
<path d="M236.529 123.497C236.462 123.726 236.34 123.936 236.174 124.109C236.008 124.281 235.802 124.411 235.575 124.486C237.364 126.119 238.403 127.872 237.463 129.434C236.918 130.353 235.907 130.664 234.635 130.551C235.384 131.505 235.554 132.46 234.819 133.378C233.525 134.934 229.065 133.916 224.753 132.417C227.545 133.909 229.602 135.619 228.5 137.061C225.566 140.885 216.271 136.503 209.556 134.418C207.483 133.725 205.322 133.332 203.138 133.251C202.816 133.245 202.494 133.269 202.177 133.322C201.293 133.485 200.671 133.873 200.516 134.587C200.261 135.867 202.919 137.252 204.898 137.598C208.651 138.235 212.836 142.348 212.461 144.709C211.917 148.166 203.499 145.557 200.339 145.381C196.098 145.147 189.432 142.377 188.916 142.257C188.916 142.257 188.563 139.641 188.28 135.987C187.729 129.017 187.425 118.316 190.203 114.781C190.203 114.781 203.986 110.42 217.904 110.54C222.675 110.576 238.226 118.959 236.529 123.497Z" fill="#D3766A"/>
<path d="M209.287 126.805C211.973 126.581 214.674 126.988 217.175 127.992C220.639 129.314 222.208 130.721 225.269 132.502C225.286 132.511 225.298 132.527 225.303 132.546C225.309 132.564 225.306 132.584 225.297 132.601C225.288 132.618 225.272 132.63 225.253 132.635C225.235 132.641 225.215 132.639 225.198 132.629C223.742 131.781 218.759 129.18 217.253 128.515C214.776 127.311 212.039 126.741 209.287 126.854C209.287 126.854 209.245 126.805 209.287 126.805Z" fill="#263238"/>
<path d="M210.842 120.719C213.809 120.77 216.759 121.164 219.636 121.892C223.17 122.797 226.259 124.882 229.277 126.883C231.087 128.075 232.872 129.314 234.635 130.601C234.706 130.65 234.635 130.777 234.564 130.728C231.492 128.65 228.358 126.67 225.163 124.79C222.218 123.027 218.953 121.865 215.557 121.369C213.62 121.093 212.793 120.903 210.842 120.775C210.807 120.775 210.807 120.712 210.842 120.719Z" fill="#263238"/>
<path d="M212.397 115.12C215.564 115.057 218.377 114.93 221.431 115.954C225.474 117.312 229.107 119.913 230.62 120.902C232.274 122.026 233.886 123.207 235.483 124.437C235.554 124.486 235.483 124.599 235.398 124.55C231.784 121.939 228.006 119.561 224.089 117.432C222.422 116.503 220.607 115.869 218.724 115.559C216.645 115.237 214.543 115.095 212.44 115.134L212.397 115.12Z" fill="#263238"/>
<path d="M157.815 104.341L142.893 124.19C142.893 124.19 131.167 99.5277 129.767 91.3C128.191 82.0403 133.266 83.2631 140.596 88.3595C147.926 93.4558 157.815 104.341 157.815 104.341Z" fill="#FFC727"/>
<path d="M137.33 93.0811C136.934 95.4741 135.723 97.6566 133.902 99.259C133.471 99.6477 133.026 100.008 132.566 100.355L132.481 100.128C133.977 99.0859 135.217 97.718 136.108 96.1276C137.429 93.5406 137.521 90.4729 137.083 87.6455C136.998 87.0941 136.892 86.5428 136.751 85.9915L137.026 86.1399C137.597 88.4091 137.701 90.7707 137.33 93.0811ZM146.972 101.818C146.837 99.9234 146.053 97.5413 144.102 96.8062C141.734 95.9227 139.691 98.0856 138.546 99.8881C137.217 101.966 136.199 104.221 134.948 106.349C134.984 106.426 135.012 106.504 135.054 106.589C136.404 104.313 137.458 101.846 138.928 99.6407C139.63 98.4038 140.732 97.4419 142.052 96.9122C142.642 96.7329 143.272 96.7326 143.862 96.9113C144.452 97.0899 144.976 97.4396 145.367 97.916C147.035 99.8457 146.993 102.807 146.534 105.161C146.003 107.935 144.733 110.514 142.858 112.625C141.75 113.858 140.44 114.893 138.984 115.686C138.984 115.75 139.034 115.806 139.062 115.87C141.746 114.389 143.923 112.136 145.311 109.402C146.53 107.067 147.103 104.449 146.972 101.818ZM145.396 115.106C145.03 115.479 144.742 115.922 144.549 116.407C144.356 116.892 144.262 117.412 144.272 117.934C144.319 118.407 144.471 118.864 144.715 119.272C144.96 119.68 145.291 120.029 145.685 120.295L145.77 120.351L145.904 120.168L145.791 120.097C145.286 119.762 144.898 119.277 144.681 118.711C144.465 118.144 144.43 117.524 144.583 116.937C144.774 116.313 145.098 115.737 145.533 115.249C145.967 114.761 146.501 114.373 147.099 114.11C148.287 113.615 149.582 113.437 150.859 113.594L150.973 113.445C148.937 113.276 146.852 113.53 145.396 115.106ZM143.028 91.6886C143.002 92.3457 142.766 92.9773 142.356 93.4911C141.126 94.6645 139.91 91.7028 139.712 90.8546C139.497 89.8286 139.475 88.7713 139.649 87.7374L139.437 87.596C139.375 87.968 139.335 88.3432 139.317 88.7199C139.23 89.8901 139.437 91.0634 139.917 92.134C140.271 92.8903 141.14 94.3464 142.179 93.8869C143.218 93.4275 143.24 91.8442 143.367 90.9465L143.431 90.5223L143.233 90.3668C143.162 90.8051 143.098 91.2504 143.028 91.6886ZM155.85 102.291C154.683 102.547 153.473 102.528 152.316 102.235C151.654 102.045 151.077 101.635 150.682 101.071C150.287 100.507 150.098 99.8254 150.146 99.1388C150.193 98.4103 150.358 97.6942 150.633 97.0183L150.449 96.8416C149.913 97.954 149.78 99.2187 150.075 100.418C150.867 102.758 153.666 102.85 155.73 102.539L156.048 102.482L155.85 102.291Z" fill="white"/>
<path d="M153.701 102.362C151.454 104.631 145.693 112.385 144.724 113.672C144.215 114.343 142.307 117.114 141.791 117.778C141.727 117.863 141.869 117.948 141.939 117.863C142.915 116.591 144.025 115.425 145.021 114.159C146.018 112.894 152.16 105.218 153.793 102.454C153.829 102.376 153.751 102.305 153.701 102.362Z" fill="#263238"/>
<path opacity="0.1" d="M152.492 111.445L142.893 124.218C142.893 124.218 131.167 99.5488 129.767 91.3211C129.011 86.8821 129.767 84.8534 131.605 84.5L152.492 111.445Z" fill="black"/>
<path d="M218.123 231.687C220.243 230.98 218.363 224.774 215.967 222.858C215.211 222.25 212.39 220.815 208.856 219.112C201.081 215.366 189.891 210.368 189.891 210.368L199.427 169.986L160.55 170.198C160.55 170.198 149.947 208.12 150.011 210.488C150.011 210.637 150.011 210.778 150.011 210.927C150.343 221.628 150.873 230.393 151.757 230.937C154.146 232.422 215.96 232.415 218.123 231.687Z" fill="#D3766A"/>
<path d="M218.123 231.687C215.96 232.393 154.139 232.393 151.785 230.93C150.909 230.379 150.372 221.621 150.046 210.919C150.046 210.778 150.046 210.623 150.046 210.481C150.328 208.572 150.731 206.683 151.255 204.826H191.206L189.884 210.368C189.884 210.368 201.074 215.373 208.856 219.105C212.39 220.808 215.218 222.243 215.974 222.858C218.363 224.767 220.265 230.973 218.123 231.687Z" fill="#EBEBEB"/>
<path d="M218.816 232.033C216.617 232.775 153.673 232.697 151.283 231.178C150.365 230.612 149.87 221.437 149.523 210.34C149.523 210.22 149.523 210.107 149.523 209.986L190.132 209.583V210.29C190.132 210.29 214.207 221.098 216.667 223.056C219.127 225.014 221.014 231.305 218.816 232.033Z" fill="#FFC727"/>
<path d="M218.109 229.595C207.506 229.319 164.678 229.22 154.168 229.757C154.083 229.757 154.083 229.821 154.168 229.828C164.678 230.323 207.499 230.075 218.109 229.764C218.328 229.757 218.328 229.602 218.109 229.595Z" fill="#263238"/>
<path d="M194.642 209.704C190.471 208.919 185.361 209.555 182.166 212.531C182.046 212.651 182.208 212.821 182.35 212.778C186.34 211.495 190.456 210.644 194.628 210.241C194.699 210.243 194.768 210.216 194.82 210.167C194.871 210.118 194.901 210.05 194.903 209.979C194.905 209.908 194.879 209.839 194.83 209.787C194.781 209.736 194.713 209.705 194.642 209.704Z" fill="#263238"/>
<path d="M197.653 211.52C193.483 210.743 188.372 211.372 185.184 214.348C185.057 214.461 185.219 214.638 185.361 214.595C189.351 213.31 193.467 212.457 197.639 212.051C197.702 212.042 197.76 212.011 197.803 211.964C197.845 211.916 197.87 211.855 197.872 211.791C197.873 211.728 197.852 211.665 197.812 211.616C197.772 211.566 197.716 211.532 197.653 211.52Z" fill="#263238"/>
<path d="M200.671 213.344C196.494 212.559 191.383 213.196 188.196 216.171C188.068 216.284 188.196 216.461 188.372 216.419C192.363 215.143 196.479 214.3 200.65 213.902C200.724 213.905 200.796 213.878 200.851 213.828C200.905 213.778 200.937 213.708 200.94 213.634C200.943 213.56 200.916 213.488 200.866 213.433C200.815 213.379 200.745 213.347 200.671 213.344Z" fill="#263238"/>
<path d="M200.056 200.607C198.416 198.345 195.363 199.356 193.617 200.819C190.679 203.385 188.468 206.678 187.206 210.368C187.206 210.453 187.206 210.502 187.305 210.517C187.305 210.835 187.601 211.174 187.955 211.04C191.404 209.767 195.249 208.834 198.204 206.544C199.929 205.208 201.632 202.741 200.056 200.607ZM192.761 208.05C191.079 208.714 189.376 209.294 187.722 210.022C188.987 208.163 190.16 206.261 191.609 204.53C192.289 203.682 193.028 202.883 193.822 202.14C195.066 201.01 199.985 198.606 199.243 203.187C198.861 205.717 194.797 207.251 192.79 208.05H192.761Z" fill="#263238"/>
<path d="M176.596 209.273C180.031 210.743 183.989 210.686 187.651 211.033C187.732 211.033 187.813 211.014 187.885 210.978C187.958 210.941 188.021 210.888 188.069 210.823C188.117 210.757 188.149 210.681 188.163 210.601C188.176 210.521 188.17 210.439 188.146 210.361C188.163 210.356 188.178 210.348 188.191 210.336C188.204 210.324 188.214 210.309 188.22 210.292C188.226 210.276 188.228 210.258 188.227 210.241C188.225 210.223 188.219 210.206 188.209 210.192C186.039 206.946 183.056 204.326 179.558 202.593C177.501 201.625 174.284 201.413 173.274 204.007C172.312 206.459 174.61 208.41 176.596 209.273ZM174.716 206.29C172.835 202.049 178.207 203.123 179.664 203.901C180.618 204.424 181.536 205.01 182.413 205.654C184.202 207.011 185.919 208.46 187.559 209.994C185.771 209.704 183.982 209.577 182.187 209.35C180.074 209.089 175.748 208.629 174.716 206.29Z" fill="#263238"/>
<path d="M106.456 143.076C106.456 143.076 99.4861 168.275 111.644 175.74C119.758 180.688 155.624 173.831 157.151 169.378C160.028 161.002 160.035 157.934 160.035 157.934L150.846 202.331L196.027 202.861C196.027 202.861 204.509 166.105 202.325 127.144C201.519 112.731 182.145 108.37 168.665 115.545C155.581 122.514 132.199 141.804 132.199 141.804L106.456 143.076Z" fill="#37474F"/>
<path d="M154.641 176.333C157.072 170.375 156.881 168.035 162.96 149.544C163.773 147.07 164.459 144.561 165.18 142.058C165.901 139.556 166.827 136.891 167.399 134.248C167.399 134.121 167.633 134.177 167.597 134.304C166.89 136.587 166.438 138.948 165.837 141.26C165.236 143.571 164.643 145.791 164.006 148.038C163.738 149.014 163.448 149.982 163.172 150.958L163.533 150.357C164.063 149.445 164.593 148.533 165.144 147.635C166.29 145.783 167.668 144.045 168.679 142.115C168.692 142.092 168.714 142.074 168.74 142.067C168.765 142.06 168.793 142.063 168.816 142.076C168.84 142.089 168.857 142.111 168.864 142.137C168.872 142.163 168.868 142.19 168.855 142.214C167.71 144.059 166.89 146.109 165.816 148.003C165.293 148.922 164.749 149.82 164.19 150.717C163.715 151.559 163.171 152.361 162.564 153.113C161.737 155.941 159.956 162.847 159.066 165.688C156.238 174.63 157.185 171.718 155.1 176.517C154.98 176.765 154.535 176.595 154.641 176.333Z" fill="#263238"/>
<path d="M175.217 195.015C168.417 194.945 161.625 194.563 154.825 194.429C154.697 194.429 154.676 194.231 154.825 194.231C161.603 194.188 168.375 193.927 175.154 194.005C181.932 194.082 188.739 194.422 195.539 194.648C195.709 194.648 195.737 194.923 195.539 194.923C188.746 194.938 181.996 195.086 175.217 195.015Z" fill="#263238"/>
<path d="M158.55 192.746C159.172 189.742 160.041 186.788 160.833 183.833C161.625 180.878 162.423 177.903 163.243 174.948C164.876 169.032 166.587 163.129 168.29 157.234C169.251 153.884 170.298 150.555 171.323 147.225C171.327 147.205 171.34 147.187 171.358 147.176C171.376 147.164 171.397 147.161 171.418 147.165C171.439 147.17 171.457 147.183 171.468 147.201C171.479 147.218 171.483 147.24 171.478 147.261C168.448 159.173 165.192 171.02 161.709 182.801C160.72 186.144 159.829 189.53 158.656 192.81C158.647 192.824 158.634 192.834 158.618 192.838C158.602 192.842 158.585 192.84 158.571 192.831C158.557 192.823 158.547 192.809 158.543 192.793C158.539 192.777 158.541 192.76 158.55 192.746Z" fill="#263238"/>
<path d="M111.643 175.733C99.4854 168.275 106.448 143.069 106.448 143.069L128.127 142.016L157.645 167.957L157.15 169.371C155.623 173.831 119.758 180.723 111.643 175.733Z" fill="#263238"/>
<path d="M196.232 201.886C196.091 202.558 196.006 202.904 196.006 202.904L150.824 202.374L157.893 168.205L196.232 201.886Z" fill="#263238"/>
<path d="M13.9226 236.345C13.5197 238.571 19.8672 239.879 22.6946 238.713C25.027 237.386 27.2701 235.907 29.4096 234.288C36.4357 229.269 46.2043 221.876 46.2043 221.876L79.4261 223.883L97.9455 189.735C97.9455 189.735 67.4168 187.975 65.3174 186.908L64.9287 186.703C55.3933 181.84 47.4554 178.086 46.5507 178.595C44.0908 179.924 14.3255 234.104 13.9226 236.345Z" fill="#D3766A"/>
<path d="M71.1268 187.749L53.6607 222.307L46.2034 221.855C46.2034 221.855 36.4277 229.241 29.4017 234.267C26.2067 236.536 23.5985 238.317 22.7008 238.692C19.8734 239.872 13.5118 238.55 13.9217 236.324C14.3317 234.097 44.09 179.924 46.5286 178.56C47.4333 178.058 55.3712 181.805 64.9066 186.675L65.2954 186.866C65.8114 187.156 68.045 187.467 71.1268 187.749Z" fill="#EBEBEB"/>
<path d="M13.286 236.79C13.696 234.507 44.0763 179.38 46.5644 178.016C47.4974 177.486 55.7887 181.444 65.6492 186.498L65.9602 186.661L46.7764 222.455L46.1827 222.109C46.1827 222.109 25.1186 238.013 22.2206 239.222C19.3225 240.43 12.8619 239.066 13.286 236.79Z" fill="#FFC727"/>
<path d="M15.7671 237.341C21.1108 228.152 41.8214 190.69 46.4159 181.232C46.4159 181.154 46.4159 181.126 46.3523 181.232C40.8531 190.166 20.4535 227.813 15.6116 237.228C15.5126 237.462 15.654 237.539 15.7671 237.341Z" fill="#263238"/>
<path d="M44.4931 226.364C47.1932 223.077 49.0947 218.299 48.0273 214.072C47.9849 213.902 47.7587 213.966 47.7304 214.107C46.9304 218.221 45.6935 222.237 44.0407 226.088C44.0171 226.147 44.0152 226.213 44.0352 226.273C44.0553 226.333 44.0961 226.385 44.1503 226.418C44.2045 226.451 44.2687 226.463 44.3315 226.454C44.3942 226.444 44.4515 226.412 44.4931 226.364Z" fill="#263238"/>
<path d="M41.4464 228.124C44.1465 224.844 46.0479 220.059 44.9806 215.832C44.9382 215.669 44.7049 215.726 44.6767 215.832C43.8786 219.958 42.6416 223.986 40.9869 227.848C40.9563 227.909 40.9497 227.979 40.9685 228.044C40.9874 228.109 41.0302 228.165 41.0884 228.2C41.1466 228.235 41.2159 228.247 41.2823 228.232C41.3487 228.218 41.4073 228.18 41.4464 228.124Z" fill="#263238"/>
<path d="M38.4078 229.884C41.1009 226.604 43.0023 221.826 41.942 217.592C41.8996 217.43 41.6664 217.493 41.6381 217.592C40.8433 221.719 39.6063 225.747 37.9484 229.609C37.9177 229.669 37.9111 229.739 37.93 229.804C37.9488 229.87 37.9916 229.925 38.0498 229.96C38.1081 229.995 38.1773 230.007 38.2437 229.993C38.3102 229.978 38.3688 229.94 38.4078 229.884Z" fill="#263238"/>
<path d="M49.8512 235.51C52.6221 235.164 53.2017 231.976 52.7635 229.764C51.9374 225.943 50.1186 222.408 47.4904 219.515C47.4798 219.501 47.4663 219.491 47.451 219.483C47.4357 219.476 47.419 219.472 47.402 219.472C47.385 219.472 47.3683 219.476 47.353 219.483C47.3377 219.491 47.3243 219.501 47.3137 219.515C47.2433 219.472 47.164 219.447 47.0822 219.441C47.0004 219.435 46.9183 219.449 46.8427 219.48C46.767 219.512 46.6998 219.561 46.6465 219.623C46.5933 219.686 46.5555 219.76 46.5361 219.84C45.9919 223.473 44.9599 227.29 45.5465 230.987C45.8858 233.157 47.2288 235.814 49.8512 235.51ZM46.8401 225.537C47.0663 223.741 47.3773 222.003 47.5469 220.165C48.6311 222.131 49.6149 224.15 50.4945 226.215C50.9099 227.222 51.2525 228.256 51.5194 229.311C51.9152 230.944 51.6466 236.38 47.9852 233.553C45.9636 231.983 46.5715 227.672 46.8401 225.537Z" fill="#263238"/>
<path d="M53.569 210.75C50.6214 213.054 48.7907 216.553 46.6702 219.593C46.6308 219.663 46.6086 219.742 46.6054 219.823C46.6022 219.904 46.6181 219.985 46.6518 220.058C46.6856 220.132 46.7361 220.197 46.7995 220.247C46.8628 220.298 46.9372 220.332 47.0165 220.349C47.0165 220.42 47.0165 220.49 47.1437 220.483C51.0356 220.151 54.7721 218.803 57.9797 216.574C59.8246 215.238 61.5563 212.524 59.7609 210.382C58.0928 208.354 55.2866 209.407 53.569 210.75ZM57.1032 210.538C61.726 210.934 58.1988 215.118 56.7993 216.051C55.8925 216.634 54.948 217.156 53.9719 217.613C51.9192 218.526 49.822 219.336 47.688 220.038C48.8048 218.624 49.8086 217.104 50.8405 215.634C52.0493 213.902 54.5374 210.312 57.082 210.538H57.1032Z" fill="#263238"/>
<path d="M135.026 136.905C135.686 143.052 136.035 149.229 136.072 155.411C136.072 155.411 178.992 177.896 180.971 199.278C181.678 206.848 180.653 221.034 165.802 227.502C149.212 234.726 57.5273 229.75 57.5273 229.75L68.9853 187.537H109.424C109.424 187.537 80.8886 192.075 77.7856 173.061C74.9087 155.39 85.7588 136.884 85.7588 136.884L135.026 136.905Z" fill="#37474F"/>
<path d="M66.9848 227.686C67.9956 222.823 68.971 217.939 70.102 213.097C71.2329 208.255 72.4346 203.42 73.7069 198.613C74.0674 197.256 74.4137 195.899 74.8096 194.542C74.9863 193.899 75.163 193.255 75.3468 192.612C75.5115 191.955 75.7097 191.306 75.9405 190.668C75.9405 190.598 76.0466 190.668 76.0395 190.704C75.8747 191.96 75.6388 193.206 75.3326 194.436C75.0782 195.616 74.8308 196.79 74.5763 197.97C74.0485 200.383 73.509 202.793 72.9576 205.201C71.8479 210.022 70.618 214.807 69.3669 219.586C68.6506 222.309 67.9437 225.026 67.2463 227.735C67.1686 227.884 66.9494 227.849 66.9848 227.686Z" fill="#263238"/>
<path d="M95.4429 187.551C98.7226 187.318 102.002 187.212 105.289 187.148C108.576 187.085 111.856 187.148 115.143 187.148C118.43 187.148 121.709 187.388 124.982 187.678C128.262 187.926 131.521 188.398 134.736 189.092L132.298 188.781L129.845 188.548C128.212 188.406 126.587 188.272 124.947 188.201C121.674 188.011 118.401 187.876 115.121 187.82C111.842 187.763 108.569 187.685 105.289 187.643L95.4429 187.551Z" fill="#263238"/>
<path d="M94.7358 140.39C93.2704 144.149 91.9988 147.981 90.9259 151.87C89.8245 155.749 89.0397 159.71 88.5791 163.716C88.3603 165.707 88.3178 167.713 88.4519 169.71C88.5544 171.687 89.0494 173.624 89.908 175.408C90.3507 176.268 90.9445 177.041 91.661 177.691C92.3988 178.339 93.2046 178.905 94.0643 179.38C95.8156 180.324 97.6674 181.068 99.5847 181.6C103.466 182.623 107.423 183.332 111.417 183.72C115.418 184.187 119.44 184.512 123.434 184.922C127.478 185.264 131.493 185.887 135.45 186.788C137.459 187.241 139.4 187.954 141.225 188.908C143.029 189.892 144.715 191.078 146.251 192.443L147.163 193.248H145.933L113.234 192.803L96.927 192.697C91.4772 192.697 86.0274 192.662 80.5776 192.81C86.0204 192.492 91.4772 192.407 96.927 192.315C102.377 192.223 107.827 192.202 113.283 192.188H129.633L145.989 192.337L145.671 193.135C144.19 191.819 142.563 190.676 140.822 189.728C139.066 188.81 137.195 188.13 135.259 187.707C131.336 186.848 127.363 186.234 123.363 185.869C119.355 185.445 115.326 185.098 111.304 184.611C107.262 184.19 103.26 183.443 99.3373 182.377C97.3662 181.821 95.468 181.034 93.6826 180.03C92.7833 179.511 91.9401 178.899 91.1662 178.207C90.3918 177.489 89.7546 176.636 89.286 175.69C88.4095 173.813 87.9169 171.78 87.837 169.71C87.7246 167.675 87.7932 165.634 88.0419 163.61C88.5619 159.59 89.4275 155.621 90.629 151.749C91.7846 147.889 93.1556 144.097 94.7358 140.39Z" fill="#263238"/>
<path d="M130.361 136.46C130.361 136.44 130.369 136.42 130.384 136.405C130.398 136.391 130.418 136.383 130.439 136.383C130.459 136.383 130.479 136.391 130.494 136.405C130.508 136.42 130.517 136.44 130.517 136.46C130.686 137.924 131.223 146.271 131.457 149.417C131.542 150.541 131.457 152.541 133.118 152.534C134.411 152.534 135.055 151.12 135.196 150.032C135.373 148.696 134.659 138.998 134.489 135.775C134.489 135.683 134.638 135.676 134.652 135.775C135.245 139.005 136.398 149.283 136.065 150.725C135.985 151.292 135.758 151.829 135.407 152.283C135.057 152.736 134.594 153.091 134.065 153.312C134.158 154.581 134.139 155.856 134.008 157.121C134.008 157.228 133.669 157.256 133.648 157.171C133.704 156.415 133.302 153.488 133.309 153.474C132.909 153.507 132.509 153.436 132.145 153.269C131.781 153.102 131.466 152.844 131.231 152.52C130.078 150.993 130.333 140.178 130.361 136.46Z" fill="#263238"/>
<path d="M125.724 161.228C126.89 160.423 128.099 159.687 129.321 158.966C130.544 158.245 131.774 157.553 133.025 156.895C134.276 156.238 135.542 155.595 136.828 155.008C138.115 154.421 139.415 153.842 140.751 153.368C140.143 153.743 139.521 154.075 138.913 154.436L137.061 155.467C135.832 156.174 134.58 156.818 133.336 157.482C132.092 158.146 130.834 158.797 129.562 159.412L127.66 160.345C127.01 160.635 126.374 160.946 125.724 161.228Z" fill="#263238"/>
<path d="M95.2659 154.527C97.542 154.527 104.639 154.937 108.025 152.075C110.76 149.763 111.962 141.868 112.435 139.705C112.435 139.592 112.619 139.634 112.619 139.705C112.672 142.157 112.363 144.603 111.7 146.964C111.149 148.965 110.407 151.205 108.795 152.619C107.183 154.033 104.787 154.612 102.61 154.881C100.165 155.164 97.6944 155.128 95.2589 154.775C95.2261 154.774 95.195 154.76 95.1724 154.736C95.1499 154.712 95.1378 154.68 95.1387 154.648C95.1397 154.615 95.1536 154.584 95.1774 154.561C95.2013 154.539 95.2331 154.526 95.2659 154.527Z" fill="#263238"/>
<path d="M141.388 128.296L137.952 145.706L82.1963 139.995C82.1963 139.995 102.582 97.7322 119.907 84.5354C126.798 79.2906 132.453 81.6303 136.447 86.5994C137.359 87.7374 147.551 109.218 147.841 116.591C148.039 122.62 141.388 128.296 141.388 128.296Z" fill="#FFC727"/>
<path d="M87.4198 129.788C87.5365 131.245 87.5223 132.709 87.3774 134.163C87.0805 136.503 85.9143 139.394 83.3343 139.931C82.9511 140.014 82.5567 140.031 82.168 139.981L82.2174 139.875C83.0608 139.979 83.9127 139.764 84.6066 139.274C87.2219 137.514 87.434 133.895 87.3492 131.06C87.3492 130.714 87.3491 130.353 87.2997 130.014L87.4198 129.788ZM93.732 118.542L93.6259 118.719C95.8172 119.079 97.2945 121.327 97.5065 123.504C97.8105 126.55 95.9939 129.35 94.4247 131.802C92.9262 134.128 91.3852 136.574 91.2863 139.422C91.2675 139.927 91.2912 140.433 91.357 140.935H91.5761C91.47 140.144 91.47 139.343 91.5761 138.553C91.9649 135.612 93.838 133.174 95.3507 130.721C96.7643 128.438 98.1356 125.731 97.6338 122.946C97.2662 120.945 95.8596 118.917 93.732 118.542ZM109.367 128.954C107.954 127.271 105.579 126.289 103.628 127.689C101.995 128.869 101.627 131.103 101.733 132.983C101.896 135.739 103.324 138.221 103.621 140.956C103.664 141.369 103.676 141.785 103.656 142.2H103.896C104.045 139.698 102.843 137.252 102.264 134.884C101.762 132.834 101.677 130.162 103.105 128.445C103.489 127.984 103.986 127.631 104.547 127.419C105.108 127.208 105.714 127.144 106.307 127.236C107.612 127.524 108.755 128.307 109.495 129.42C111.417 132.071 110.795 135.407 110.435 138.44C110.219 139.906 110.205 141.395 110.392 142.865H110.597C110.265 140.822 110.597 138.715 110.852 136.63C111.067 135.13 111.067 133.607 110.852 132.106C110.634 130.946 110.123 129.861 109.367 128.954ZM117.977 128.636C116.533 126.83 114.617 125.46 112.442 124.677C109.841 123.766 107.021 123.645 104.462 122.599C103.168 122.09 102.021 121.267 101.126 120.203C100.244 119.091 99.5822 117.823 99.1747 116.464C98.5754 114.68 98.3047 112.802 98.376 110.922C98.2982 111.035 98.2275 111.148 98.1568 111.268C98.1321 112.398 98.2365 113.527 98.4678 114.633C98.9697 117.178 100.03 119.8 102.094 121.475C104.158 123.151 106.837 123.561 109.346 124.077C110.695 124.321 112.014 124.705 113.283 125.222C114.396 125.719 115.426 126.384 116.337 127.194C119.963 130.417 121.659 135.549 121.341 140.32C121.281 141.552 121.043 142.768 120.635 143.932H120.84C121.054 143.361 121.217 142.772 121.327 142.172C121.76 139.807 121.685 137.377 121.107 135.044C120.53 132.71 119.463 130.526 117.977 128.636ZM114.725 108.074C114.06 106.953 113.29 105.898 112.428 104.921C110.753 102.956 108.83 100.984 108.187 98.4109C108.072 97.9719 108.005 97.5215 107.989 97.0679C107.926 97.1402 107.867 97.2157 107.812 97.2941V97.3294C108.024 99.7681 109.523 101.79 111.05 103.599C111.905 104.61 112.796 105.592 113.58 106.66C114.476 107.867 115.171 109.211 115.637 110.639C116.408 113.036 116.846 116.414 115.185 118.563C114.806 119.081 114.263 119.455 113.644 119.623C113.024 119.792 112.366 119.744 111.778 119.489C111.16 119.193 110.615 118.764 110.182 118.232C109.749 117.7 109.44 117.08 109.276 116.414C108.498 113.488 109.749 110.463 109.092 107.508C108.876 106.337 108.252 105.28 107.332 104.525C106.526 103.938 105.55 103.633 104.554 103.656C104.042 103.658 103.534 103.73 103.041 103.868L102.85 104.143C103.438 103.948 104.055 103.853 104.674 103.861C105.294 103.854 105.907 103.988 106.468 104.252C107.029 104.517 107.522 104.905 107.911 105.388C108.694 106.517 109.098 107.866 109.063 109.24C109.134 112.067 108.039 115.283 109.636 117.856C110.214 118.857 111.164 119.589 112.28 119.892C112.786 120.004 113.314 119.982 113.809 119.828C114.305 119.675 114.752 119.394 115.107 119.016C116.775 117.284 116.69 114.414 116.28 112.23C115.989 110.77 115.464 109.366 114.725 108.074ZM124.077 96.1702C123.815 92.9611 122.741 89.8652 122.734 86.6278C122.718 85.1697 123.009 83.7246 123.589 82.3867L123.299 82.5069C122.864 83.5595 122.608 84.6777 122.543 85.8149C122.331 89.0381 123.377 92.1766 123.766 95.3149C123.989 96.7886 123.989 98.2873 123.766 99.761C123.644 100.492 123.43 101.204 123.13 101.882C122.861 102.489 122.465 103.373 121.801 103.635C121.136 103.896 120.437 103.345 120.062 102.786C119.675 102.145 119.461 101.414 119.44 100.666C119.32 99.0117 119.595 97.3648 119.624 95.7178C119.666 93.4277 119.044 90.6992 116.726 89.6955C116.086 89.4189 115.394 89.2838 114.697 89.2997L114.506 89.4976C115.084 89.4459 115.666 89.5133 116.217 89.6957C116.768 89.8781 117.275 90.1715 117.708 90.5579C119.935 92.5724 119.398 95.9794 119.235 98.6301C119.157 100.001 119.065 101.606 119.808 102.829C120.281 103.599 121.221 104.334 122.126 103.748C122.606 103.36 122.977 102.853 123.2 102.277C123.493 101.688 123.716 101.066 123.865 100.425C124.158 99.0269 124.23 97.591 124.077 96.1702ZM129.682 112.117C131.994 111.155 133.577 108.985 134.849 106.914C136.298 104.539 137.38 101.966 138.928 99.6196C139.543 98.5929 140.409 97.7392 141.444 97.1386L141.388 97.0114C140.223 97.7023 139.251 98.6745 138.56 99.8388C137.069 102.171 135.966 104.737 134.489 107.084C133.117 109.254 131.343 111.523 128.742 112.18C128.191 112.367 127.602 112.41 127.03 112.303C126.458 112.197 125.923 111.945 125.476 111.572C124.466 110.576 124.501 109.021 124.883 107.748C125.491 105.727 127.109 104.257 128.749 103.027C130.389 101.797 132.319 100.645 133.916 99.2097C135.737 97.6073 136.948 95.4248 137.344 93.0318C137.595 91.5153 137.633 89.9714 137.458 88.4444C137.337 88.2041 137.231 87.992 137.125 87.7941C137.514 90.5579 137.408 93.5549 136.122 96.0783C135.054 98.1635 133.188 99.6126 131.315 100.941C129.529 102.046 127.87 103.342 126.367 104.808C125.024 106.264 123.957 108.434 124.55 110.463C125.229 112.824 127.795 112.922 129.682 112.117ZM145.706 107.967C145.048 109.669 144.09 111.24 142.879 112.604C140.948 114.749 138.444 116.296 135.662 117.065C134.304 117.44 132.901 117.63 131.492 117.63C129.944 117.537 128.405 117.341 126.883 117.043C125.593 116.814 124.265 116.974 123.066 117.503C121.991 118.016 121.092 118.838 120.486 119.864C120.131 120.436 119.903 121.079 119.821 121.748C119.738 122.416 119.801 123.095 120.005 123.737C120.351 124.671 121.049 125.432 121.949 125.858C122.958 126.293 124.06 126.468 125.153 126.368C126.247 126.268 127.299 125.896 128.212 125.285C129.369 124.537 130.451 123.677 131.442 122.719C132.524 121.737 133.633 120.542 135.019 120.005C137.493 119.044 139.62 121.32 139.924 123.638C140.271 126.317 138.129 128.473 135.945 129.632C133.761 130.792 131.096 131.046 128.763 132.057C126.721 132.947 125.144 134.637 125.158 137.005C125.201 141.91 131.11 146.13 135.697 144.073C136.909 143.499 137.959 142.632 138.751 141.55L138.843 141.069C137.571 142.815 135.825 144.243 133.584 144.377C132.174 144.401 130.782 144.059 129.544 143.385C128.305 142.711 127.262 141.728 126.516 140.532C125.187 138.411 124.854 135.584 126.706 133.69C128.445 131.894 131.174 131.569 133.464 130.862C135.754 130.155 138.058 129.003 139.352 126.939C139.926 126.057 140.208 125.016 140.158 123.964C140.107 122.912 139.726 121.903 139.069 121.079C138.504 120.325 137.681 119.805 136.758 119.616C136.155 119.564 135.548 119.638 134.976 119.834C134.404 120.03 133.879 120.344 133.436 120.754C131.223 122.472 129.399 124.819 126.706 125.83C124.692 126.586 121.758 126.331 120.536 124.352C118.853 121.673 121.242 118.344 123.837 117.475C125.37 116.966 126.94 117.284 128.488 117.574C129.837 117.835 131.215 117.927 132.587 117.849C135.252 117.668 137.824 116.8 140.054 115.329C142.283 113.859 144.094 111.837 145.311 109.459C145.487 109.106 145.657 108.752 145.812 108.37L145.706 107.967ZM147.12 114.103L147.452 113.962L147.41 113.764C146.642 114.028 145.954 114.483 145.41 115.085C145.044 115.458 144.756 115.9 144.563 116.386C144.37 116.871 144.276 117.391 144.286 117.913C144.333 118.386 144.485 118.843 144.729 119.251C144.973 119.659 145.305 120.008 145.699 120.274C146.076 120.53 146.482 120.741 146.908 120.903L147 120.691C146.576 120.54 146.174 120.333 145.805 120.076C145.3 119.741 144.912 119.256 144.695 118.689C144.479 118.123 144.444 117.503 144.597 116.916C144.792 116.299 145.117 115.73 145.55 115.249C145.982 114.767 146.513 114.384 147.106 114.124L147.12 114.103Z" fill="white"/>
<path d="M133.931 124.168C131.105 123.954 128.265 124.006 125.449 124.324C124.035 124.501 122.621 124.762 121.207 125.066C120.501 125.215 119.794 125.335 119.087 125.448C118.366 125.595 117.627 125.631 116.896 125.554C116.832 125.554 116.804 125.667 116.896 125.681C117.561 125.854 118.239 125.968 118.924 126.02C119.595 126.049 120.267 126.019 120.932 125.928C122.345 125.759 123.759 125.511 125.222 125.328C128.106 124.953 130.983 124.578 133.86 124.472C134.037 124.465 134.058 124.183 133.931 124.168Z" fill="#263238"/>
<path d="M140.059 128.614C137.873 127.873 135.636 127.292 133.365 126.875C132.228 126.68 131.081 126.548 129.93 126.48C129.378 126.444 128.82 126.416 128.269 126.402C127.717 126.388 127.039 126.472 126.431 126.444C126.367 126.444 126.339 126.564 126.431 126.571C126.996 126.621 127.555 126.791 128.12 126.882L129.824 127.151C130.962 127.335 132.093 127.533 133.231 127.702C135.514 128.042 137.776 128.409 140.038 128.855C140.137 128.876 140.172 128.65 140.059 128.614Z" fill="#263238"/>
<path d="M128.24 85.0371C128.12 86.161 130.749 94.629 135.577 96.0498C137.153 96.5092 140.051 88.0341 140.051 88.0341L140.405 87.4545L145.395 79.3753L137.393 69.2108L136.206 67.7971C136.206 67.7971 134.99 70.1014 133.499 72.9783L133.287 73.3883C133.195 73.5509 133.11 73.6993 133.032 73.8548C132.806 74.2789 132.573 74.7171 132.325 75.1625C132.156 75.4947 131.993 75.8198 131.824 76.1732C131.654 76.5267 131.491 76.8801 131.315 77.2335C130.107 79.7592 129.08 82.3668 128.24 85.0371Z" fill="#D3766A"/>
<path d="M133.499 73.0066C133.532 75.7718 134.167 78.4967 135.359 80.9918C136.552 83.4868 138.274 85.6922 140.405 87.4545L145.395 79.3753L137.394 69.2108L136.206 67.7971C136.206 67.7971 135.026 70.1297 133.499 73.0066Z" fill="#263238"/>
<path d="M162.536 70.4128C157.942 86.437 147.827 85.4969 144.37 84.5002C141.239 83.6025 130.679 80.1319 133.584 63.7189C136.489 47.306 145.395 44.3796 152.669 46.0478C159.942 47.7159 167.124 54.3603 162.536 70.4128Z" fill="#D3766A"/>
<path d="M160.317 65.5635C159.968 65.4041 159.628 65.2247 159.3 65.0263C158.922 64.8942 158.596 64.647 158.367 64.3194C158.318 64.1961 158.311 64.0603 158.347 63.9327C158.382 63.8051 158.459 63.6927 158.564 63.6126C158.797 63.4915 159.058 63.4343 159.32 63.4467C159.582 63.4591 159.836 63.5408 160.056 63.6833C160.551 63.8897 160.951 64.2726 161.18 64.7577C161.225 64.876 161.235 65.0054 161.206 65.1291C161.178 65.2527 161.113 65.3651 161.021 65.4518C160.928 65.5384 160.811 65.5953 160.686 65.6152C160.561 65.6351 160.432 65.6171 160.317 65.5635Z" fill="#263238"/>
<path d="M149.722 62.6372C150.104 62.6842 150.489 62.7101 150.874 62.7149C151.274 62.7999 151.692 62.7502 152.061 62.5736C152.169 62.495 152.247 62.3826 152.282 62.2544C152.318 62.1262 152.31 61.9897 152.259 61.8667C152.125 61.6439 151.933 61.4609 151.705 61.3367C151.476 61.2124 151.219 61.1514 150.959 61.1599C150.427 61.0841 149.886 61.213 149.446 61.5203C149.352 61.5965 149.282 61.6976 149.244 61.8119C149.206 61.9262 149.201 62.049 149.23 62.1661C149.259 62.2831 149.32 62.3895 149.407 62.4729C149.494 62.5563 149.603 62.6133 149.722 62.6372Z" fill="#263238"/>
<path d="M150.704 67.3097C150.704 67.2673 150.605 67.3097 150.591 67.3875C150.344 68.4902 149.884 69.7201 148.782 69.8191C148.746 69.8191 148.732 69.8827 148.782 69.8897C150.033 70.0311 150.641 68.3983 150.704 67.3097Z" fill="#263238"/>
<path d="M150.018 65.9029C148.294 65.3092 147.191 68.8151 148.831 69.3665C150.471 69.9178 151.475 66.4048 150.018 65.9029Z" fill="#263238"/>
<path d="M149.276 65.8815C148.909 65.9875 148.506 66.249 148.124 66.1713C147.742 66.0935 147.474 65.6199 147.304 65.1817C147.304 65.1393 147.24 65.1817 147.226 65.1817C147.074 65.4875 147.045 65.8397 147.143 66.1666C147.241 66.4936 147.461 66.7707 147.756 66.9417C148.385 67.2315 149.036 66.7792 149.41 66.1501C149.474 66.0582 149.425 65.8391 149.276 65.8815Z" fill="#263238"/>
<path d="M157.066 68.9562C157.066 68.9138 157.136 69.0339 157.115 69.0764C156.748 70.1508 156.5 71.4443 157.37 72.1087C157.37 72.1087 157.37 72.1794 157.37 72.1653C156.232 71.621 156.543 69.9104 157.066 68.9562Z" fill="#263238"/>
<path d="M158.388 68.1223C160.169 68.5323 159.215 72.0736 157.568 71.6919C155.921 71.3102 156.889 67.783 158.388 68.1223Z" fill="#263238"/>
<path d="M159.059 68.5534C159.285 68.822 159.476 69.2603 159.801 69.3451C160.126 69.4299 160.571 69.1684 160.918 68.8715C160.953 68.8715 160.974 68.8715 160.96 68.921C160.797 69.6278 160.387 70.2498 159.702 70.2004C159.016 70.1509 158.797 69.4935 158.818 68.7867C158.818 68.617 158.967 68.4474 159.059 68.5534Z" fill="#263238"/>
<path d="M148.456 76.1238C148.626 76.4631 148.76 76.9013 149.163 77.071C149.566 77.204 149.992 77.2498 150.414 77.2053C150.424 77.2053 150.433 77.209 150.439 77.2156C150.446 77.2223 150.45 77.2312 150.45 77.2406C150.45 77.25 150.446 77.259 150.439 77.2656C150.433 77.2722 150.424 77.276 150.414 77.276C150.188 77.4345 149.923 77.5281 149.648 77.5468C149.373 77.5655 149.097 77.5085 148.852 77.382C148.655 77.247 148.502 77.0572 148.411 76.8362C148.321 76.6151 148.297 76.3723 148.343 76.1379C148.315 76.0673 148.407 76.0672 148.456 76.1238Z" fill="#263238"/>
<path d="M154.111 73.5087C154.111 73.5087 153.864 75.1981 153.638 75.9685C153.638 76.0392 153.426 76.018 153.157 75.9685C152.462 75.8979 151.8 75.6369 151.243 75.2141C150.687 74.7913 150.258 74.2232 150.004 73.5723C150.004 73.4875 150.096 73.4309 150.153 73.5016C150.935 74.4568 152.007 75.1316 153.206 75.4243C153.32 75.2263 153.532 72.512 153.659 72.5333C154.239 72.7595 154.786 73.0639 155.285 73.438C155.907 69.9038 155.956 66.3696 156.62 62.8353C156.62 62.7081 156.833 62.7222 156.833 62.8353C157.052 66.5957 156.43 70.653 155.885 74.2933C155.815 74.7598 154.401 73.7278 154.111 73.5087Z" fill="#263238"/>
<path d="M152.605 75.4735C152.046 75.8825 151.392 76.1406 150.704 76.2228C150.33 76.2543 149.955 76.1705 149.629 75.9824C148.923 75.5583 149.106 74.8444 149.424 74.286C149.594 73.9895 149.798 73.7143 150.032 73.4661C150.654 74.3921 151.556 75.0954 152.605 75.4735Z" fill="#263238"/>
<path d="M150.704 76.2229C150.33 76.2545 149.955 76.1706 149.629 75.9826C148.923 75.5585 149.106 74.8445 149.424 74.2861C149.824 74.4192 150.167 74.6824 150.399 75.0335C150.631 75.3847 150.738 75.8035 150.704 76.2229Z" fill="#FF9CBD"/>
<path d="M132.863 66.4543C135.612 67.3025 137.578 61.577 137.578 61.577C137.578 61.577 143.232 62.8776 146.979 55.1235C146.267 57.5373 144.864 59.6899 142.942 61.3155C142.942 61.3155 153.206 62.5101 159.32 55.074C159.32 55.074 156.677 58.9688 154.754 60.128C154.754 60.128 159.221 59.9089 162.041 56.9543C162.041 56.9543 162.706 62.192 163.759 63.8319C163.759 63.8319 167.293 46.196 150.619 44.4007C150.619 44.4007 140.292 42.782 134.821 50.013C129.35 57.2441 132.863 66.4543 132.863 66.4543Z" fill="#263238"/>
<path d="M139.536 62.5523L135.825 58.1558L134.743 59.2372L138.906 63.1461L139.536 62.5523Z" fill="#FFC727"/>
<path d="M138.574 63.6693L134.149 60.0007L133.266 61.2518L138.065 64.362L138.574 63.6693Z" fill="#FFC727"/>
<path d="M135.783 65.6484C135.783 65.6484 134.242 59.4918 131.577 59.8593C128.912 60.2269 128.749 68.2496 130.983 70.2005C131.251 70.4701 131.571 70.6828 131.923 70.826C132.275 70.9693 132.652 71.04 133.032 71.0341C133.412 71.0282 133.787 70.9456 134.135 70.7915C134.482 70.6373 134.795 70.4147 135.055 70.1369L135.783 65.6484Z" fill="#D3766A"/>
<path d="M131.591 62.1567C131.583 62.1556 131.575 62.1567 131.568 62.16C131.56 62.1632 131.554 62.1685 131.55 62.1751C131.545 62.1818 131.543 62.1895 131.543 62.1975C131.542 62.2055 131.544 62.2134 131.548 62.2203C133.082 63.634 133.393 65.705 133.4 67.7054C133.365 67.4825 133.281 67.27 133.155 67.0826C133.029 66.8953 132.864 66.7376 132.671 66.6206C132.478 66.5035 132.262 66.4299 132.037 66.4049C131.813 66.3798 131.586 66.4039 131.372 66.4755C131.315 66.4755 131.329 66.5815 131.372 66.5886C131.731 66.6094 132.074 66.7409 132.355 66.9649C132.636 67.189 132.841 67.4946 132.941 67.8397C133.104 68.4161 133.204 69.0087 133.238 69.6068C133.238 69.7977 133.591 69.8259 133.598 69.6068V69.5573C134.546 67.2672 133.987 63.3442 131.591 62.1567Z" fill="#263238"/>
<path d="M114.782 98.7217C111.884 114.711 104.886 147.734 111.311 157.92C119.737 171.287 148.951 181.091 156.592 183.975C159.928 185.233 169.583 163.582 167.823 160.203C166.063 156.825 135.853 143.38 133.831 141.373C131.81 139.365 129.936 112.972 127.653 99.372C124.769 82.2098 117.227 85.1856 114.782 98.7217Z" fill="#D3766A"/>
<path d="M170.206 163.419C168.842 162.218 169.499 161.49 172.687 161.681C175.875 161.871 188.506 165.321 189.34 160.825C190.175 156.33 172.334 151.7 166.948 151.806C161.561 151.912 152.881 153.969 152.881 153.969C156.168 155.566 163.788 160.182 170.206 163.419Z" fill="#D3766A"/>
<path d="M143.847 179.352C153.284 183.508 164.777 189.247 176.362 187.904C177.65 187.788 178.86 187.24 179.797 186.349C184.986 185.833 186.3 183.232 186.3 183.232C190.987 181.267 191.955 178.419 191.955 178.419C191.955 178.419 198.041 177.747 198.246 174.001C198.486 169.802 189.891 171.569 184.569 169.647C172.383 165.25 156.295 155.587 152.895 153.969L143.847 179.352Z" fill="#D3766A"/>
<path d="M168.545 174.015C172.095 175.343 175.732 176.427 179.43 177.259C183.558 178.058 187.665 178.136 191.836 178.32C191.849 178.32 191.861 178.322 191.873 178.327C191.885 178.332 191.896 178.339 191.906 178.349C191.915 178.358 191.922 178.369 191.927 178.381C191.932 178.393 191.935 178.406 191.935 178.419C191.935 178.432 191.932 178.444 191.927 178.456C191.922 178.468 191.915 178.479 191.906 178.489C191.896 178.498 191.885 178.505 191.873 178.51C191.861 178.515 191.849 178.518 191.836 178.518C184.223 179.387 175.317 177.592 168.474 174.178C168.319 174.1 168.361 173.951 168.545 174.015Z" fill="#263238"/>
<path d="M164.82 180.984C168.396 181.981 174.716 183.692 186.265 183.105C186.308 183.105 186.322 183.169 186.265 183.176C179.048 184.511 171.6 183.814 164.756 181.161C164.551 181.076 164.579 180.921 164.82 180.984Z" fill="#263238"/>
<path d="M162.883 184.773C169.04 186.23 173.104 186.371 179.741 186.321C179.777 186.321 179.791 186.392 179.741 186.392C172.206 187.24 169.379 186.696 162.777 184.978C162.593 184.922 162.643 184.717 162.883 184.773Z" fill="#263238"/>
<path d="M131.541 117.99L107.756 125.115C107.756 125.115 112.951 98.3046 116.705 90.8544C120.946 82.4642 124.296 86.4579 127.166 94.9117C130.036 103.366 131.541 117.99 131.541 117.99Z" fill="#FFC727"/>
<path d="M108.053 123.61C108.979 123.801 109.905 123.978 110.817 124.197L110.428 124.317L109.346 124.077L108.018 123.808C108.025 123.744 108.039 123.681 108.053 123.61ZM114.726 108.059C114.06 106.939 113.291 105.884 112.428 104.907L112.28 104.737L112.216 104.971C112.683 105.515 113.135 106.066 113.559 106.646C114.455 107.853 115.15 109.197 115.616 110.625C116.387 113.022 116.825 116.4 115.164 118.549C114.785 119.067 114.242 119.441 113.623 119.609C113.003 119.777 112.345 119.73 111.757 119.475C110.683 118.971 109.85 118.065 109.438 116.952L109.354 117.362C109.431 117.527 109.518 117.687 109.615 117.842C110.193 118.843 111.144 119.575 112.259 119.878C112.765 119.99 113.293 119.968 113.788 119.814C114.284 119.66 114.731 119.38 115.086 119.001C116.754 117.27 116.669 114.4 116.259 112.216C115.973 110.762 115.455 109.363 114.726 108.074V108.059ZM124.077 96.1562C123.823 92.9895 122.769 89.9359 122.734 86.7481C122.668 86.6891 122.594 86.6391 122.515 86.5996C122.515 89.533 123.413 92.3887 123.766 95.2797C123.989 96.7533 123.989 98.2521 123.766 99.7258C123.644 100.456 123.43 101.169 123.13 101.846C122.861 102.454 122.466 103.338 121.801 103.599C121.137 103.861 120.437 103.309 120.062 102.751C119.675 102.11 119.461 101.379 119.44 100.631C119.32 98.9765 119.596 97.3295 119.624 95.6826C119.666 93.5621 119.136 91.0881 117.242 89.9359C117.207 89.9925 117.178 90.049 117.15 90.1056C117.348 90.2273 117.535 90.3669 117.708 90.5226C119.935 92.5371 119.398 95.9441 119.235 98.5948C119.157 99.9661 119.066 101.571 119.808 102.793C120.281 103.564 121.221 104.299 122.126 103.712C122.607 103.325 122.977 102.818 123.201 102.242C123.493 101.653 123.716 101.031 123.865 100.39C124.155 99.0032 124.226 97.5794 124.077 96.1703V96.1562ZM129.682 112.117C130.046 111.965 130.396 111.783 130.729 111.573C130.729 111.495 130.729 111.417 130.729 111.339C130.127 111.737 129.462 112.03 128.764 112.209C128.213 112.396 127.623 112.438 127.051 112.332C126.479 112.225 125.944 111.974 125.498 111.601C124.487 110.604 124.522 109.049 124.904 107.777C125.512 105.755 127.131 104.285 128.771 103.055L129.23 102.723C129.23 102.638 129.23 102.553 129.181 102.475C128.171 103.159 127.24 103.951 126.403 104.836C125.06 106.292 123.992 108.462 124.586 110.491C125.229 112.824 127.795 112.923 129.682 112.117ZM131.499 117.595C129.951 117.502 128.412 117.306 126.89 117.008C125.601 116.779 124.272 116.939 123.073 117.468C121.998 117.981 121.1 118.803 120.493 119.828C120.191 120.334 119.981 120.889 119.871 121.468L120.062 121.412C120.32 120.491 120.796 119.645 121.449 118.946C122.102 118.248 122.914 117.716 123.816 117.397C125.349 116.888 126.919 117.206 128.467 117.496C129.479 117.685 130.505 117.787 131.534 117.8C131.492 117.772 131.492 117.701 131.492 117.616L131.499 117.595Z" fill="white"/>
<path d="M129.414 113.933C126.261 114.435 117.023 117.255 115.489 117.708C114.683 117.948 111.502 119.037 110.697 119.27C110.591 119.27 110.654 119.454 110.76 119.425C112.301 118.98 113.892 118.718 115.44 118.273C116.988 117.828 126.495 115.311 129.449 114.032C129.455 114.024 129.459 114.014 129.461 114.004C129.462 113.993 129.461 113.983 129.458 113.973C129.454 113.963 129.448 113.955 129.441 113.948C129.433 113.941 129.424 113.936 129.414 113.933Z" fill="#263238"/>
<path d="M113.276 101.28C113.276 101.167 113.142 101.146 113.107 101.28C112.4 103.493 111.771 105.727 111.163 107.967C111.202 106.752 111.351 105.543 111.608 104.355C111.611 104.349 111.612 104.342 111.612 104.335C111.611 104.328 111.609 104.321 111.605 104.315C111.601 104.309 111.596 104.304 111.59 104.301C111.583 104.298 111.576 104.296 111.569 104.296C111.562 104.296 111.555 104.298 111.549 104.301C111.543 104.304 111.538 104.309 111.534 104.315C111.53 104.321 111.528 104.328 111.527 104.335C111.527 104.342 111.528 104.349 111.531 104.355C111.178 105.719 111.006 107.124 111.022 108.533C110.602 110.092 110.199 111.659 109.813 113.233C108.837 117.234 107.805 121.228 107.056 125.25C107.047 125.299 107.051 125.349 107.067 125.396C107.084 125.443 107.113 125.485 107.151 125.518C107.189 125.55 107.235 125.572 107.284 125.58C107.333 125.589 107.384 125.585 107.431 125.568C108.251 125.292 109.057 125.002 109.855 124.67C109.94 124.635 109.919 124.493 109.855 124.507C109.148 124.628 108.442 124.783 107.735 124.939C108.788 121.1 109.636 117.213 110.562 113.346C111.531 109.331 112.471 105.317 113.276 101.28Z" fill="#263238"/>
<path d="M130.474 107.381C130.425 106.073 130.375 104.765 130.283 103.458H130.241C130.241 104.426 130.241 105.387 130.29 106.349C129.93 104.461 129.534 102.574 129.053 100.694C129.053 100.694 129.004 100.694 129.011 100.694C129.315 103.592 129.774 106.469 130.149 109.36C130.524 112.251 130.934 115.015 131.351 117.842C130.835 118.089 130.312 118.323 129.788 118.549C129.772 118.559 129.76 118.575 129.754 118.593C129.748 118.611 129.748 118.631 129.755 118.649C129.761 118.667 129.774 118.683 129.79 118.693C129.807 118.703 129.826 118.707 129.845 118.704C130.453 118.549 131.061 118.4 131.676 118.28C131.748 118.27 131.814 118.233 131.861 118.177C131.908 118.121 131.933 118.049 131.93 117.976C131.584 114.477 131.11 110.915 130.474 107.381Z" fill="#263238"/>
<path d="M206.933 22.5662C206.545 26.2998 205.126 29.8518 202.835 32.8258C200.545 35.7998 197.473 38.0786 193.962 39.4079C190.452 40.7372 186.641 41.0646 182.955 40.3535C179.269 39.6425 175.854 37.921 173.09 35.3813L162.96 36.8657L168.029 28.1079C166.855 25.2549 166.348 22.1715 166.547 19.0929C166.746 16.0143 167.646 13.0219 169.177 10.3438C170.708 7.66568 172.831 5.37271 175.383 3.63976C177.936 1.90682 180.85 0.779689 183.904 0.344335C186.958 -0.0910191 190.072 0.17691 193.006 1.12768C195.941 2.07846 198.62 3.68696 200.839 5.8305C203.058 7.97403 204.757 10.596 205.809 13.4963C206.86 16.3967 207.235 19.4989 206.905 22.5662H206.933Z" fill="white"/>
<path d="M206.934 22.5661C206.551 26.2964 205.15 29.8496 202.883 32.8366C202.315 33.5808 201.701 34.289 201.046 34.9571C200.378 35.6051 199.67 36.2095 198.925 36.7667C197.431 37.9002 195.784 38.8164 194.034 39.488C192.286 40.1713 190.452 40.609 188.584 40.7886C187.644 40.8729 186.699 40.8894 185.756 40.8381C184.808 40.8169 183.862 40.72 182.929 40.5483C179.193 39.8622 175.722 38.1488 172.906 35.6004L173.146 35.6781L163.024 37.2332L162.317 37.3392L162.692 36.696L167.732 27.917V28.2633C166.545 25.3591 166.041 22.2212 166.257 19.0913C166.474 15.9615 167.407 12.9232 168.983 10.2104C170.538 7.51194 172.691 5.20549 175.275 3.46804C177.86 1.73058 180.809 0.608272 183.895 0.187216C186.981 -0.23384 190.122 0.0575437 193.078 1.03901C196.034 2.02048 198.725 3.66595 200.947 5.8492C203.141 8.00334 204.82 10.6262 205.857 13.5213C206.893 16.4164 207.262 19.5085 206.934 22.5661ZM206.934 22.5661C207.257 19.5158 206.876 16.4319 205.82 13.5522C204.763 10.6725 203.059 8.07382 200.84 5.95664C198.62 3.83947 195.944 2.26032 193.018 1.34093C190.091 0.421538 186.993 0.186476 183.961 0.653872C180.957 1.1054 178.096 2.23947 175.599 3.96898C173.122 5.70866 171.052 7.96616 169.534 10.5851C168.043 13.2103 167.166 16.1393 166.968 19.152C166.777 22.1634 167.26 25.1797 168.382 27.9806L168.46 28.1573L168.361 28.3269L163.3 37.0494L162.939 36.5122L173.083 35.0985H173.224L173.323 35.1975C176.029 37.7295 179.387 39.4576 183.021 40.1878C183.927 40.3712 184.847 40.4847 185.771 40.5271C188.543 40.7061 191.321 40.2916 193.921 39.3113C195.669 38.6765 197.315 37.7882 198.805 36.6748C199.548 36.123 200.256 35.5258 200.925 34.8865C201.585 34.222 202.199 33.5135 202.763 32.7659C205.066 29.8152 206.51 26.2853 206.934 22.5661Z" fill="#263238"/>
<path d="M195.376 24.2766C193.109 27.3162 190.217 29.8348 186.894 31.6632C183.571 29.8363 180.678 27.3174 178.412 24.2766C175.415 20.3183 175.585 14.1122 179.826 12.7692C184.569 11.2848 186.894 18.4239 186.894 18.4239C186.894 18.4239 189.255 11.2424 193.963 12.7692C198.211 14.1546 198.373 20.3183 195.376 24.2766Z" fill="#FFC727"/>
<path d="M256.653 200.621C254.384 196.698 237.936 183.819 231.49 187.544C225.043 191.269 222.032 209.93 234.317 224.237C234.317 224.237 228.118 225.043 226.86 225.735C225.602 226.428 223.983 229.043 224.464 229.778C224.944 230.513 229.723 232.047 230.96 232.203C232.197 232.358 247.344 230.415 248.482 229.983C249.62 229.552 248.32 227.934 248.32 227.934C248.32 227.934 259.629 228.414 262.768 225.926C265.906 223.438 260.138 206.615 256.653 200.621Z" fill="#FFC727"/>
<path opacity="0.1" d="M256.653 200.621C254.384 196.698 237.936 183.819 231.49 187.544C225.043 191.269 222.032 209.93 234.317 224.237C234.317 224.237 228.118 225.043 226.86 225.735C225.602 226.428 223.983 229.043 224.464 229.778C224.944 230.513 229.723 232.047 230.96 232.203C232.197 232.358 247.344 230.415 248.482 229.983C249.62 229.552 248.32 227.934 248.32 227.934C248.32 227.934 259.629 228.414 262.768 225.926C265.906 223.438 260.138 206.615 256.653 200.621Z" fill="black"/>
<path d="M227.942 226.308C227.537 226.466 227.159 226.683 226.818 226.951C226.488 227.269 226.219 227.645 226.026 228.061C225.817 228.521 225.691 229.013 225.651 229.517C225.572 229.941 225.645 230.379 225.856 230.754C225.906 230.825 226.04 230.754 226.012 230.676C225.899 230.287 226.493 228.655 226.655 228.266C226.79 227.922 226.963 227.595 227.171 227.29C227.373 226.935 227.653 226.63 227.991 226.4C228.055 226.371 228.005 226.272 227.942 226.308Z" fill="#263238"/>
<path d="M231.242 227.128C230.782 227.297 230.351 227.535 229.963 227.835C229.581 228.147 229.269 228.534 229.044 228.973C228.62 229.8 228.422 230.987 229.044 231.8C229.046 231.806 229.05 231.811 229.055 231.816C229.06 231.82 229.066 231.824 229.072 231.826C229.078 231.829 229.085 231.83 229.092 231.829C229.098 231.829 229.105 231.827 229.111 231.825C229.117 231.822 229.122 231.818 229.127 231.813C229.131 231.808 229.135 231.802 229.137 231.796C229.139 231.79 229.14 231.783 229.14 231.777C229.14 231.77 229.138 231.764 229.136 231.758C229.008 231.312 229.008 230.839 229.136 230.393C229.315 229.577 229.689 228.816 230.224 228.174C230.504 227.814 230.856 227.516 231.256 227.297C231.355 227.198 231.306 227.099 231.242 227.128Z" fill="#263238"/>
<path d="M272.607 219.416C274.664 217.861 285.118 218.589 291.692 211.676C298.265 204.763 297.191 197.419 297.191 197.419C298.536 200.549 299.064 203.969 298.726 207.359C298.389 210.749 297.197 213.997 295.261 216.801C288.582 226.697 279.548 227.149 279.548 227.149L272.607 219.416Z" fill="#FFC727"/>
<path d="M225.75 158.684C223.686 159.956 210.369 171.471 209.578 172.913C208.786 174.355 205.966 178.475 204.905 178.49C203.845 178.504 199.053 167.823 197.752 166.82C196.451 165.816 189.383 165.102 188.478 165.561C187.573 166.021 184.484 167.215 184.824 168.537C185.163 169.859 192.168 172.347 192.55 173.301C192.931 174.256 194.84 185.127 196.501 186.428C198.162 187.728 206.814 191.694 208.772 191.771C210.73 191.849 230.988 185.325 231.553 183.855C232.119 182.384 226.69 158.104 225.75 158.684Z" fill="#FFC727"/>
<path opacity="0.1" d="M225.75 158.684C223.686 159.956 210.369 171.471 209.578 172.913C208.786 174.355 205.966 178.475 204.905 178.49C203.845 178.504 199.053 167.823 197.752 166.82C196.451 165.816 189.383 165.102 188.478 165.561C187.573 166.021 184.484 167.215 184.824 168.537C185.163 169.859 192.168 172.347 192.55 173.301C192.931 174.256 194.84 185.127 196.501 186.428C198.162 187.728 206.814 191.694 208.772 191.771C210.73 191.849 230.988 185.325 231.553 183.855C232.119 182.384 226.69 158.104 225.75 158.684Z" fill="black"/>
<path d="M189.383 167.413C188.682 167.486 188.005 167.708 187.397 168.063C186.782 168.425 186.315 168.994 186.082 169.668C186.076 169.691 186.078 169.716 186.087 169.738C186.096 169.76 186.112 169.779 186.132 169.792C186.153 169.805 186.177 169.81 186.201 169.808C186.225 169.806 186.248 169.797 186.266 169.781C187.213 168.912 188.111 167.858 189.404 167.519C189.415 167.513 189.423 167.504 189.429 167.493C189.434 167.482 189.435 167.47 189.433 167.458C189.43 167.446 189.424 167.436 189.415 167.427C189.406 167.419 189.395 167.414 189.383 167.413Z" fill="#263238"/>
<path d="M191.391 168.664C190.705 168.744 190.048 168.986 189.475 169.371C188.921 169.769 188.489 170.316 188.231 170.947C188.226 170.969 188.228 170.991 188.237 171.011C188.245 171.032 188.26 171.049 188.278 171.061C188.297 171.072 188.319 171.078 188.341 171.076C188.363 171.075 188.384 171.067 188.401 171.053C188.842 170.601 189.314 170.181 189.814 169.795C190.304 169.388 190.843 169.044 191.419 168.77C191.49 168.735 191.454 168.664 191.391 168.664Z" fill="#263238"/>
<path d="M219.381 113.269C215.684 115.898 209.485 121.751 206.742 126.812C204.233 131.52 200.854 139.677 207.23 142.801C214.072 146.144 220.462 141.557 222.569 134.715C224.675 127.872 224.873 118.994 224.873 118.994" fill="#FFC727"/>
<path opacity="0.1" d="M219.381 113.269C215.684 115.898 209.485 121.751 206.742 126.812C204.233 131.52 200.854 139.677 207.23 142.801C214.072 146.144 220.462 141.557 222.569 134.715C224.675 127.872 224.873 118.994 224.873 118.994" fill="black"/>
<path d="M280.764 228.082C279.428 231.354 255.911 229.347 252.313 228.138C250.369 227.502 245.421 218.002 240.459 209.251C236.147 201.681 231.61 193.701 228.379 189.848C225.234 186.109 219.742 183.353 218.384 176.256C218.384 169.392 221.608 152.223 221.212 151.933C220.816 151.643 207.64 150.131 203.272 148.866C198.904 147.6 193.694 134.736 194.599 132.735C195.504 130.735 209.231 130.233 211.069 128.812C212.906 127.392 216.363 115.608 220.024 112.753C223.686 109.897 236.487 112.223 243.35 116.45C248.03 119.319 254.094 149.544 257.028 156.217C257.289 156.57 257.65 157.072 258.074 157.673C261.919 163.052 271.78 176.828 277.159 184.088C279.364 187.056 280.523 195.319 281.011 203.809C281.64 214.242 281.513 226.272 280.764 228.082Z" fill="#FFC727"/>
<path opacity="0.1" d="M228.952 173.506C228.563 173.994 228.189 174.496 227.807 174.991C227.907 174.393 227.945 173.787 227.92 173.181C227.884 172.54 227.801 171.902 227.673 171.273C227.552 170.601 227.326 169.965 227.157 169.308C227.149 169.276 227.132 169.248 227.107 169.228C227.082 169.208 227.051 169.198 227.019 169.198C226.987 169.198 226.956 169.208 226.931 169.228C226.905 169.248 226.888 169.276 226.881 169.308C226.583 170.19 226.12 171.008 225.517 171.718C225.224 172.089 224.903 172.437 224.555 172.757C225.194 170.726 225.572 168.621 225.679 166.494C225.743 165.255 225.686 164.012 225.51 162.783C225.371 161.574 225.044 160.393 224.541 159.284C224.541 159.228 224.414 159.284 224.428 159.32C224.598 160.5 224.831 161.674 224.902 162.854C224.957 164.085 224.922 165.318 224.796 166.544C224.53 168.999 224.057 171.428 223.382 173.803C223.297 174.1 223.686 174.439 223.955 174.22C224.716 173.615 225.383 172.901 225.934 172.1C226.349 171.472 226.679 170.792 226.916 170.078V171.209C226.916 171.817 226.952 172.418 226.952 173.026C226.949 173.628 226.911 174.23 226.838 174.828C226.761 175.45 226.633 176.037 226.506 176.652C226.493 176.726 226.506 176.802 226.542 176.868C226.579 176.934 226.637 176.985 226.707 177.012C226.777 177.04 226.855 177.042 226.926 177.019C226.998 176.996 227.059 176.948 227.1 176.885C227.722 175.761 228.443 174.694 229.1 173.591C229.15 173.527 229.037 173.421 228.952 173.506Z" fill="black"/>
<path opacity="0.1" d="M272.084 181.84C271.502 181.336 270.894 180.864 270.26 180.426C269.963 180.186 269.652 179.932 269.348 179.663C270.096 179.774 270.86 179.684 271.561 179.401C271.649 179.373 271.726 179.317 271.78 179.242C271.835 179.167 271.864 179.077 271.864 178.984C271.864 178.892 271.835 178.801 271.78 178.726C271.726 178.651 271.649 178.596 271.561 178.567C268.485 177.596 265.775 175.719 263.785 173.181C263.743 173.125 263.651 173.181 263.694 173.238C264.56 174.67 265.656 175.95 266.938 177.026C267.873 177.78 268.905 178.406 270.006 178.885C269.436 178.907 268.868 178.82 268.33 178.631C268.261 178.613 268.187 178.619 268.121 178.647C268.055 178.676 268 178.726 267.965 178.789C267.93 178.852 267.917 178.925 267.929 178.996C267.94 179.067 267.974 179.133 268.027 179.182C268.677 179.741 269.249 180.37 269.928 180.9C270.515 181.433 271.196 181.852 271.935 182.137C272.091 182.186 272.197 181.96 272.084 181.84Z" fill="black"/>
<path d="M225.022 129.639C225.022 129.569 225.156 129.76 225.142 129.83C224.676 131.633 224.485 133.775 226.146 134.778C226.203 134.778 226.146 134.898 226.111 134.877C223.976 134.107 224.266 131.265 225.022 129.639Z" fill="#263238"/>
<path d="M227.213 128.134C230.457 128.614 229.425 134.495 226.414 134.071C223.403 133.647 224.492 127.731 227.213 128.134Z" fill="#263238"/>
<path d="M215.939 126.543C215.939 126.473 215.777 126.586 215.748 126.656C215.176 128.424 214.236 130.353 212.49 130.396C212.44 130.396 212.412 130.488 212.49 130.502C214.441 130.883 215.671 128.303 215.939 126.543Z" fill="#263238"/>
<path d="M215.077 124.197C212.426 123.03 210.193 128.586 212.645 129.668C215.098 130.749 217.297 125.172 215.077 124.197Z" fill="#263238"/>
<path d="M199.71 140.2C199.984 141.004 200.319 141.787 200.714 142.539C200.91 142.956 201.2 143.322 201.562 143.607C201.631 143.65 201.708 143.679 201.788 143.692C201.846 143.7 201.904 143.696 201.96 143.68C202.016 143.664 202.068 143.637 202.113 143.6C202.223 143.499 202.302 143.369 202.339 143.225C202.416 143.012 202.47 142.792 202.502 142.568C202.63 141.719 202.691 140.861 202.686 140.002C202.686 139.154 202.672 138.305 202.643 137.457L201.937 137.577C202.262 138.758 202.643 139.917 203.067 141.069C203.28 141.642 203.513 142.207 203.774 142.773C204.021 143.363 204.349 143.915 204.75 144.413C204.888 144.575 205.078 144.687 205.287 144.731C205.465 144.76 205.646 144.76 205.824 144.731C206.134 144.665 206.438 144.577 206.736 144.469C207.313 144.263 207.879 144.027 208.432 143.762C209.535 143.232 210.617 142.674 211.663 142.059C210.546 142.539 209.436 143.027 208.298 143.473C207.733 143.677 207.167 143.904 206.595 144.066C206.318 144.155 206.034 144.221 205.746 144.264C205.625 144.285 205.5 144.285 205.379 144.264C205.322 144.264 205.259 144.194 205.167 144.095C204.848 143.612 204.585 143.095 204.382 142.554C204.156 142.002 203.958 141.437 203.76 140.871C203.357 139.733 203.004 138.574 202.657 137.422L201.767 134.481L201.929 137.542C201.972 138.376 202.007 139.217 202.035 140.058C202.064 140.9 202.071 141.734 202 142.547C201.985 142.742 201.954 142.936 201.908 143.126C201.891 143.188 201.868 143.247 201.838 143.303C201.894 143.303 201.838 143.303 201.802 143.268C201.493 143.032 201.23 142.742 201.025 142.412C200.523 141.684 200.12 140.935 199.71 140.2Z" fill="#263238"/>
<path d="M202.403 138.051C203.414 138.185 208.637 136.432 208.362 135.132C207.888 132.905 198.685 131.265 197.49 132.686C196.706 133.612 201.109 137.881 202.403 138.051Z" fill="#263238"/>
<path d="M232.303 150.286C232.359 150.286 232.338 150.18 232.303 150.187C231.405 150.322 230.508 150.491 229.617 150.668C228.726 150.845 227.751 150.951 226.79 151.078C224.945 151.34 223.114 151.672 221.262 151.898C221.251 151.902 221.242 151.909 221.235 151.919C221.229 151.928 221.225 151.939 221.225 151.951C221.225 151.962 221.229 151.974 221.235 151.983C221.242 151.993 221.251 152 221.262 152.004C223.082 152.307 224.944 152.245 226.74 151.82C227.694 151.764 228.641 151.693 229.567 151.601C229.652 151.601 229.638 151.46 229.567 151.467C228.861 151.509 228.189 151.566 227.496 151.622C228.168 151.438 228.839 151.241 229.511 151.064C230.451 150.852 231.384 150.604 232.303 150.286Z" fill="#263238"/>
<path d="M243.696 116.824C247.308 119.567 253.352 125.589 255.904 130.756C258.264 135.534 261.396 143.797 254.921 146.717C247.98 149.855 241.731 145.07 239.837 138.164C237.943 131.258 238.027 122.38 238.027 122.38" fill="#FFC727"/>
<path d="M254.349 146.858C250.886 148.795 246.532 147.169 244.029 144.434C241.131 141.274 240.022 136.835 239.223 132.742C238.721 129.997 238.388 127.223 238.226 124.437C238.22 124.414 238.207 124.394 238.188 124.38C238.17 124.366 238.147 124.358 238.124 124.358C238.1 124.358 238.078 124.366 238.059 124.38C238.041 124.394 238.027 124.414 238.021 124.437C237.898 125.847 237.877 127.265 237.958 128.678C237.866 128.445 237.774 128.219 237.696 127.971C237.421 127.22 237.199 126.45 237.032 125.667C237.032 125.667 236.968 125.667 236.975 125.667C237.019 126.477 237.149 127.281 237.364 128.063C237.465 128.456 237.6 128.839 237.767 129.208C237.842 129.371 237.927 129.529 238.021 129.682C238.092 130.537 238.177 131.399 238.29 132.255C238.594 134.644 239.151 136.995 239.951 139.267C240.646 141.325 241.739 143.228 243.167 144.865C244.528 146.366 246.304 147.429 248.271 147.918C249.302 148.198 250.382 148.253 251.436 148.08C252.491 147.906 253.497 147.509 254.385 146.915C254.386 146.903 254.383 146.891 254.376 146.881C254.37 146.871 254.361 146.863 254.349 146.858Z" fill="#263238"/>
<path d="M226.153 183.07C226.521 185.813 227.75 225.947 227.736 226.499C227.722 227.05 224.266 228.23 223.552 229.369C222.838 230.507 222.06 232.493 222.477 233.044C222.894 233.595 226.888 234.656 228.09 234.889C229.291 235.122 235.349 233.822 236.275 233.398C237.201 232.973 237.802 229.156 237.929 228.69C238.056 228.223 245.704 199.582 245.627 197.044C245.549 194.507 226.153 183.07 226.153 183.07Z" fill="#FFC727"/>
<path d="M226.605 186.237C226.471 183.763 226.224 181.289 226.061 178.815C226.057 178.806 226.051 178.798 226.043 178.792C226.035 178.787 226.025 178.784 226.015 178.784C226.005 178.784 225.996 178.787 225.987 178.792C225.979 178.798 225.973 178.806 225.969 178.815C225.969 180.476 225.927 182.144 225.969 183.805C225.884 183.452 225.8 183.098 225.722 182.731C225.538 181.812 225.39 180.879 225.291 179.946H225.227C225.228 180.894 225.311 181.839 225.474 182.773C225.591 183.457 225.762 184.13 225.983 184.788C225.983 185.29 225.983 185.784 226.026 186.286C226.073 188.746 226.31 191.199 226.733 193.623C226.733 193.638 226.739 193.653 226.749 193.663C226.76 193.674 226.774 193.68 226.789 193.68C226.804 193.68 226.819 193.674 226.829 193.663C226.84 193.653 226.846 193.638 226.846 193.623C226.907 191.158 226.826 188.692 226.605 186.237Z" fill="#263238"/>
<path d="M249.387 191.7C248.885 192.86 248.362 194.019 247.782 195.143C247.577 195.546 247.337 195.942 247.111 196.344C247.655 194.365 248.185 192.386 248.666 190.393C248.666 190.343 248.609 190.322 248.595 190.393C247.422 193.666 246.376 196.981 245.344 200.289C244.828 201.936 244.312 203.583 243.866 205.237C243.348 206.855 242.946 208.509 242.665 210.185C242.665 210.234 242.742 210.262 242.764 210.185C243.447 208.627 244.021 207.023 244.481 205.385C245.011 203.752 245.485 202.091 245.958 200.437C246.255 199.391 246.545 198.352 246.835 197.306C246.976 197.037 247.146 196.769 247.301 196.507C247.612 195.991 247.902 195.454 248.178 194.917C248.707 193.884 249.14 192.805 249.471 191.693C249.493 191.672 249.415 191.651 249.387 191.7Z" fill="#263238"/>
<path d="M225.396 229.248C224.994 229.415 224.618 229.638 224.279 229.912C223.953 230.236 223.69 230.617 223.502 231.036C223.301 231.498 223.181 231.99 223.149 232.492C223.077 232.918 223.154 233.355 223.368 233.729C223.424 233.8 223.558 233.729 223.53 233.652C223.41 233.263 223.976 231.616 224.131 231.227C224.261 230.884 224.43 230.557 224.633 230.252C224.827 229.887 225.106 229.574 225.446 229.34C225.502 229.312 225.453 229.22 225.396 229.248Z" fill="#263238"/>
<path d="M228.705 230.026C228.248 230.197 227.82 230.435 227.433 230.732C227.057 231.051 226.752 231.443 226.535 231.885C226.118 232.719 225.941 233.906 226.591 234.677C226.594 234.683 226.598 234.688 226.603 234.693C226.608 234.697 226.614 234.701 226.62 234.703C226.626 234.705 226.633 234.706 226.639 234.706C226.646 234.706 226.653 234.704 226.659 234.701C226.665 234.699 226.67 234.695 226.675 234.69C226.679 234.685 226.683 234.679 226.685 234.673C226.687 234.667 226.688 234.66 226.688 234.653C226.688 234.647 226.686 234.64 226.683 234.634C226.556 234.188 226.556 233.716 226.683 233.27C226.769 232.858 226.902 232.457 227.079 232.075C227.259 231.704 227.482 231.355 227.744 231.036C228.015 230.671 228.359 230.365 228.754 230.139C228.818 230.089 228.768 229.997 228.705 230.026Z" fill="#263238"/>
<path opacity="0.1" d="M235.83 217.741C235.827 217.695 235.807 217.651 235.775 217.617C235.743 217.583 235.701 217.561 235.655 217.554C235.609 217.548 235.562 217.557 235.522 217.581C235.482 217.604 235.451 217.641 235.435 217.684C235.243 218.284 234.92 218.832 234.487 219.289C234.735 217.133 234.798 214.899 233.781 212.927C233.775 212.913 233.764 212.902 233.75 212.896C233.736 212.89 233.72 212.89 233.706 212.895C233.692 212.901 233.681 212.912 233.675 212.926C233.669 212.94 233.669 212.956 233.674 212.97C234.445 215.274 234.049 217.755 233.674 220.102C233.665 220.17 233.677 220.24 233.707 220.302C233.737 220.365 233.785 220.417 233.844 220.452C233.904 220.487 233.972 220.505 234.041 220.501C234.11 220.498 234.177 220.475 234.233 220.434C234.765 220.096 235.197 219.623 235.484 219.063C235.526 219.911 235.576 220.759 235.682 221.593C235.682 221.727 235.922 221.742 235.929 221.593C235.965 220.314 235.88 219.02 235.83 217.741Z" fill="black"/>
<path d="M271.038 203.031C268.712 199.151 252.073 186.527 245.683 190.343C239.293 194.16 236.565 212.871 249.048 226.993C249.048 226.993 242.856 227.891 241.612 228.598C240.368 229.305 238.784 231.956 239.272 232.684C239.76 233.412 244.566 234.868 245.803 235.009C247.04 235.15 262.16 232.966 263.298 232.521C264.436 232.076 263.1 230.478 263.1 230.478C263.1 230.478 274.41 230.782 277.52 228.245C280.63 225.707 274.6 208.955 271.038 203.031Z" fill="#FFC727"/>
<path d="M242.721 229.156C242.319 229.324 241.943 229.547 241.604 229.821C241.278 230.14 241.016 230.519 240.834 230.938C240.626 231.399 240.506 231.895 240.481 232.401C240.409 232.826 240.486 233.263 240.7 233.638C240.714 233.65 240.732 233.658 240.751 233.66C240.77 233.663 240.789 233.659 240.806 233.651C240.823 233.643 240.838 233.63 240.848 233.614C240.858 233.598 240.863 233.579 240.862 233.56C240.735 233.164 241.3 231.524 241.463 231.136C241.592 230.79 241.76 230.46 241.965 230.153C242.161 229.794 242.436 229.484 242.771 229.248C242.777 229.245 242.782 229.241 242.786 229.235C242.791 229.23 242.794 229.224 242.796 229.217C242.798 229.211 242.799 229.204 242.798 229.197C242.797 229.19 242.795 229.184 242.792 229.178C242.789 229.172 242.784 229.166 242.779 229.162C242.774 229.158 242.768 229.154 242.761 229.152C242.754 229.15 242.748 229.15 242.741 229.15C242.734 229.151 242.727 229.153 242.721 229.156Z" fill="#263238"/>
<path d="M246.037 229.927C245.579 230.097 245.15 230.335 244.764 230.634C244.383 230.948 244.075 231.341 243.86 231.786C243.45 232.62 243.273 233.807 243.923 234.613C243.923 234.613 244.029 234.613 244.008 234.564C243.884 234.12 243.884 233.651 244.008 233.207C244.093 232.794 244.226 232.393 244.404 232.012C244.582 231.639 244.802 231.288 245.061 230.966C245.334 230.601 245.681 230.297 246.079 230.075C246.15 229.997 246.1 229.899 246.037 229.927Z" fill="#263238"/>
<path d="M268.988 200.607C267.623 199.044 266.129 197.599 264.521 196.288L264.902 196.458C265.659 196.832 266.408 197.214 267.15 197.617C267.2 197.617 267.263 197.574 267.221 197.532C266.621 196.917 265.899 196.435 265.1 196.118C264.693 195.961 264.278 195.826 263.856 195.715H263.793C261.911 194.251 259.892 192.973 257.763 191.898C253.89 189.933 248.574 187.657 244.842 191.156C243.188 192.704 242.198 194.924 241.499 197.073C240.705 199.544 240.279 202.118 240.233 204.714C240.234 209.914 241.345 215.054 243.492 219.791C244.453 222.193 245.949 224.345 247.867 226.082C248.792 226.876 249.808 227.56 250.893 228.117C252.001 228.651 253.165 229.061 254.363 229.34C254.427 229.34 254.462 229.248 254.399 229.234C252.381 228.602 250.519 227.552 248.935 226.152C247.265 224.736 245.897 222.998 244.913 221.042C243.818 218.803 242.947 216.461 242.312 214.051C241.647 211.696 241.237 209.277 241.089 206.834C240.929 204.309 241.129 201.775 241.682 199.306C242.133 197.032 243.029 194.87 244.319 192.945C244.892 192.064 245.679 191.344 246.606 190.849C247.533 190.355 248.57 190.103 249.62 190.117C251.903 190.174 254.116 191.142 256.18 192.054C260.888 194.162 265.193 197.073 268.903 200.656C268.96 200.748 269.044 200.663 268.988 200.607Z" fill="#263238"/>
<path d="M262.421 228.435C262.447 228.079 262.416 227.721 262.329 227.375C262.216 226.926 262.062 226.489 261.87 226.067C261.87 226.018 261.771 226.067 261.785 226.11C261.91 226.547 262.009 226.99 262.082 227.439C262.082 227.601 262.131 227.757 262.16 227.912C262.16 227.856 262.11 227.799 262.082 227.75C261.594 226.859 261.078 225.982 260.548 225.12C260.548 225.12 260.477 225.12 260.492 225.12C260.88 226.067 261.262 227.022 261.672 227.948C261.87 228.407 262.089 228.859 262.322 229.312C262.483 229.72 262.738 230.086 263.065 230.379C263.073 230.384 263.083 230.387 263.093 230.387C263.103 230.387 263.113 230.384 263.121 230.379C263.13 230.374 263.137 230.367 263.142 230.358C263.147 230.349 263.149 230.34 263.149 230.33C263.114 229.878 262.976 229.441 262.746 229.05C262.64 228.866 262.527 228.654 262.421 228.435Z" fill="#263238"/>
<path opacity="0.1" d="M270.889 205.993C269.912 205.836 268.961 205.546 268.062 205.131C267.186 204.634 266.414 203.974 265.786 203.187C265.737 203.137 265.666 203.187 265.708 203.272C266.316 204.114 267.045 204.862 267.871 205.491C268.397 205.829 268.962 206.102 269.554 206.304C269.283 206.357 269.009 206.386 268.734 206.389C268.46 206.419 268.184 206.382 267.928 206.279C267.673 206.177 267.447 206.013 267.27 205.802C267.207 205.696 267.016 205.802 267.065 205.894C267.481 207.041 268.245 208.029 269.25 208.722C268.874 208.713 268.502 208.646 268.147 208.524C268.048 208.524 267.991 208.637 268.083 208.686C268.761 209.059 269.53 209.233 270.303 209.188C270.369 209.182 270.432 209.156 270.483 209.112C270.534 209.069 270.569 209.011 270.585 208.946C270.601 208.881 270.595 208.813 270.57 208.751C270.545 208.689 270.501 208.637 270.444 208.601C269.819 208.262 269.221 207.875 268.656 207.442C268.403 207.225 268.166 206.989 267.949 206.735C268.912 207.066 269.963 207.034 270.904 206.643C270.97 206.618 271.026 206.572 271.066 206.513C271.105 206.454 271.125 206.384 271.124 206.313C271.122 206.242 271.099 206.174 271.057 206.116C271.015 206.059 270.957 206.016 270.889 205.993Z" fill="black"/>
</svg>
