<svg width="166" height="47" viewBox="0 0 166 47" fill="none" xmlns="http://www.w3.org/2000/svg">
<path d="M4.04 11.88H8.52L17.16 29.24H16.84L25.48 11.88H29.84V37H26.68V15.12H27.24L18.04 33.84H15.96L6.8 15.24H7.16V37H4.04V11.88ZM37.8672 37V11.88H53.3472V14.56H40.9872V23H52.6272V25.68H40.9872V34.28H53.3472V37H37.8672ZM60.3681 11.88H67.7281C70.2615 11.88 72.4615 12.4 74.3281 13.44C76.1948 14.4667 77.6415 15.92 78.6681 17.8C79.6948 19.68 80.2081 21.8933 80.2081 24.44C80.2081 26.96 79.6948 29.16 78.6681 31.04C77.6415 32.92 76.1948 34.3867 74.3281 35.44C72.4615 36.48 70.2615 37 67.7281 37H60.3681V11.88ZM63.4881 14.64V34.28H67.7281C69.6215 34.28 71.2481 33.8533 72.6081 33C73.9815 32.1467 75.0348 30.98 75.7681 29.5C76.5148 28.0067 76.8881 26.32 76.8881 24.44C76.8881 22.5467 76.5148 20.8667 75.7681 19.4C75.0348 17.92 73.9815 16.76 72.6081 15.92C71.2481 15.0667 69.6215 14.64 67.7281 14.64H63.4881Z" fill="#3B8B5B"/>
<path d="M86.7744 37V9.72H89.8944V37H86.7744ZM89.4144 26.04L99.1744 17.88H103.534L89.4144 29.36V26.04ZM100.134 37L91.0544 24.92L94.2144 24.36L103.974 37H100.134ZM111.073 13.36C110.433 13.36 109.927 13.18 109.553 12.82C109.18 12.4467 108.993 11.96 108.993 11.36C108.993 10.7733 109.18 10.3067 109.553 9.96C109.927 9.61333 110.433 9.44 111.073 9.44C111.713 9.44 112.22 9.61333 112.593 9.96C112.967 10.3067 113.153 10.7733 113.153 11.36C113.153 11.96 112.967 12.4467 112.593 12.82C112.22 13.18 111.713 13.36 111.073 13.36ZM109.513 37V17.84H112.633V37H109.513ZM127.108 37.48C126.068 37.48 125.134 37.28 124.308 36.88C123.481 36.48 122.828 35.88 122.348 35.08C121.868 34.28 121.628 33.28 121.628 32.08V12.56H124.708V32C124.708 33.9733 125.628 34.96 127.467 34.96C128.014 34.96 128.541 34.9 129.048 34.78C129.568 34.66 130.148 34.48 130.788 34.24L131.228 36.48C130.548 36.7733 129.868 37.0133 129.188 37.2C128.521 37.3867 127.828 37.48 127.108 37.48ZM118.548 20.04V17.88H130.748V20.04H118.548ZM142.147 37.48C141.107 37.48 140.173 37.28 139.347 36.88C138.52 36.48 137.867 35.88 137.387 35.08C136.907 34.28 136.667 33.28 136.667 32.08V12.56H139.747V32C139.747 33.9733 140.667 34.96 142.507 34.96C143.053 34.96 143.58 34.9 144.087 34.78C144.607 34.66 145.187 34.48 145.827 34.24L146.267 36.48C145.587 36.7733 144.907 37.0133 144.227 37.2C143.56 37.3867 142.867 37.48 142.147 37.48ZM133.587 20.04V17.88H145.787V20.04H133.587ZM148.146 17.88H151.626L157.866 34.28H157.146L161.986 17.88H165.186L157.986 40.84C157.386 42.76 156.586 44.24 155.586 45.28C154.586 46.32 153.306 46.84 151.746 46.84C150.906 46.84 150.106 46.72 149.346 46.48C148.599 46.24 147.826 45.8933 147.026 45.44V42.56C147.732 43.12 148.412 43.52 149.066 43.76C149.732 44 150.426 44.12 151.146 44.12C151.946 44.12 152.612 43.8667 153.146 43.36C153.692 42.8533 154.146 42.2 154.506 41.4C154.866 40.6133 155.172 39.7867 155.426 38.92L155.986 37L148.146 17.88Z" fill="black"/>
<path d="M111.787 8.09027C111.428 8.37433 111.234 8.80106 110.908 9.13742C110.446 9.62658 109.731 9.88505 109.267 10.3828C108.976 10.7209 108.802 11.1365 108.767 11.576C108.732 12.0154 108.838 12.4585 109.071 12.8477C109.311 13.2298 109.65 13.5495 110.055 13.7757C110.461 14.002 110.918 14.127 111.383 14.1386C112.034 14.1571 112.668 14.0379 113.317 14.0536C113.905 14.0692 114.464 14.2472 115.066 14.1632C115.623 14.097 116.129 13.8392 116.487 13.439C116.708 13.1892 116.839 12.8781 116.86 12.5494C116.911 12.0158 116.898 11.2263 116.552 10.7578C116.207 10.2893 115.731 10.0965 115.317 9.77519C114.91 9.39294 114.543 8.97464 114.221 8.52643C113.606 7.85059 112.581 7.45952 111.787 8.09027Z" fill="#703D3D"/>
<path d="M109.561 9.06869C109.669 8.9453 109.766 8.81386 109.851 8.67557C109.965 8.50348 110.022 8.3026 110.016 8.09722C110.01 7.89184 109.941 7.69075 109.818 7.51828C109.615 7.19188 109.355 6.89897 109.05 6.65212C108.825 6.45719 108.57 6.296 108.294 6.17447C108.205 6.13388 108.107 6.11225 108.009 6.11114C107.911 6.11002 107.814 6.12946 107.725 6.16804C107.612 6.24369 107.519 6.3428 107.453 6.45811C107.386 6.57342 107.349 6.702 107.342 6.83444C107.272 7.23763 107.271 7.65089 107.341 8.05809C107.389 8.39129 107.522 8.71072 107.729 8.98859C107.832 9.12704 107.967 9.24224 108.124 9.32539C108.28 9.40855 108.453 9.45745 108.631 9.46837C108.954 9.46832 109.26 9.34995 109.486 9.13819L109.561 9.06869Z" fill="#703D3D"/>
<path d="M109.648 4.89235C109.627 4.24492 109.809 3.62393 110.443 3.3358C111.19 3.00895 111.874 3.74049 112.124 4.33857C112.432 4.98747 112.501 5.70946 112.319 6.38656C112.021 7.21548 111.119 7.31085 110.453 6.73778C109.944 6.23741 109.656 5.5758 109.648 4.89235Z" fill="#703D3D"/>
<path d="M116.271 9.08299C116.153 8.96762 116.047 8.84259 115.954 8.70951C115.821 8.54288 115.741 8.34454 115.724 8.13889C115.708 7.93324 115.755 7.72925 115.861 7.55203C116.027 7.2155 116.253 6.90953 116.53 6.64706C116.727 6.4398 116.96 6.26552 117.219 6.13121C117.304 6.087 117.399 6.06126 117.497 6.05582C117.595 6.05037 117.693 6.06535 117.785 6.09969C117.907 6.16995 118.011 6.26456 118.09 6.37656C118.169 6.48856 118.221 6.61511 118.242 6.74691C118.352 7.14651 118.393 7.55862 118.362 7.9668C118.351 8.3027 118.253 8.62863 118.076 8.91596C117.987 9.05825 117.865 9.17871 117.718 9.26828C117.571 9.35785 117.403 9.41419 117.227 9.43307C116.904 9.44522 116.584 9.33909 116.335 9.13674L116.271 9.08299Z" fill="#703D3D"/>
<path d="M115.998 4.84993C115.947 4.20277 115.689 3.58571 115.022 3.33079C114.235 3.01892 113.636 3.8198 113.455 4.42616C113.232 5.09243 113.257 5.81686 113.527 6.48132C113.921 7.29294 114.831 7.34821 115.43 6.7379C115.876 6.2099 116.08 5.53222 115.998 4.84993Z" fill="#703D3D"/>
</svg>
