<svg width="308" height="297" viewBox="0 0 308 297" fill="none" xmlns="http://www.w3.org/2000/svg">
<g clip-path="url(#clip0_2178_746)">
<path d="M154.862 35.9807H18.0425V126.089H154.862V35.9807Z" fill="#F5F5F5"/>
<path d="M39.4729 57.5097C39.4729 57.5097 37.5756 56.4502 36.3436 57.7499C35.9124 58.2119 35.8015 59.7273 37.4893 60.0291C37.4893 60.0291 41.1422 59.832 42.8054 59.5302C44.4686 59.2283 48.2509 57.559 48.2509 57.559L50.2159 53.1792C50.2159 53.1792 50.4685 51.1094 50.721 51.0602C50.9736 51.0109 51.7436 53.1792 51.7436 53.1792L55.9817 54.4112L56.4314 55.2674L52.9756 56.6719C52.9756 56.6719 53.4807 62.1174 53.0249 63.0722C52.5512 63.8657 51.9568 64.5806 51.2631 65.1912L51.4602 73.1068C51.4602 73.1068 52.2179 72.805 52.2672 73.3594H50.259C50.259 73.3594 49.4521 68.4314 48.294 68.0618L48.5958 65.9982L40.6556 65.3267C40.6556 65.3267 41.21 67.1747 38.9431 68.7024C37.7433 69.4742 36.6499 70.3999 35.6906 71.4559V72.9651C35.6906 72.9651 36.3497 73.2177 36.399 73.7721H33.9781C33.9781 73.7721 34.28 69.5894 33.9781 68.881C33.9781 68.881 36.9473 65.8503 36.5469 62.105C36.5469 62.105 33.1712 61.2488 33.9781 57.9717C34.7851 54.6946 38.5673 54.6391 39.4729 57.5097Z" fill="#E0E0E0"/>
<path d="M39.9784 82.7412C39.9784 82.7412 38.7895 82.0882 38.0318 82.8952C37.936 83.0275 37.8784 83.1835 37.8651 83.3462C37.8518 83.509 37.8834 83.6723 37.9564 83.8184C38.0295 83.9644 38.1412 84.0877 38.2793 84.1747C38.4175 84.2617 38.5769 84.3092 38.7402 84.312C38.7402 84.312 41.0132 84.1826 42.042 83.9978C43.2006 83.6729 44.3332 83.261 45.43 82.7658L46.662 80.0431C46.662 80.0431 46.816 78.7618 46.9761 78.7249C47.1363 78.6879 47.5921 80.0431 47.5921 80.0431L50.2286 80.7946L50.512 81.3121L48.3868 82.1929C48.3868 82.1929 48.6948 85.5748 48.3868 86.1723C48.0907 86.6633 47.7209 87.1058 47.2903 87.4844L47.4135 92.4124C47.4135 92.4124 47.8816 92.2214 47.9124 92.5664H46.6804C46.6804 92.5664 46.1815 89.4864 45.4484 89.2769L45.6332 87.9957L40.7052 87.5829C40.7052 87.5829 41.0502 88.7472 39.6396 89.6835C38.8898 90.158 38.2044 90.7274 37.6006 91.3775V92.3138C37.6006 92.3138 38.0072 92.474 38.0441 92.8189H36.5657C36.5657 92.8189 36.7505 90.2194 36.5657 89.7759C36.5657 89.7759 38.4137 87.8909 38.1612 85.5809C38.1612 85.5809 36.0606 85.0512 36.5657 83.0122C37.0708 80.9733 39.424 80.9548 39.9784 82.7412Z" fill="#E0E0E0"/>
<path d="M39.1157 103.685C39.1157 103.685 38.2164 103.192 37.6496 103.802C37.5773 103.902 37.5338 104.019 37.5239 104.142C37.5139 104.265 37.5379 104.388 37.5933 104.498C37.6486 104.608 37.7331 104.701 37.8376 104.766C37.942 104.831 38.0624 104.866 38.1856 104.868C38.1856 104.868 39.8919 104.769 40.6496 104.628C41.5196 104.386 42.37 104.08 43.1936 103.71L44.1176 101.658C44.1176 101.658 44.2347 100.691 44.3517 100.667C44.4688 100.642 44.826 101.658 44.826 101.658L46.8157 102.256L47.0252 102.656L45.4236 103.316C45.4236 103.316 45.6576 105.866 45.4236 106.315C45.2017 106.685 44.9231 107.018 44.5981 107.301L44.6967 110.997C44.6967 110.997 45.0478 110.855 45.0724 111.114H44.1669C44.1669 111.114 43.785 108.804 43.2429 108.65L43.3846 107.683L39.6886 107.375C39.7433 107.69 39.695 108.014 39.5507 108.299C39.4064 108.585 39.1739 108.816 38.8878 108.958C38.3235 109.313 37.8079 109.739 37.354 110.227V110.88C37.354 110.88 37.6558 111.003 37.6804 111.262H36.5408C36.6125 110.5 36.6125 109.733 36.5408 108.97C36.9437 108.55 37.2599 108.055 37.4713 107.513C37.6827 106.971 37.7852 106.392 37.7728 105.81C37.5632 105.767 37.3644 105.683 37.1881 105.562C37.0119 105.44 36.8618 105.285 36.7469 105.104C36.6319 104.924 36.5544 104.722 36.519 104.511C36.4837 104.3 36.4911 104.084 36.5408 103.876C36.9228 102.367 38.6907 102.342 39.1157 103.685Z" fill="#E0E0E0"/>
<path d="M134.183 61.0518C134.183 61.138 119.96 61.2119 102.41 61.2119C84.8602 61.2119 70.6367 61.138 70.6367 61.0518C70.6367 60.9655 84.8602 60.8916 102.41 60.8916C119.96 60.8916 134.183 60.984 134.183 61.0518Z" fill="#E0E0E0"/>
<path d="M134.183 63.5034C134.183 63.5897 119.96 63.6636 102.41 63.6636C84.8602 63.6636 70.6367 63.5897 70.6367 63.5034C70.6367 63.4172 84.8602 63.3433 102.41 63.3433C119.96 63.3433 134.183 63.411 134.183 63.5034Z" fill="#E0E0E0"/>
<path d="M134.183 65.949C134.183 66.0414 119.96 66.1091 102.41 66.1091C84.8602 66.1091 70.6367 66.0414 70.6367 65.949C70.6367 65.8566 84.8602 65.7888 102.41 65.7888C119.96 65.7888 134.183 65.8627 134.183 65.949Z" fill="#E0E0E0"/>
<path d="M134.183 68.376C134.183 68.4684 119.96 68.5361 102.41 68.5361C84.8602 68.5361 70.6367 68.4684 70.6367 68.376C70.6367 68.2836 84.8602 68.2158 102.41 68.2158C119.96 68.2158 134.183 68.3144 134.183 68.376Z" fill="#E0E0E0"/>
<path d="M134.183 82.2854C134.183 82.3778 119.96 82.4456 102.41 82.4456C84.8602 82.4456 70.6367 82.3778 70.6367 82.2854C70.6367 82.193 84.8602 82.1252 102.41 82.1252C119.96 82.1252 134.183 82.1992 134.183 82.2854Z" fill="#E0E0E0"/>
<path d="M134.183 84.7371C134.183 84.8295 119.96 84.8972 102.41 84.8972C84.8602 84.8972 70.6367 84.8295 70.6367 84.7371C70.6367 84.6447 84.8602 84.5769 102.41 84.5769C119.96 84.5769 134.183 84.6508 134.183 84.7371Z" fill="#E0E0E0"/>
<path d="M134.183 87.1887C134.183 87.275 119.96 87.3489 102.41 87.3489C84.8602 87.3489 70.6367 87.275 70.6367 87.1887C70.6367 87.1025 84.8602 87.0286 102.41 87.0286C119.96 87.0286 134.183 87.1025 134.183 87.1887Z" fill="#E0E0E0"/>
<path d="M134.183 89.6404C134.183 89.7266 119.96 89.8005 102.41 89.8005C84.8602 89.8005 70.6367 89.7266 70.6367 89.6404C70.6367 89.5542 84.8602 89.4802 102.41 89.4802C119.96 89.4802 134.183 89.548 134.183 89.6404Z" fill="#E0E0E0"/>
<path d="M134.183 103.525C134.183 103.611 119.96 103.685 102.41 103.685C84.8602 103.685 70.6367 103.611 70.6367 103.525C70.6367 103.439 84.8602 103.365 102.41 103.365C119.96 103.365 134.183 103.439 134.183 103.525Z" fill="#E0E0E0"/>
<path d="M134.183 105.952C134.183 106.038 119.96 106.112 102.41 106.112C84.8602 106.112 70.6367 106.038 70.6367 105.952C70.6367 105.866 84.8602 105.792 102.41 105.792C119.96 105.792 134.183 105.884 134.183 105.952Z" fill="#E0E0E0"/>
<path d="M134.183 108.416C134.183 108.502 119.96 108.576 102.41 108.576C84.8602 108.576 70.6367 108.502 70.6367 108.416C70.6367 108.33 84.8602 108.256 102.41 108.256C119.96 108.256 134.183 108.336 134.183 108.416Z" fill="#E0E0E0"/>
<path d="M134.183 110.88C134.183 110.973 119.96 111.04 102.41 111.04C84.8602 111.04 70.6367 110.973 70.6367 110.88C70.6367 110.788 84.8602 110.72 102.41 110.72C119.96 110.72 134.183 110.788 134.183 110.88Z" fill="#E0E0E0"/>
<path d="M128.553 48.8182C128.553 49.7052 114.434 50.4259 97.0257 50.4259C79.6176 50.4259 65.4927 49.7052 65.4927 48.8182C65.4927 47.9311 79.6052 47.2166 97.0257 47.2166C114.446 47.2166 128.553 47.9311 128.553 48.8182Z" fill="#E0E0E0"/>
<path d="M232.558 33.9479H230.827V30.6708C230.848 30.1906 230.681 29.7214 230.361 29.3626C230.041 29.0038 229.594 28.7836 229.115 28.7488H215.939C215.461 28.7852 215.015 29.006 214.697 29.3646C214.378 29.7232 214.212 30.1916 214.232 30.6708V33.9479H212.52V30.6708C212.493 29.7305 212.84 28.8179 213.484 28.1323C214.128 27.4468 215.017 27.0439 215.957 27.0117H229.133C230.075 27.0423 230.965 27.4445 231.611 28.1302C232.256 28.816 232.604 29.7295 232.577 30.6708L232.558 33.9479Z" fill="#EBEBEB"/>
<path d="M250.866 33.9478H193.929C190.823 33.9478 188.305 36.4657 188.305 39.5718V73.9138C188.305 77.0199 190.823 79.5379 193.929 79.5379H250.866C253.972 79.5379 256.49 77.0199 256.49 73.9138V39.5718C256.49 36.4657 253.972 33.9478 250.866 33.9478Z" fill="#EBEBEB"/>
<path d="M224.575 47.5369H220.485V65.8629H224.575V47.5369Z" fill="#F5F5F5"/>
<path d="M213.364 54.6578V58.748H231.69V54.6578H213.364Z" fill="#F5F5F5"/>
<path d="M237.776 56.7461C237.776 56.7461 237.776 56.6598 237.776 56.4997C237.776 56.3395 237.745 56.0808 237.72 55.7728C237.72 55.6126 237.72 55.434 237.69 55.243C237.659 55.0521 237.622 54.8365 237.585 54.627C237.517 54.0963 237.41 53.5713 237.265 53.0562C236.906 51.6307 236.333 50.2681 235.564 49.0153C233.549 45.6903 230.339 43.2608 226.591 42.2235C222.844 41.1861 218.842 41.6192 215.403 43.4343C214.76 43.7878 214.143 44.185 213.555 44.6232C212.953 45.0722 212.381 45.5598 211.842 46.0831C211.31 46.6319 210.816 47.2164 210.364 47.8325C209.425 49.096 208.695 50.5019 208.202 51.9967C207.159 55.0918 207.159 58.4435 208.202 61.5385C208.692 63.0336 209.42 64.4398 210.358 65.7027C210.814 66.3194 211.31 66.9058 211.842 67.4583C212.381 67.9813 212.953 68.469 213.555 68.9182C214.143 69.3563 214.76 69.7536 215.403 70.1071C216.039 70.441 216.698 70.7312 217.374 70.9757C219.918 71.9019 222.664 72.1316 225.327 71.6409C227.438 71.2441 229.442 70.405 231.207 69.1788C232.971 67.9526 234.456 66.367 235.564 64.5261C236.333 63.2733 236.906 61.9107 237.265 60.4852C237.41 59.9701 237.517 59.4451 237.585 58.9144C237.622 58.6803 237.665 58.4709 237.69 58.2984C237.714 58.1259 237.69 57.9288 237.72 57.7686C237.72 57.4606 237.764 57.2204 237.776 57.0417C237.788 56.8631 237.776 56.7953 237.776 56.7953C237.787 56.8771 237.787 56.9599 237.776 57.0417C237.776 57.2204 237.776 57.4606 237.776 57.7686C237.776 57.9329 237.776 58.1115 237.776 58.3045C237.776 58.5017 237.72 58.7173 237.69 58.9513C237.627 59.4872 237.529 60.0182 237.394 60.5406C237.049 61.9839 236.488 63.3669 235.731 64.6432C234.621 66.5217 233.124 68.1428 231.34 69.3991C229.556 70.6555 227.525 71.5183 225.382 71.9305C222.675 72.4496 219.879 72.237 217.282 71.3145C216.591 71.0671 215.918 70.7727 215.267 70.4336C214.608 70.0661 213.974 69.6545 213.37 69.2016C212.756 68.7445 212.172 68.2486 211.621 67.717C211.076 67.1559 210.57 66.5591 210.105 65.9306C209.144 64.64 208.397 63.2026 207.894 61.6741C207.384 60.1016 207.116 58.4607 207.099 56.8077C207.119 55.1529 207.387 53.5104 207.894 51.9351C208.401 50.41 209.147 48.9753 210.105 47.6847C210.57 47.0564 211.077 46.4596 211.621 45.8983C212.151 45.3461 212.716 44.8296 213.315 44.3521C213.914 43.8958 214.546 43.484 215.206 43.1201C215.856 42.781 216.529 42.4866 217.22 42.2393C219.815 41.317 222.609 41.1043 225.314 41.6233C227.458 42.0346 229.49 42.8971 231.275 44.1534C233.061 45.4098 234.558 47.0313 235.669 48.9105C236.426 50.1868 236.987 51.5699 237.332 53.0131C237.467 53.5354 237.566 54.0664 237.628 54.6024C237.659 54.8365 237.696 55.0459 237.714 55.2184C237.733 55.3909 237.714 55.5941 237.714 55.7605C237.714 56.0623 237.714 56.3087 237.714 56.4873C237.747 56.5703 237.768 56.6574 237.776 56.7461Z" fill="#F5F5F5"/>
<path d="M276.892 37.3052V30.4121H272.044V37.3052H267.165V76.7291H281.425V37.3052H276.892Z" fill="#EBEBEB"/>
<path d="M298.082 76.7351H180.451V82.7349H298.082V76.7351Z" fill="#E0E0E0"/>
<path d="M206.865 82.7412H203.44V96.9277H206.865V82.7412Z" fill="#E0E0E0"/>
<path d="M275.352 82.7412H271.927V96.9277H275.352V82.7412Z" fill="#E0E0E0"/>
<path d="M250.367 47.9127V42.8738H246.819V47.9127H243.252V76.7353H253.675V47.9127H250.367Z" fill="#FAFAFA"/>
<path d="M262.194 47.9127V42.8738H258.652V47.9127H255.085V76.7353H265.496V47.9127H262.194Z" fill="#F5F5F5"/>
<path d="M203.44 58.0088H184.713V76.7352H203.44V58.0088Z" fill="#E0E0E0"/>
<path d="M203.348 62.8321C203.348 62.9553 199.214 63.0538 194.108 63.0538C189.001 63.0538 184.868 62.9553 184.868 62.8321C184.868 62.7089 189.001 62.6165 194.108 62.6165C199.214 62.6165 203.348 62.7027 203.348 62.8321Z" fill="#EBEBEB"/>
<path d="M194.785 65.2959C194.785 65.2959 194.853 65.2959 194.976 65.3267C195.154 65.3759 195.323 65.4551 195.475 65.5608C196.028 65.9811 196.397 66.5993 196.504 67.2856C196.738 68.2928 196.563 69.3517 196.017 70.2301C195.673 70.7529 195.16 71.142 194.563 71.3327C193.927 71.5142 193.253 71.5142 192.617 71.3327C191.994 71.1958 191.422 70.8891 190.963 70.4465C190.504 70.004 190.177 69.4429 190.017 68.8256C189.904 68.3184 189.926 67.7905 190.081 67.2945C190.235 66.7984 190.517 66.3515 190.898 65.9982C191.406 65.5367 192.06 65.2685 192.746 65.2405C192.995 65.2091 193.248 65.2519 193.473 65.3637C193.473 65.4006 193.208 65.3637 192.765 65.413C192.136 65.4964 191.551 65.7793 191.095 66.2199C190.774 66.5455 190.541 66.948 190.419 67.389C190.297 67.83 190.29 68.2949 190.399 68.7394C190.681 69.5387 191.248 70.2057 191.992 70.6117C192.736 71.0177 193.603 71.1341 194.428 70.9385C194.931 70.7778 195.365 70.4523 195.66 70.0145C196.157 69.225 196.338 68.2765 196.165 67.3595C196.096 66.7299 195.803 66.1461 195.34 65.7148C195.032 65.4068 194.773 65.3329 194.785 65.2959Z" fill="#EBEBEB"/>
<path d="M29.0012 213.943C25.0773 211.923 20.4634 211.658 16.1083 212.378C13.7675 212.766 11.3281 213.463 9.7327 215.218C8.13726 216.974 7.84158 220.072 9.6711 221.581C10.7553 222.481 12.2768 222.616 13.6874 222.598C17.0939 222.561 20.8761 221.982 23.605 224.008C25.1573 225.179 26.1922 227.125 28.0464 227.704C29.9005 228.283 31.9149 227.193 32.882 225.555C33.7664 223.845 33.9626 221.861 33.4302 220.011C33.2093 218.726 32.6946 217.511 31.9263 216.458C31.158 215.406 30.157 214.545 29.0012 213.943Z" fill="#EBEBEB"/>
<path d="M37.9885 196.597C35.5923 200.022 30.9292 198.888 28.7485 196.794C26.5679 194.699 25.6685 191.675 24.8431 188.786C22.9397 182.182 21.0239 175.234 22.4407 168.525C22.7796 166.487 23.6749 164.581 25.0279 163.018C26.4385 161.528 28.613 160.641 30.5719 161.17C32.925 161.786 34.3849 164.096 35.4383 166.283C38.5491 172.75 40.1799 179.829 40.2123 187.005C40.2123 190.344 39.8304 193.843 37.9454 196.603" fill="#EBEBEB"/>
<path d="M44.5795 201.512C41.9738 198.432 41.4995 193.911 42.6391 190.036C43.7787 186.161 46.4152 182.872 49.4151 180.18C52.9716 177.019 57.1103 174.581 61.5996 173.004C63.3346 172.303 65.2006 171.986 67.0697 172.073C68.9177 172.252 70.7965 173.201 71.6589 174.852C72.9402 177.316 71.7143 180.26 70.3838 182.675C68.0409 186.936 65.3632 191.004 62.3758 194.841C59.9795 197.921 57.2383 201.001 53.5854 202.374C49.9326 203.748 46.1442 203.606 44.2099 201.075" fill="#EBEBEB"/>
<path d="M38.1547 248.248C38.0201 247.739 37.9457 247.216 37.9329 246.69C37.822 245.562 37.6865 244.139 37.5202 242.445C37.3105 240.352 36.9918 238.271 36.5654 236.211C36.0098 233.702 35.2517 231.243 34.2985 228.856C33.3683 226.473 32.1053 224.233 30.5471 222.204C29.2761 220.552 27.6539 219.203 25.7977 218.255C24.5381 217.637 23.189 217.221 21.7999 217.023C21.2765 217 20.7565 216.926 20.2476 216.801C20.7714 216.739 21.3007 216.739 21.8245 216.801C23.2689 216.907 24.682 217.274 25.9948 217.885C27.949 218.807 29.6631 220.169 31.0029 221.865C32.6306 223.917 33.9428 226.201 34.896 228.641C35.8623 231.063 36.6147 233.565 37.1444 236.119C37.55 238.203 37.8277 240.309 37.976 242.427C38.1116 244.232 38.1608 245.692 38.1855 246.702C38.2304 247.217 38.2201 247.735 38.1547 248.248Z" fill="#E0E0E0"/>
<path d="M37.8591 245.008C37.8148 244.768 37.8004 244.524 37.816 244.281C37.816 243.739 37.816 243.049 37.816 242.217C37.816 240.425 37.816 237.831 37.7236 234.628C37.5634 228.222 37.0152 221.323 35.9495 211.602C34.9393 202.461 33.5841 191.822 32.155 184.911C31.8531 183.334 31.5389 181.917 31.2494 180.679C30.9599 179.441 30.7381 178.369 30.5102 177.5C30.2823 176.632 30.153 176.022 30.0298 175.492C29.961 175.259 29.9176 175.02 29.9004 174.778C30.0078 174.994 30.0924 175.221 30.153 175.455C30.307 175.979 30.5102 176.632 30.769 177.439C31.0277 178.246 31.311 179.361 31.619 180.599C31.927 181.837 32.2843 183.241 32.617 184.812C34.3885 192.992 35.721 201.26 36.6086 209.582C37.6743 219.327 38.1548 228.197 38.1979 234.616C38.2349 237.831 38.1671 240.431 38.087 242.223C38.0316 243.061 37.9946 243.745 37.9577 244.287C37.9538 244.53 37.9207 244.772 37.8591 245.008Z" fill="#E0E0E0"/>
<path d="M37.8159 227.92C37.7593 227.203 37.7593 226.482 37.8159 225.764C37.9409 223.803 38.1671 221.85 38.4935 219.912C38.965 217.039 39.5985 214.195 40.3908 211.393C41.3223 207.948 42.5146 204.579 43.9574 201.315C46.908 194.311 50.9244 188.576 54.4294 185.028C55.202 184.215 56.025 183.452 56.8934 182.743C57.2692 182.422 57.608 182.127 57.9468 181.849L58.9016 181.196C59.4844 180.758 60.1025 180.369 60.7496 180.032C60.8481 180.174 58.1747 181.745 54.7928 185.342C50.4789 190.124 47.0124 195.607 44.5426 201.555C43.1285 204.8 41.9329 208.136 40.9636 211.541C40.1481 214.316 39.4738 217.13 38.9432 219.974C38.4935 222.401 38.2348 224.384 38.0808 225.758C38.0487 226.484 37.9602 227.207 37.8159 227.92Z" fill="#E0E0E0"/>
<path d="M54.3496 258.073L52.6371 281.561H22.4654L20.7529 258.073H54.3496Z" fill="#E0E0E0"/>
<path d="M57.2692 248.821H17.1553V258.08H57.2692V248.821Z" fill="#E0E0E0"/>
<path d="M57.2631 280.662V283.225H55.3843H17.8145V280.662H57.2631Z" fill="#EBEBEB"/>
<path d="M53.5363 287.74L55.3843 283.225H19.2559L21.4119 287.74H53.5363Z" fill="#E0E0E0"/>
<path d="M21.3135 265.749C21.3516 265.826 21.3992 265.899 21.4552 265.964L21.9048 266.58L23.6604 268.829L23.7405 268.933L23.8144 268.829C24.9232 267.301 26.3955 265.256 28.1264 262.853H27.88L32.1304 268.872L32.266 269.063L32.4138 268.884L37.4527 262.884H37.1632L37.4404 263.229L41.9495 268.884L42.0973 269.069L42.239 268.878C43.7667 266.71 45.202 264.689 46.4894 262.86H46.243L51.4852 268.823L51.5776 268.933L51.6453 268.81C52.3352 267.652 52.8773 266.728 53.2839 266.057L53.7089 265.324C53.7625 265.241 53.8059 265.152 53.8383 265.059C53.7693 265.129 53.7093 265.208 53.6596 265.293C53.5364 265.478 53.3824 265.712 53.1976 266.001L51.4728 268.705H51.6392L46.4832 262.663L46.3539 262.509L46.2368 262.675L41.9248 268.669H42.2144C40.7852 266.876 39.276 264.973 37.7176 263.007L37.4404 262.663L37.2987 262.484L37.1508 262.656L32.1181 268.669H32.4015C30.8492 266.5 29.4077 264.486 28.0895 262.681L27.9663 262.502L27.8431 262.681L23.6173 268.718H23.7713L21.9233 266.525C21.7262 266.297 21.566 266.106 21.4305 265.958C21.295 265.81 21.3196 265.743 21.3135 265.749Z" fill="#F5F5F5"/>
<path d="M20.3276 257.919C20.3276 258.024 27.886 258.11 37.2122 258.11C46.5384 258.11 54.0968 258.024 54.0968 257.919C54.0968 257.814 46.5384 257.734 37.2122 257.734C27.886 257.734 20.3276 257.814 20.3276 257.919Z" fill="#F5F5F5"/>
<path d="M18.8125 283.477C18.8125 283.582 27.0238 283.668 37.157 283.668C47.2902 283.668 55.5076 283.582 55.5076 283.477C55.5076 283.372 47.2963 283.292 37.157 283.292C27.0176 283.292 18.8125 283.36 18.8125 283.477Z" fill="#F5F5F5"/>
<path d="M284.043 104.769H227.156V164.072H284.043V104.769Z" fill="#E0E0E0"/>
<path d="M280.194 104.769H223.306V164.072H280.194V104.769Z" fill="#EBEBEB"/>
<path d="M272.543 112.74H230.951V156.1H272.543V112.74Z" fill="#FAFAFA"/>
<path d="M230.95 156.384C230.649 156.814 230.302 157.211 229.916 157.567C229.244 158.263 228.308 159.211 227.267 160.24C226.226 161.269 225.259 162.193 224.55 162.846C224.191 163.224 223.792 163.563 223.361 163.856C223.667 163.433 224.014 163.041 224.396 162.686C225.068 161.983 226.004 161.035 227.051 160.006C228.098 158.977 229.065 158.047 229.768 157.394C230.129 157.021 230.525 156.683 230.95 156.384Z" fill="#E0E0E0"/>
<path d="M272.549 156.279C272.972 156.59 273.366 156.938 273.725 157.32C274.421 157.986 275.37 158.922 276.399 159.969C277.428 161.016 278.352 161.977 279.011 162.68C279.387 163.042 279.727 163.44 280.027 163.868C279.599 163.566 279.205 163.219 278.85 162.834C278.154 162.168 277.206 161.232 276.171 160.179C275.136 159.125 274.212 158.17 273.559 157.462C273.183 157.103 272.844 156.707 272.549 156.279Z" fill="#E0E0E0"/>
<path d="M272.432 112.857C272.741 112.431 273.09 112.035 273.473 111.675C274.145 110.979 275.075 110.03 276.122 109.001C277.169 107.973 278.13 107.049 278.839 106.396C279.197 106.015 279.596 105.675 280.027 105.379C279.719 105.802 279.372 106.196 278.993 106.556C278.321 107.252 277.385 108.2 276.338 109.235C275.29 110.27 274.323 111.188 273.621 111.841C273.26 112.22 272.862 112.56 272.432 112.857Z" fill="#E0E0E0"/>
<path d="M230.84 112.962C230.415 112.654 230.021 112.305 229.663 111.921C228.961 111.256 228.018 110.32 226.983 109.272C225.949 108.225 225.037 107.264 224.378 106.562C224.001 106.199 223.661 105.801 223.361 105.373C223.789 105.675 224.184 106.022 224.538 106.408C225.234 107.073 226.183 108.01 227.217 109.063C228.252 110.116 229.17 111.071 229.829 111.779C230.206 112.138 230.544 112.534 230.84 112.962Z" fill="#E0E0E0"/>
<path d="M272.432 156.101C272.432 156.101 272.432 156.027 272.432 155.891C272.432 155.756 272.432 155.546 272.432 155.275C272.432 154.733 272.432 153.951 272.432 152.934C272.432 150.883 272.432 147.896 272.432 144.101C272.432 136.506 272.389 125.689 272.358 112.728L272.494 112.864H231.018L231.178 112.71C231.178 128.621 231.178 143.51 231.178 156.07L231.043 155.934L261.085 156.002L269.524 156.039H271.754H272.327H272.524H271.779H269.58H261.172L231.043 156.107H230.914V155.977C230.914 143.417 230.914 128.528 230.914 112.617V112.457H231.074H272.549H272.691V112.728C272.691 125.72 272.641 136.573 272.623 144.187C272.623 147.969 272.623 150.963 272.586 152.99C272.586 153.994 272.586 154.77 272.586 155.306C272.586 155.559 272.586 155.75 272.586 155.922C272.586 156.094 272.432 156.101 272.432 156.101Z" fill="#E0E0E0"/>
<path d="M241.934 130.851C241.934 130.851 241.041 141.588 252.665 141.588C252.665 135.859 247.94 131.337 241.934 130.851Z" fill="#EBEBEB"/>
<path d="M263.204 130.863C263.204 130.863 252.467 129.97 252.467 141.594C258.196 141.594 262.718 136.869 263.204 130.863Z" fill="#EBEBEB"/>
<path d="M252.153 124.987C252.153 124.987 243.381 132.859 252.634 141.588C256.933 137.029 256.57 129.884 252.153 124.987Z" fill="#E0E0E0"/>
<path d="M284.679 287.814C284.679 287.906 226.263 287.974 154.222 287.974C82.1808 287.974 23.7471 287.906 23.7471 287.814C23.7471 287.721 82.15 287.654 154.222 287.654C226.294 287.654 284.679 287.727 284.679 287.814Z" fill="#263238"/>
<path d="M129.834 183.044C129.834 183.044 117.422 181.098 116.387 181.135C115.352 181.172 105.509 183.1 105.509 183.1C105.509 183.1 91.5808 185.564 90.1763 186.574C88.7719 187.584 89.8067 190.757 89.8067 190.757C91.3529 191.373 96.2255 190.406 96.2255 190.406C96.2789 191.482 96.5692 192.534 97.0755 193.486C97.9503 195.247 100.34 194.804 100.34 194.804L98.4923 195.765C98.6487 196.881 98.9297 197.976 99.3301 199.03C100.008 200.878 104.449 200.613 104.449 200.613C104.449 200.613 105.619 203.249 107.461 203.693C109.303 204.136 118.888 201.888 121.734 201.58C124.58 201.272 130.038 197.884 130.038 197.884C132.233 198.664 134.468 199.328 136.734 199.874L138.132 181.788C137.085 181.72 129.834 183.044 129.834 183.044Z" fill="#455A64"/>
<path d="M80.0798 240.406C74.7884 239.076 70.7844 234.45 68.9918 229.318C67.1993 224.187 67.2424 218.557 67.7598 213.13C67.9608 212.127 67.8776 211.088 67.5196 210.13C66.8112 208.676 64.8646 208.171 63.3185 208.652C61.7723 209.132 60.5834 210.352 59.6225 211.627C56.8907 215.157 55.2422 219.405 54.8771 223.854C54.512 228.303 55.4458 232.762 57.5654 236.691C59.685 240.62 62.8991 243.849 66.818 245.987C70.7368 248.125 75.1918 249.079 79.6425 248.735" fill="#FF725E"/>
<path d="M120.194 189.34C120.194 189.34 132.594 210.82 135.729 219.456C138.865 228.092 142.856 251.839 142.856 251.839C142.856 251.839 161.472 256.632 149.94 276.652C145.678 284.044 146.06 287.481 141.279 287.703C137.583 287.869 107.572 287.641 107.572 287.641L108.114 290.579C108.114 290.579 105.601 299.068 100.525 296.672C95.4491 294.275 89.4369 287.641 89.4369 287.641L80.7082 287.524L59.9305 287.672L53.8506 287.555V287.389C54.0577 285.737 54.7385 284.18 55.8108 282.907C56.8831 281.633 58.3011 280.697 59.8935 280.212L64.3534 278.857C64.3534 278.857 58.5568 254.513 63.5772 248.673C68.5976 242.833 76.7658 243.234 76.7658 243.234L73.0143 218.181C72.2689 212.308 72.8606 206.342 74.7453 200.73L77.5604 192.358L120.194 189.34Z" fill="#FF725E"/>
<path d="M77.1049 244.071C85.7289 248.956 91.507 257.143 94.396 266.494C94.396 266.592 94.5747 266.549 94.5439 266.457C92.3078 259.207 88.3346 252.492 82.4764 247.589C80.8243 246.217 79.0536 244.994 77.185 243.936C77.0988 243.887 77.0187 244.022 77.1049 244.071Z" fill="#263238"/>
<path d="M77.2896 193.215C77.2896 193.215 73.2425 204.025 72.9037 209.428C72.3431 218.391 76.7845 243.221 76.7845 243.221C76.7845 243.221 75.263 267.56 73.9447 271.169C72.6265 274.779 73.1747 278.106 67.1687 279.331C65.5486 279.664 62.7212 284.919 62.7212 287.524H79.5195C79.5195 287.524 84.0656 282.387 84.2812 277.582C84.4968 272.777 92.4925 246.671 92.4925 246.671" fill="#FF725E"/>
<path d="M92.4921 246.671C92.4921 246.671 92.4921 246.739 92.4428 246.868C92.3935 246.997 92.3504 247.201 92.2765 247.447C92.1287 247.958 91.9131 248.71 91.6297 249.677C91.0568 251.648 90.2314 254.513 89.1657 258.147C88.1 261.781 86.8803 266.217 85.6237 271.317C85.3095 272.592 85.0077 273.91 84.7367 275.278C84.6751 275.619 84.6135 275.964 84.5519 276.313C84.4903 276.658 84.4656 277.009 84.4225 277.36L84.3116 278.444C84.25 278.808 84.1884 279.171 84.096 279.535C83.1994 282.52 81.6698 285.276 79.6115 287.616L79.5746 287.666H79.5068H62.7085H62.5483V287.512C62.6984 285.881 63.1872 284.299 63.9836 282.867C64.359 282.123 64.7936 281.41 65.2834 280.736C65.5356 280.395 65.8158 280.075 66.1211 279.781C66.4336 279.459 66.8309 279.233 67.2669 279.128C68.8685 278.777 70.5379 278.179 71.5789 276.873C72.6199 275.568 72.9218 273.793 73.4269 272.13C73.5131 271.816 73.624 271.514 73.7287 271.2C73.8335 270.886 73.8951 270.584 73.9813 270.288C74.1045 269.672 74.24 269.056 74.3263 268.44C74.5234 267.208 74.6774 265.927 74.8191 264.677C75.1086 262.176 75.3303 259.706 75.5459 257.285C75.9648 252.418 76.3098 247.718 76.6055 243.234V243.271C75.3303 235.916 74.3139 229.103 73.5932 222.943C73.2359 219.863 72.9772 216.986 72.8171 214.319C72.6087 211.851 72.7143 209.367 73.1312 206.927C73.5563 204.715 74.1045 202.769 74.5973 201.081C75.0901 199.393 75.5706 197.97 75.9648 196.812C76.3591 195.654 76.6855 194.779 76.9011 194.182L77.1599 193.51C77.2215 193.356 77.2584 193.282 77.2584 193.282L77.1845 193.516C77.1291 193.683 77.049 193.904 76.9504 194.2C76.7471 194.816 76.4453 195.697 76.0572 196.843C75.6691 197.988 75.2256 199.436 74.739 201.124C74.2523 202.812 73.7226 204.758 73.3099 206.964C72.9068 209.406 72.8158 211.89 73.0388 214.356C73.1867 217.041 73.4762 219.9 73.8458 222.98C74.5788 229.103 75.6137 235.916 76.9258 243.308V243.345C76.6363 247.835 76.3098 252.535 75.8847 257.402C75.6753 259.835 75.4474 262.33 75.164 264.794C75.0162 266.026 74.8622 267.307 74.6651 268.57C74.5788 269.186 74.4433 269.833 74.3201 270.467C74.2277 270.781 74.1476 271.083 74.0552 271.416C73.9628 271.748 73.8458 272.032 73.7595 272.327C73.5131 273.159 73.316 274.003 73.0511 274.841C72.8044 275.686 72.4011 276.478 71.8623 277.175C71.2954 277.848 70.5864 278.386 69.7863 278.752C68.9985 279.112 68.1717 279.378 67.3223 279.547C66.9409 279.636 66.5941 279.836 66.3244 280.12C66.0319 280.4 65.7639 280.705 65.5236 281.031C65.045 281.69 64.6206 282.386 64.2547 283.114C63.4781 284.501 62.9978 286.034 62.844 287.616L62.69 287.462H79.4883L79.3836 287.506C81.4171 285.201 82.9318 282.487 83.825 279.547C83.9112 279.196 83.979 278.838 84.0406 278.487L84.1515 277.422C84.1946 277.064 84.2254 276.701 84.2808 276.35C84.3363 275.999 84.4102 275.654 84.4779 275.309C84.749 273.941 85.0631 272.617 85.3773 271.342C86.6524 266.235 87.9337 261.825 88.9871 258.178C90.0404 254.531 90.9151 251.685 91.5127 249.732C91.8145 248.772 92.0424 248.026 92.2026 247.509L92.3874 246.942C92.4141 246.849 92.4491 246.758 92.4921 246.671Z" fill="#263238"/>
<path d="M121.906 204.45C121.906 204.45 121.968 204.58 122.073 204.845L122.516 206.027C122.904 207.075 123.465 208.608 124.192 210.58C125.627 214.541 127.703 220.269 130.111 227.409C130.727 229.195 131.343 231.068 131.929 233.039C132.237 234.018 132.545 235.029 132.809 236.064C133.061 237.127 133.248 238.205 133.37 239.291C133.906 243.696 134.158 248.427 134.442 253.398C134.725 258.369 134.959 263.593 135.323 268.995C135.514 271.693 135.711 274.447 136.093 277.206C136.191 277.896 136.302 278.592 136.456 279.27C136.531 279.613 136.63 279.95 136.752 280.28C136.807 280.433 136.882 280.578 136.974 280.711C137.017 280.761 137.066 280.822 137.109 280.834C137.183 280.868 137.259 280.896 137.337 280.921C138.038 281.125 138.702 281.441 139.302 281.857C139.603 282.068 139.884 282.307 140.14 282.572C140.391 282.845 140.612 283.144 140.799 283.465C141.516 284.781 141.734 286.312 141.415 287.777V287.9H141.286H122.504H122.344V287.746C122.417 286.177 122.655 284.621 123.052 283.101C123.409 281.604 123.816 280.145 124.284 278.715V278.777C123.151 271.385 122.079 264.541 121.075 258.449C120.563 255.406 120.089 252.542 119.559 249.905C119.485 249.579 119.43 249.246 119.344 248.932L119.22 248.464C119.168 248.315 119.105 248.171 119.03 248.032C118.724 247.485 118.372 246.966 117.976 246.48C117.225 245.507 116.442 244.632 115.703 243.776C112.703 240.425 110.202 237.893 108.502 236.15L106.543 234.16L106.044 233.649C105.927 233.532 105.878 233.47 105.878 233.47L106.057 233.63L106.58 234.123C107.036 234.579 107.699 235.232 108.57 236.082C110.288 237.807 112.814 240.32 115.839 243.653C116.584 244.497 117.372 245.377 118.136 246.363C118.544 246.856 118.905 247.386 119.214 247.946C119.298 248.092 119.368 248.244 119.424 248.402L119.547 248.883C119.639 249.203 119.695 249.529 119.769 249.862C120.317 252.505 120.797 255.363 121.315 258.412C122.344 264.504 123.434 271.348 124.574 278.74V278.808C124.136 280.231 123.73 281.685 123.378 283.175C122.992 284.673 122.759 286.207 122.682 287.752L122.528 287.598L141.31 287.561L141.15 287.684C141.438 286.301 141.22 284.86 140.534 283.625C140.356 283.327 140.15 283.046 139.918 282.787C139.676 282.542 139.412 282.32 139.13 282.122C138.566 281.727 137.942 281.425 137.282 281.229C137.19 281.198 137.099 281.163 137.011 281.124C136.904 281.074 136.815 280.995 136.752 280.896C136.639 280.742 136.549 280.572 136.487 280.391C136.359 280.054 136.256 279.708 136.179 279.356C136.019 278.66 135.908 277.964 135.809 277.268C135.427 274.483 135.23 271.724 135.039 269.026C134.682 263.617 134.423 258.394 134.177 253.422C133.931 248.451 133.66 243.727 133.142 239.335C133.021 238.259 132.838 237.192 132.594 236.137C132.319 235.107 132.029 234.101 131.725 233.119C131.109 231.154 130.493 229.281 129.927 227.495C127.549 220.349 125.504 214.608 124.105 210.635C123.403 208.658 122.873 207.118 122.485 206.058C122.307 205.547 122.165 205.147 122.073 204.869C121.98 204.592 121.906 204.45 121.906 204.45Z" fill="#263238"/>
<path d="M105.502 261.184C105.379 261.106 105.264 261.018 105.157 260.919L104.215 260.118C103.414 259.404 102.281 258.332 100.969 256.927C97.5757 253.24 94.4332 249.33 91.5622 245.223C88.649 241.152 86.0147 236.887 83.6774 232.46C82.7965 230.747 82.1682 229.324 81.7678 228.326C81.5953 227.846 81.4536 227.464 81.3427 227.168C81.2876 227.035 81.2443 226.897 81.2134 226.756C81.2905 226.878 81.3545 227.008 81.4043 227.144L81.8848 228.277C82.3222 229.257 82.9751 230.661 83.8807 232.355C86.2705 236.74 88.9242 240.975 91.8271 245.039C94.6929 249.122 97.8011 253.031 101.135 256.743C102.422 258.165 103.525 259.256 104.301 259.995L105.2 260.839C105.311 260.945 105.412 261.06 105.502 261.184Z" fill="#263238"/>
<path d="M95.1722 258.825C96.311 262.465 97.0646 266.214 97.4206 270.011C97.4315 270.416 97.5972 270.802 97.8837 271.088C98.1702 271.375 98.5556 271.54 98.9606 271.551C99.3685 271.55 99.7593 271.387 100.048 271.098C100.336 270.81 100.499 270.419 100.501 270.011C100.138 265.938 99.347 261.913 98.1413 258.005C98.0327 257.612 97.7721 257.277 97.4168 257.076C97.0616 256.874 96.6408 256.822 96.2471 256.93C95.8534 257.039 95.5189 257.3 95.3173 257.655C95.1158 258.01 95.0635 258.431 95.1722 258.825Z" fill="#FF725E"/>
<path d="M77.3879 195.691C76.8643 182.514 75.9156 167.133 77.3509 162.119C78.7862 157.104 88.8701 147.199 94.6667 144.871C100.463 142.542 110.067 145.635 112.962 148.203L131.208 143.817C131.208 143.817 134.787 152.115 130.376 158.768C125.966 165.42 112.956 165.347 112.956 165.347C112.956 165.347 111.791 172.585 117.354 173.219C122.916 173.854 130.321 172.985 131.029 179.034L119.602 180.057L120.218 190.134L98.4735 201.691L78.1147 195.814" fill="#FF725E"/>
<path d="M93.0156 152.897C93.081 153.074 93.1204 153.258 93.1327 153.446L93.3606 155.035C93.5454 156.495 93.7918 158.472 94.0998 160.881C94.4078 163.289 94.7158 166.32 95.1162 169.566C95.3474 171.282 95.4832 173.01 95.5228 174.741C95.5901 176.632 95.278 178.517 94.6049 180.285C93.8757 182.081 92.481 183.527 90.7118 184.32C89.0583 185.002 87.2358 185.163 85.4881 184.782C83.9148 184.457 82.4512 183.734 81.2377 182.681C80.2128 181.751 79.3762 180.632 78.7737 179.385C77.8978 177.592 77.4287 175.628 77.4 173.632C77.3841 173.095 77.4027 172.558 77.4555 172.024C77.461 171.836 77.4942 171.649 77.554 171.47C77.6033 171.47 77.5232 172.24 77.6095 173.62C77.7228 175.566 78.2366 177.468 79.1187 179.207C79.7348 180.396 80.5709 181.458 81.5827 182.336C82.7484 183.321 84.1453 183.993 85.6421 184.289C87.2935 184.64 89.0128 184.479 90.5701 183.827C92.2114 183.087 93.5027 181.74 94.1737 180.069C94.8157 178.371 95.1171 176.562 95.0608 174.747C95.0255 173.035 94.9021 171.327 94.6912 169.628C94.3524 166.369 94.0444 163.425 93.7856 160.924C93.5269 158.423 93.3668 156.52 93.2251 155.053C93.1758 154.437 93.1327 153.883 93.0957 153.458C93.0471 153.275 93.0203 153.087 93.0156 152.897Z" fill="#263238"/>
<path d="M125.769 145.21C125.746 146.194 126.103 147.149 126.767 147.877C127.423 148.521 128.236 148.984 129.126 149.22C130.239 149.673 131.479 149.713 132.619 149.331C132.617 147.867 132.388 146.412 131.941 145.019C131.896 144.798 131.806 144.589 131.677 144.404C131.548 144.22 131.382 144.064 131.189 143.947C130.949 143.861 130.691 143.835 130.438 143.873C128.804 143.994 127.213 144.455 125.769 145.228" fill="#263238"/>
<g opacity="0.3">
<path d="M77.5792 174.784C78.072 178.043 78.9714 181.609 81.1951 184.024C83.4189 186.439 86.9239 187.88 90.1025 187.03C94.0141 185.983 96.4288 181.825 96.743 177.79C97.0571 173.755 95.7081 169.782 94.3775 165.975C94.9935 169.616 95.6527 173.367 94.7964 176.965C93.9402 180.562 91.2051 183.968 87.5399 184.406C86.2578 184.518 84.9675 184.321 83.7769 183.832C82.5863 183.344 81.53 182.577 80.6962 181.597C78.9343 179.73 77.8347 177.337 77.5669 174.784" fill="black"/>
</g>
<path d="M132.68 150.772C132.73 151.088 132.73 151.41 132.68 151.727C132.611 152.593 132.473 153.451 132.268 154.296C131.965 155.552 131.523 156.771 130.949 157.93C130.256 159.378 129.253 160.657 128.011 161.675C126.745 162.642 125.333 163.4 123.828 163.924C122.617 164.363 121.37 164.698 120.102 164.928C119.251 165.09 118.391 165.199 117.527 165.254C117.213 165.306 116.892 165.306 116.578 165.254C116.578 165.168 117.915 165.057 120.022 164.564C121.255 164.285 122.468 163.919 123.65 163.468C125.092 162.935 126.448 162.192 127.672 161.262C128.851 160.291 129.814 159.085 130.5 157.72C131.078 156.601 131.545 155.427 131.892 154.215C132.489 152.115 132.582 150.766 132.68 150.772Z" fill="#263238"/>
<path d="M106.093 153.532C105.687 153.699 105.363 154.018 105.19 154.422C105.018 154.825 105.01 155.281 105.17 155.69C105.329 156.099 105.642 156.429 106.043 156.609C106.443 156.789 106.898 156.805 107.31 156.653C107.722 156.502 108.058 156.194 108.245 155.798C108.433 155.401 108.457 154.946 108.313 154.531C108.169 154.117 107.868 153.775 107.475 153.58C107.082 153.385 106.628 153.352 106.21 153.489" fill="#263238"/>
<path d="M99.7918 155.485C99.5885 155.565 99.2497 155.3 98.9971 154.721C98.6904 153.951 98.6259 153.107 98.8123 152.3C98.9716 151.488 99.3783 150.746 99.9766 150.175C100.445 149.75 100.864 149.645 101.018 149.799C101.332 150.144 100.697 151.234 100.402 152.645C100.106 154.055 100.248 155.3 99.7918 155.485Z" fill="#263238"/>
<path d="M122.498 263.247C122.498 263.284 121.882 263.247 120.73 263.303C120.041 263.335 119.356 263.415 118.679 263.543C117.785 263.705 116.925 264.015 116.135 264.461C114.367 265.44 112.648 267.196 110.677 269.013C108.706 270.83 106.925 273.264 104.363 275.105C103.117 276.017 101.677 276.628 100.156 276.892C98.6833 277.132 97.2603 277.101 95.9236 277.206C94.6649 277.247 93.4298 277.558 92.3015 278.118C91.3373 278.64 90.51 279.383 89.8868 280.286C88.9608 281.594 88.4734 283.162 88.4946 284.764C88.5288 285.35 88.6049 285.933 88.7226 286.508C88.5068 285.953 88.3881 285.365 88.3714 284.77C88.2971 283.128 88.7646 281.507 89.702 280.157C90.3313 279.214 91.1759 278.435 92.166 277.884C93.3236 277.295 94.5952 276.965 95.8928 276.916C97.248 276.799 98.6648 276.818 100.094 276.584C101.567 276.322 102.962 275.728 104.172 274.847C106.679 273.042 108.484 270.652 110.467 268.804C112.451 266.956 114.163 265.249 116.011 264.258C116.831 263.817 117.718 263.516 118.636 263.364C119.322 263.248 120.016 263.187 120.711 263.18C121.284 263.18 121.728 263.18 122.03 263.21C122.186 263.211 122.343 263.223 122.498 263.247Z" fill="#263238"/>
<path d="M99.5577 282.017C99.7429 281.971 99.9341 281.955 100.124 281.968C100.641 281.975 101.155 282.037 101.658 282.152C103.35 282.523 104.882 283.416 106.036 284.707C107.191 285.997 107.909 287.619 108.089 289.341C108.145 289.855 108.145 290.373 108.089 290.887C108.084 291.077 108.046 291.264 107.978 291.442C107.917 291.442 108.046 290.635 107.855 289.366C107.621 287.711 106.901 286.163 105.786 284.918C104.67 283.673 103.21 282.788 101.59 282.374C100.365 282.042 99.5515 282.079 99.5577 282.017Z" fill="#263238"/>
<path d="M105.638 290.136C105.586 290.631 105.431 291.11 105.182 291.54C104.636 292.619 103.801 293.525 102.772 294.159C101.742 294.793 100.558 295.129 99.3486 295.132C98.851 295.166 98.3521 295.088 97.8887 294.904C97.8887 294.855 98.4492 294.959 99.3363 294.904C100.493 294.844 101.615 294.494 102.601 293.887C103.587 293.28 104.405 292.435 104.979 291.43C105.429 290.66 105.583 290.136 105.638 290.136Z" fill="#263238"/>
<path d="M100.322 286.163C100.322 286.212 99.8287 286.311 99.0895 286.625C98.1154 287.027 97.2402 287.635 96.5244 288.408C95.8086 289.182 95.2693 290.101 94.9438 291.103C94.6851 291.873 94.6297 292.378 94.5742 292.372C94.5329 291.921 94.5854 291.466 94.7282 291.035C95.0122 289.97 95.5541 288.99 96.3061 288.183C97.0581 287.377 97.9971 286.767 99.0402 286.409C99.4445 286.236 99.8816 286.151 100.322 286.163Z" fill="#263238"/>
<path d="M135.403 288.097C135.415 287.684 135.458 287.272 135.532 286.865C135.661 285.878 135.57 284.875 135.267 283.927C134.929 282.999 134.248 282.236 133.364 281.795C132.982 281.647 132.586 281.54 132.181 281.475C132.606 281.359 133.058 281.398 133.456 281.586C133.944 281.791 134.383 282.095 134.747 282.479C135.111 282.863 135.391 283.318 135.569 283.816C135.897 284.809 135.96 285.871 135.754 286.896C135.708 287.314 135.589 287.72 135.403 288.097Z" fill="#263238"/>
<path d="M74.579 281.038C74.579 281.093 74.0061 281.038 73.1191 281.155C71.9627 281.324 70.8709 281.793 69.9528 282.516C69.0471 283.258 68.3488 284.221 67.9262 285.313C67.6059 286.15 67.5504 286.717 67.495 286.711C67.4556 286.208 67.5314 285.702 67.7168 285.233C68.0872 284.064 68.7948 283.032 69.7506 282.264C70.7063 281.497 71.8676 281.03 73.0883 280.921C73.5876 280.845 74.0976 280.885 74.579 281.038Z" fill="#263238"/>
<path d="M151.271 275.42C151.271 275.42 151.567 275.032 152.035 274.292C152.691 273.253 153.205 272.13 153.563 270.954C154.085 269.205 154.314 267.381 154.24 265.557C154.161 263.327 153.637 261.134 152.7 259.108C151.773 257.078 150.323 255.33 148.499 254.044C147.024 252.991 145.346 252.254 143.571 251.882C142.367 251.637 141.125 251.66 139.931 251.95C139.608 252.041 139.291 252.152 138.982 252.283C138.877 252.337 138.765 252.377 138.649 252.4C138.744 252.327 138.848 252.267 138.957 252.221C139.257 252.063 139.57 251.933 139.894 251.833C141.095 251.486 142.361 251.427 143.59 251.661C145.42 251.999 147.155 252.728 148.678 253.798C149.585 254.418 150.403 255.157 151.111 255.997C151.863 256.906 152.499 257.906 153.002 258.972C153.959 261.038 154.486 263.276 154.548 265.551C154.611 267.405 154.355 269.255 153.791 271.021C153.408 272.209 152.856 273.336 152.152 274.366C151.893 274.724 151.684 274.982 151.536 275.167C151.457 275.261 151.369 275.345 151.271 275.42Z" fill="#263238"/>
<path d="M76.7415 243.936C73.8735 243.281 70.8661 243.662 68.253 245.014C66.5951 245.843 65.1366 247.022 63.978 248.47C63.3795 249.207 62.9089 250.04 62.5858 250.934C62.3011 251.777 62.0949 252.646 61.9698 253.527C61.7636 255.035 61.6751 256.557 61.7049 258.079C61.7049 259.379 61.7542 260.432 61.7727 261.159C61.7727 261.492 61.7727 261.775 61.7727 261.997C61.7883 262.095 61.7883 262.195 61.7727 262.293C61.7441 262.199 61.7296 262.101 61.7296 262.003C61.7296 261.769 61.6864 261.498 61.6618 261.165C61.6064 260.432 61.5324 259.379 61.4893 258.085C61.4303 256.551 61.4983 255.014 61.6926 253.49C61.8121 252.587 62.0184 251.698 62.3086 250.835C62.6379 249.904 63.1232 249.035 63.7439 248.266C64.9317 246.783 66.4339 245.582 68.1421 244.749C69.529 244.065 71.0267 243.633 72.565 243.474C73.5933 243.369 74.6315 243.419 75.645 243.622C75.9226 243.673 76.1964 243.742 76.4643 243.831C76.5607 243.854 76.6539 243.889 76.7415 243.936Z" fill="#263238"/>
<path d="M51.3314 230.575C51.2473 230.359 51.1934 230.134 51.1713 229.903C51.0613 229.292 50.9873 228.675 50.9495 228.055C50.6687 223.887 51.5494 219.723 53.4936 216.025C53.7783 215.453 54.0992 214.899 54.4546 214.368C54.568 214.166 54.7067 213.98 54.8673 213.813C54.9166 213.844 54.3806 214.67 53.6907 216.087C51.8891 219.794 51.0261 223.887 51.1774 228.006C51.2329 229.602 51.3869 230.569 51.3314 230.575Z" fill="#263238"/>
<path d="M49.3537 231.536C49.2676 231.32 49.2076 231.095 49.1751 230.864C49.0704 230.433 48.9657 229.793 48.8609 229.016C48.3544 224.872 48.7623 220.666 50.056 216.696C50.3085 215.939 50.5365 215.335 50.7213 214.928C50.7976 214.712 50.8989 214.505 51.0231 214.312C51.0785 214.312 50.7151 215.255 50.2716 216.776C49.1085 220.749 48.7072 224.907 49.0889 229.029C49.2305 230.556 49.4092 231.53 49.3537 231.536Z" fill="#263238"/>
<g opacity="0.3">
<path d="M89.5357 255.96C92.1002 258.779 93.9322 262.185 94.8702 265.878C95.1422 266.675 95.153 267.538 94.901 268.342C94.1926 270.005 91.9073 270.079 90.3488 270.978C89.0367 271.73 88.2298 273.098 87.4782 274.41L79.8398 287.691C82.1991 287.493 83.0738 287.74 85.4331 287.549L89.2277 287.629C89.086 287.691 88.4885 285.824 88.4392 284.949C88.2852 282.276 90.0901 279.042 92.4925 277.853C95.5047 276.356 98.9728 277.607 102.034 276.202C104.96 274.853 106.704 272.796 108.607 270.911C110.997 268.539 113.369 265.367 116.43 263.993C117.816 263.377 121.124 263.303 121.124 263.303C119.553 261.455 116.67 261.547 114.348 262.176C112.026 262.804 109.599 263.833 107.227 263.297C105.238 262.853 103.654 261.381 102.182 259.971C98.4061 256.361 94.5006 252.579 92.8128 247.607L89.665 255.745" fill="black"/>
</g>
<g opacity="0.3">
<path d="M141.279 287.703C142.511 284.709 139.715 281.173 138.594 278.142C137.473 275.112 137.707 271.687 137.713 268.416C137.73 261.505 136.615 254.638 134.411 248.088C134.165 257.069 135.193 266.605 135.729 275.567C135.84 277.471 135.692 279.67 137.091 280.964C137.805 281.629 138.23 281.339 139.031 281.894C139.832 282.448 141.403 283.742 141.279 287.684" fill="black"/>
</g>
<path d="M105.003 199.233C103.865 198.829 102.817 198.203 101.923 197.391C101.028 196.578 100.304 195.597 99.792 194.502C100.519 195.432 101.303 196.317 102.139 197.151C103.047 197.906 104.004 198.602 105.003 199.233Z" fill="#263238"/>
<path d="M107.313 197.97C105.338 197.375 103.609 196.156 102.385 194.496C102.459 194.434 103.389 195.414 104.751 196.344C106.112 197.274 107.35 197.878 107.313 197.97Z" fill="#263238"/>
<path d="M110.356 197.859C109.387 197.688 108.472 197.287 107.689 196.689C106.847 196.182 106.136 195.483 105.613 194.65C105.687 194.582 106.556 195.543 107.868 196.424C109.18 197.305 110.387 197.767 110.356 197.859Z" fill="#263238"/>
<path d="M89.4061 224.316C88.2849 223.833 87.2993 223.082 86.5355 222.13C85.6956 221.247 85.0881 220.17 84.7676 218.994C85.3714 220.014 86.0444 220.992 86.7819 221.92C87.6026 222.776 88.4793 223.577 89.4061 224.316Z" fill="#263238"/>
<path d="M91.6793 224.347C89.9372 223.271 88.5973 221.652 87.8662 219.739C87.9525 219.696 88.5869 220.885 89.6403 222.154C90.6937 223.423 91.7347 224.273 91.6793 224.347Z" fill="#263238"/>
<path d="M95.6399 225.117C94.841 224.494 94.1101 223.788 93.4593 223.011C92.7293 222.306 92.0768 221.525 91.5127 220.682C92.3107 221.309 93.0415 222.017 93.6933 222.795C94.4223 223.498 95.0748 224.277 95.6399 225.117Z" fill="#263238"/>
<path d="M83.4188 173.854C83.4188 173.854 83.1416 173.743 82.8028 173.41C82.4037 172.963 82.1054 172.436 81.9281 171.864C81.732 171.297 81.6585 170.694 81.7125 170.096C81.7618 169.64 81.8727 169.375 81.9096 169.381C81.9126 170.185 82.0203 170.984 82.23 171.759C82.529 172.508 82.929 173.213 83.4188 173.854Z" fill="#263238"/>
<path d="M84.503 173.379C84.0381 172.937 83.7145 172.367 83.5729 171.741C83.3366 171.144 83.2789 170.491 83.4066 169.862C83.5051 169.862 83.579 170.688 83.8809 171.642C84.1827 172.597 84.577 173.33 84.503 173.379Z" fill="#263238"/>
<path d="M86.9484 174.944C85.7835 173.608 85.0379 171.958 84.8047 170.201C84.8971 170.201 85.2236 171.297 85.8149 172.597C86.4063 173.897 87.0223 174.858 86.9484 174.944Z" fill="#263238"/>
<path d="M159.495 61.1995C154.721 64.1255 153.101 71.191 152.897 76.7843C152.694 82.3775 154.216 87.8723 155.454 93.3362C156.692 98.8001 157.647 104.523 156.304 109.968C155.072 115.007 151.918 120.317 154.179 124.986C155.885 128.51 160.252 130.339 161.46 134.066C162.864 138.415 159.31 142.69 156.045 145.863C156.829 147.051 158.026 147.906 159.404 148.262C160.782 148.618 162.243 148.45 163.505 147.791C163.463 148.453 163.286 149.1 162.982 149.69C162.679 150.281 162.257 150.802 161.743 151.222C163.609 151.67 165.565 151.572 167.377 150.94C169.189 150.307 170.781 149.167 171.963 147.655C171.513 149.207 171.057 150.735 170.607 152.312C174.357 151.426 177.613 149.115 179.687 145.869L181.258 148.813C187.264 144.686 191.44 138.193 193.492 131.196C195.543 124.198 195.561 116.726 194.385 109.531C192.637 99.3502 188.585 89.7039 182.537 81.3294C176.49 72.9548 168.609 66.0736 159.495 61.2118" fill="#263238"/>
<path d="M229.361 112.5C227.224 109.931 224.587 107.381 224.291 104.048C224.162 102.582 224.513 101.073 224.181 99.6317C223.318 95.9357 218.489 94.4512 217.035 90.9277C215.187 86.5048 219.363 80.6528 216.283 76.9876C214.805 75.232 212.261 74.887 210.321 73.6612C205.393 70.5381 206.588 61.9572 194.767 55.7109L195.647 74.5729C199.631 90.5253 202.796 106.671 205.128 122.947L231.807 121.629C233.328 118.66 231.505 115.069 229.361 112.5Z" fill="#263238"/>
<path d="M153.846 68.0741C153.987 65.7209 154.596 63.4193 155.637 61.304C156.677 59.1886 158.129 57.3019 159.908 55.7541C163.819 52.3785 169.098 50.8754 174.26 50.8261C179.423 50.7769 184.529 52.0027 189.445 53.592C192.205 54.4852 194.989 55.5201 197.225 57.3619C201.315 60.7191 202.941 66.1461 204.364 71.2404C205.51 75.3614 206.668 79.6919 205.72 83.8622C205.267 85.7794 204.391 87.5707 203.154 89.1038C201.917 90.6369 200.352 91.8728 198.574 92.7203" fill="#263238"/>
<path d="M155.275 64.5259C152.472 69.2812 151.368 74.8478 152.143 80.313C152.919 85.7782 155.529 90.8177 159.544 94.6052C159.681 82.713 160.854 70.8554 163.049 59.1667" fill="#263238"/>
<path d="M154.191 80.8869C152.959 72.5524 156.267 61.2981 164.663 60.4233L184.652 61.181C191.065 61.4274 196.22 65.6901 198.013 71.8501C198.099 72.1581 198.05 71.7701 198.093 72.0103L207.382 121.968C208.106 125.902 207.246 129.964 204.989 133.267C202.732 136.57 199.262 138.848 195.333 139.604C191.441 140.353 187.411 139.547 184.106 137.359C180.801 135.171 178.485 131.775 177.654 127.9C176.786 123.902 175.769 119.184 175.769 119.208C175.769 119.233 164.891 119.695 159.796 106.451C157.265 99.8597 155.558 90.1453 154.191 80.8869Z" fill="#9D6054"/>
<path d="M172.104 72.5462C169.687 73.9216 167.014 74.7874 164.25 75.0903C164.25 74.9918 166.036 74.5975 168.199 73.8953C170.361 73.193 172.061 72.46 172.104 72.5462Z" fill="#724A44"/>
<path d="M168.938 72.7188C167.438 73.5821 165.74 74.0426 164.01 74.0555C164.813 73.7677 165.637 73.5392 166.474 73.3717C167.278 73.0939 168.102 72.8757 168.938 72.7188Z" fill="#724A44"/>
<path d="M180.488 98.6217C180.402 98.6525 180.161 98.1227 179.533 97.8887C178.905 97.6546 178.375 97.8886 178.332 97.7716C178.289 97.6546 178.418 97.6115 178.665 97.5252C178.99 97.4206 179.342 97.4359 179.656 97.5683C179.976 97.6893 180.244 97.918 180.414 98.2151C180.525 98.4492 180.519 98.6155 180.488 98.6217Z" fill="#724A44"/>
<path d="M159.544 90.9708C159.638 91.4301 159.907 91.8346 160.295 92.0981C160.683 92.3615 161.158 92.4632 161.62 92.3815C161.847 92.3522 162.067 92.2775 162.265 92.1617C162.463 92.046 162.636 91.8916 162.773 91.7077C162.911 91.5238 163.01 91.3142 163.064 91.0914C163.119 90.8685 163.129 90.6369 163.092 90.4103C162.999 89.9515 162.731 89.5471 162.344 89.2835C161.958 89.0199 161.483 88.918 161.022 88.9996C160.795 89.0298 160.576 89.105 160.378 89.2209C160.179 89.3368 160.007 89.4911 159.869 89.6746C159.731 89.8582 159.632 90.0674 159.576 90.29C159.52 90.5125 159.509 90.744 159.544 90.9708Z" fill="#263238"/>
<path d="M157.856 86.1846C158.121 86.3694 159.242 85.1004 161.139 84.7C163.037 84.2996 164.62 84.9526 164.774 84.7C164.854 84.5768 164.546 84.2072 163.844 83.8931C162.904 83.5031 161.868 83.4107 160.874 83.6282C159.891 83.8359 158.998 84.349 158.324 85.0943C157.838 85.624 157.727 86.1045 157.856 86.1846Z" fill="#263238"/>
<path d="M176.539 87.2565C176.626 87.7269 176.896 88.1436 177.29 88.415C177.684 88.6864 178.169 88.7904 178.64 88.7041C178.867 88.674 179.086 88.5988 179.284 88.4828C179.482 88.3668 179.654 88.2124 179.791 88.0288C179.929 87.8451 180.028 87.6358 180.083 87.4132C180.138 87.1907 180.148 86.9594 180.112 86.7329C180.02 86.2738 179.751 85.8688 179.365 85.6042C178.978 85.3397 178.504 85.2363 178.042 85.3161C177.815 85.3427 177.596 85.4142 177.397 85.5266C177.198 85.639 177.023 85.79 176.883 85.9707C176.743 86.1514 176.641 86.3581 176.582 86.5789C176.523 86.7997 176.508 87.0301 176.539 87.2565Z" fill="#263238"/>
<path d="M176.527 82.581C176.798 82.7658 177.919 81.4969 179.81 81.0965C181.701 80.6961 183.291 81.3552 183.451 81.0965C183.525 80.9733 183.217 80.6037 182.521 80.2957C181.581 79.8996 180.541 79.8049 179.545 80.0246C178.56 80.232 177.667 80.7477 176.995 81.4969C176.508 82.0451 176.398 82.501 176.527 82.581Z" fill="#263238"/>
<path d="M172.646 98.0732C172.646 97.9623 171.414 98.0115 169.456 98.1717C168.963 98.2271 168.482 98.2271 168.334 97.913C168.179 97.4261 168.179 96.903 168.334 96.4161C168.538 95.1471 168.753 93.8227 168.981 92.4306C169.85 86.7695 170.367 82.1557 170.139 82.1249C169.911 82.0941 169.024 86.6525 168.15 92.3135C167.944 93.7057 167.751 95.0363 167.571 96.3052C167.39 96.954 167.445 97.6455 167.725 98.2579C167.83 98.4132 167.97 98.5423 168.134 98.6352C168.297 98.728 168.48 98.7823 168.667 98.7939C168.95 98.8076 169.233 98.7869 169.511 98.7323C171.47 98.4304 172.665 98.184 172.646 98.0732Z" fill="#263238"/>
<path d="M192.9 110.424C192.9 110.424 190.436 120.791 176.466 122.43L175.77 119.208C182.183 117.923 188.113 114.882 192.9 110.424Z" fill="#724A44"/>
<path d="M174.414 102.465C174.679 101.935 175.073 101.481 175.562 101.146C176.05 100.811 176.615 100.606 177.205 100.55C177.631 100.498 178.062 100.533 178.474 100.653C178.886 100.772 179.269 100.974 179.601 101.246C179.918 101.509 180.148 101.864 180.258 102.261C180.368 102.659 180.354 103.08 180.217 103.47C179.985 103.874 179.638 104.2 179.22 104.405C178.802 104.61 178.332 104.686 177.87 104.621C176.907 104.497 175.979 104.181 175.141 103.691C174.896 103.585 174.673 103.435 174.482 103.248C174.392 103.158 174.329 103.044 174.303 102.919C174.277 102.794 174.288 102.664 174.334 102.546" fill="#724A44"/>
<path d="M178.492 98.1964C178.184 98.2457 178.615 100.303 177.167 102.133C175.72 103.962 173.471 104.202 173.527 104.492C173.527 104.627 174.1 104.788 175.03 104.615C176.243 104.383 177.334 103.728 178.11 102.767C178.849 101.845 179.2 100.672 179.089 99.4962C178.966 98.6153 178.64 98.1595 178.492 98.1964Z" fill="#263238"/>
<path d="M174.882 77.1415C175.178 77.6159 177.014 76.9691 179.293 76.7658C181.572 76.5625 183.494 76.7658 183.691 76.2607C183.771 76.0143 183.359 75.5954 182.527 75.2504C181.431 74.8462 180.258 74.6966 179.096 74.8129C177.933 74.9293 176.813 75.3085 175.819 75.9219C175.073 76.4208 174.753 76.9136 174.882 77.1415Z" fill="#263238"/>
<path d="M157.388 80.5603C157.813 80.9176 159.02 80.1969 160.585 79.8396C162.15 79.4823 163.536 79.5131 163.751 79.0018C163.837 78.7554 163.536 78.3858 162.87 78.084C161.99 77.7611 161.033 77.7057 160.121 77.9249C159.21 78.1441 158.383 78.6281 157.745 79.316C157.283 79.9012 157.197 80.3817 157.388 80.5603Z" fill="#263238"/>
<path d="M155.232 67.569C155.626 65.3268 157.622 63.602 159.821 63.0106C162.02 62.4193 164.373 62.795 166.542 63.4973C175.714 66.4602 182.317 74.8378 191.428 77.9856C193.67 78.7617 196.06 79.2176 198.087 80.4496C200.114 81.6816 201.783 83.9854 201.278 86.3077C202.126 84.6249 202.726 82.828 203.058 80.9732C203.22 80.0442 203.181 79.0914 202.945 78.1786C202.708 77.2659 202.278 76.4145 201.684 75.6817C200.73 74.6222 199.3 73.9631 198.666 72.6818C198.112 71.5545 198.315 70.2178 198.001 68.9858C197.595 67.7666 196.907 66.6606 195.993 65.758C191.637 60.83 186.204 56.7336 179.933 54.7932C175.828 53.4646 171.438 53.2836 167.238 54.2696C163.021 55.2747 159.305 57.76 156.766 61.2735C155.324 63.3371 153.797 65.4869 155.226 67.569" fill="#263238"/>
<path d="M206.489 88.3775C206.132 88.2851 206.095 87.3487 205.824 85.8703C205.694 85.0469 205.421 84.2526 205.017 83.5234C204.908 83.3471 204.785 83.1802 204.648 83.0244C204.583 82.9501 204.513 82.8801 204.438 82.815L204.143 82.5439C203.7 82.1513 203.229 81.793 202.732 81.4721C202.323 81.1878 201.859 80.9926 201.371 80.8992C201.21 80.8992 201.186 80.9362 201.26 80.9423L200.798 81.1395L200.305 81.3736C199.666 81.6864 199.067 82.073 198.518 82.5255C198.229 82.7596 197.946 83.0183 197.656 83.2955L197.44 83.5111L197.071 83.856C196.822 84.0756 196.56 84.2812 196.289 84.472C195.183 85.2362 193.92 85.7415 192.593 85.9504C191.784 86.0755 190.958 86.0483 190.159 85.8703L189.827 85.7841L189.562 85.6917C189.389 85.6301 189.205 85.5747 189.038 85.5008C188.695 85.3555 188.362 85.1889 188.04 85.0018C186.875 84.291 185.846 83.3772 185.003 82.3037C184.184 81.312 183.568 80.3448 182.952 79.4639C180.753 76.2636 178.066 73.4283 174.987 71.0617C172.446 69.1066 169.679 67.4645 166.745 66.1707C164.824 65.2435 162.781 64.5924 160.678 64.2364C159.205 64.0208 158.281 64.0763 158.152 63.719C158.023 63.3617 158.768 62.6595 160.554 62.2221C162.341 61.7848 165.008 61.9018 167.946 62.7149C171.445 63.6501 174.763 65.1615 177.765 67.1871C181.484 69.6714 184.693 72.8432 187.221 76.5318C187.837 77.4804 188.453 78.3367 188.995 79.0512C189.454 79.6646 190.009 80.1993 190.64 80.6343C190.764 80.7155 190.894 80.7875 191.028 80.8499C191.092 80.8824 191.158 80.9112 191.225 80.9362L191.317 80.9731H191.361C191.56 81.0341 191.77 81.0509 191.977 81.0224C192.599 80.945 193.198 80.735 193.732 80.4064C193.868 80.3263 193.991 80.2463 194.108 80.1662L194.274 80.043L194.576 79.7843C194.989 79.4393 195.42 79.1128 195.863 78.811C196.739 78.2162 197.684 77.732 198.679 77.3695C198.913 77.2895 199.141 77.2094 199.369 77.1416L199.701 77.0369L200.089 76.9322C200.838 76.7316 201.629 76.7487 202.368 76.9815C203.349 77.3011 204.247 77.8333 204.999 78.5399C205.594 79.0701 206.134 79.6582 206.613 80.2956C206.73 80.4496 206.822 80.5666 206.945 80.7576C207.071 80.9344 207.184 81.1197 207.284 81.3119C207.468 81.6582 207.619 82.0212 207.734 82.3961C208.053 83.5231 208.099 84.7096 207.869 85.858C207.475 87.6814 206.816 88.4699 206.489 88.3775Z" fill="#263238"/>
<path d="M198.814 82.5439C198.876 82.1189 205.473 78.004 207.198 85.5808C208.879 92.9728 201.118 93.0898 201.038 92.8865C200.958 92.6833 198.814 82.5439 198.814 82.5439Z" fill="#9D6054"/>
<path d="M202.701 89.5726C202.732 89.5726 202.849 89.6342 203.089 89.6835C203.425 89.7436 203.771 89.6731 204.056 89.4864C204.764 89.0244 205.146 87.6384 204.881 86.3078C204.761 85.6718 204.498 85.0715 204.111 84.5522C203.991 84.3368 203.82 84.154 203.613 84.0198C203.405 83.8856 203.168 83.804 202.923 83.7822C202.767 83.7782 202.614 83.828 202.491 83.9234C202.367 84.0188 202.28 84.1539 202.245 84.3058C202.19 84.5338 202.245 84.6693 202.245 84.6878C202.245 84.7062 202.054 84.6015 202.048 84.2874C202.048 84.095 202.113 83.9082 202.233 83.7576C202.401 83.56 202.64 83.4362 202.898 83.4126C203.214 83.4035 203.528 83.4757 203.808 83.6224C204.089 83.769 204.327 83.9853 204.5 84.2504C204.957 84.8172 205.268 85.4878 205.405 86.2031C205.688 87.7 205.245 89.2831 204.247 89.8067C204.06 89.9106 203.852 89.9707 203.639 89.9825C203.425 89.9942 203.212 89.9573 203.015 89.8745C202.756 89.7451 202.664 89.5911 202.701 89.5726Z" fill="#724A44"/>
<path d="M174.026 136.087C172.541 136.723 171.198 137.651 170.076 138.815C168.955 139.978 168.078 141.355 167.497 142.863C165.458 148.025 156.6 179.447 156.6 179.447L138.12 181.819L136.721 198.894C142.066 200.287 147.518 201.226 153.021 201.703C159.834 202.319 170.848 201.303 173.718 199.695C176.589 198.087 173.435 136.82 173.435 136.82L174.026 136.087Z" fill="#E0E0E0"/>
<path d="M177.771 131.424C183.623 138.07 198.999 124.592 205.843 113.88L183.827 217.275L180.069 216.358L177.771 131.424Z" fill="#455A64"/>
<path d="M177.316 126.896L175.899 133.61L170.632 138.378C170.564 147.15 175.308 164.669 174.125 168.18C172.443 173.201 171.772 178.4 173.786 185.718C174.815 189.463 181.042 216.358 181.042 216.358C181.042 216.358 179.256 286.736 179.453 287.672H193.769L179.792 194.04L179.256 135.391L177.316 126.896Z" fill="#E0E0E0"/>
<path d="M269.155 243.049C264.72 231.961 248.316 203.588 248.316 203.588C248.316 203.588 246.985 193.615 245.852 171.667C244.718 149.719 235.238 125.116 233.242 121.352C231.247 117.588 209.071 113.886 209.071 113.886L205.19 108.237C205.19 108.237 196.923 129.976 196.504 130.592C196.085 131.208 187.209 157.302 186.322 164.62C185.435 171.938 182.952 211.35 182.952 211.35L193.769 287.672H274.416C274.416 287.672 273.59 254.131 269.155 243.049Z" fill="#E0E0E0"/>
<path d="M194.453 240.289L234.567 235.762H234.708V235.903C235.848 248.18 237.172 262.755 238.651 278.333C238.811 280.052 238.965 281.752 239.125 283.446V283.613H239.008L206.76 284.352H206.649L206.619 284.241C203.046 271.157 200.046 260.161 197.933 252.431C196.861 248.581 196.017 245.544 195.432 243.462L194.748 241.096L194.557 240.48C194.508 240.345 194.477 240.283 194.483 240.283C194.522 240.344 194.555 240.408 194.582 240.474C194.631 240.61 194.705 240.807 194.791 241.09C194.97 241.62 195.21 242.408 195.518 243.443C196.134 245.507 197.009 248.538 198.099 252.394C200.274 260.1 203.317 271.083 206.896 284.173L206.754 284.068L239.002 283.292L238.848 283.471C238.696 281.779 238.538 280.075 238.373 278.358C236.944 262.773 235.608 248.174 234.48 235.922L234.628 236.045L194.453 240.289Z" fill="#263238"/>
<path d="M235.509 245.938C235.509 246.024 226.885 246.726 216.278 247.503C205.67 248.279 197.028 248.839 197.021 248.735C197.015 248.63 205.645 247.946 216.253 247.17C226.861 246.394 235.503 245.845 235.509 245.938Z" fill="#263238"/>
<path d="M248.02 203.471C247.876 203.594 247.717 203.698 247.546 203.779C247.232 203.958 246.757 204.198 246.166 204.469C244.614 205.171 242.985 205.688 241.312 206.009C239.64 206.312 237.942 206.453 236.242 206.428C235.589 206.428 235.066 206.397 234.702 206.366C234.513 206.368 234.324 206.343 234.142 206.292C234.837 206.221 235.537 206.19 236.236 206.2C237.92 206.159 239.598 205.99 241.256 205.695C242.906 205.372 244.522 204.891 246.08 204.259C246.713 203.964 247.36 203.701 248.02 203.471Z" fill="#263238"/>
<path d="M248.316 203.588C247.905 204.101 247.447 204.576 246.948 205.005C246.067 205.842 244.817 206.964 243.412 208.171L239.821 211.251C239.343 211.694 238.837 212.105 238.306 212.483C238.713 211.966 239.171 211.491 239.673 211.066C240.554 210.228 241.805 209.107 243.203 207.894L246.794 204.814C247.272 204.369 247.78 203.96 248.316 203.588Z" fill="#263238"/>
<path d="M220.91 263.241C219.364 262.681 217.676 262.459 216.247 263.278C215.691 263.643 215.25 264.157 214.975 264.763C214.7 265.368 214.603 266.039 214.694 266.697C214.903 268.021 215.555 269.235 216.542 270.14C217.142 270.825 217.974 271.263 218.877 271.372C219.898 271.33 220.86 270.888 221.557 270.14C222.341 269.477 222.95 268.631 223.331 267.676C223.515 267.194 223.586 266.676 223.538 266.163C223.49 265.649 223.324 265.153 223.054 264.713C222.388 263.728 221.169 263.297 220.029 262.927" fill="#FF725E"/>
<path d="M215.643 262.416C215.775 261.762 215.704 261.083 215.44 260.469C215.304 260.169 215.104 259.902 214.852 259.689C214.601 259.476 214.305 259.321 213.986 259.237C213.663 259.156 213.324 259.171 213.009 259.28C212.695 259.39 212.42 259.589 212.218 259.853C211.96 260.26 211.862 260.747 211.941 261.221C211.986 261.644 212.143 262.047 212.396 262.388C212.65 262.729 212.99 262.996 213.382 263.161C213.785 263.325 214.232 263.341 214.646 263.206C215.059 263.072 215.412 262.797 215.643 262.428" fill="#FF725E"/>
<path d="M222.53 262.736C223.194 262.722 223.838 262.507 224.378 262.12C224.648 261.927 224.871 261.677 225.032 261.387C225.193 261.097 225.287 260.775 225.308 260.445C225.322 260.112 225.238 259.783 225.067 259.498C224.896 259.212 224.646 258.983 224.347 258.837C223.895 258.667 223.396 258.667 222.943 258.837C222.539 258.967 222.177 259.202 221.895 259.518C221.612 259.834 221.419 260.22 221.335 260.636C221.256 261.064 221.33 261.507 221.546 261.885C221.761 262.264 222.103 262.554 222.512 262.705" fill="#FF725E"/>
<path d="M225.893 264.88C226.354 264.878 226.803 264.736 227.181 264.473C227.362 264.337 227.511 264.163 227.618 263.963C227.724 263.763 227.785 263.542 227.797 263.315C227.807 263.086 227.749 262.858 227.631 262.661C227.513 262.464 227.339 262.306 227.131 262.207C226.82 262.089 226.476 262.089 226.164 262.207C225.887 262.296 225.639 262.457 225.444 262.673C225.249 262.89 225.115 263.154 225.056 263.439C225.004 263.734 225.058 264.038 225.206 264.299C225.354 264.56 225.589 264.761 225.869 264.868" fill="#FF725E"/>
<path d="M218.754 261.609C219.484 261.312 220.107 260.801 220.54 260.143C220.752 259.813 220.888 259.44 220.938 259.051C220.989 258.662 220.951 258.267 220.83 257.894C220.698 257.525 220.462 257.202 220.151 256.965C219.839 256.728 219.465 256.586 219.074 256.558C218.505 256.567 217.958 256.786 217.54 257.174C217.154 257.493 216.86 257.91 216.688 258.381C216.516 258.852 216.472 259.36 216.561 259.853C216.668 260.354 216.944 260.803 217.344 261.123C217.744 261.443 218.242 261.614 218.754 261.609Z" fill="#FF725E"/>
<path d="M186.297 184.8C186.302 184.739 186.317 184.678 186.34 184.621C186.377 184.486 186.432 184.313 186.494 184.092C186.648 183.611 186.857 182.934 187.11 182.077C187.677 180.303 188.49 177.765 189.5 174.655L197.508 150.058C197.57 149.626 197.637 149.164 197.699 148.696C198.315 144.526 198.857 140.516 199.387 136.789V136.752H199.418L206.76 128.535L206.73 128.602L208.368 117.89C208.565 116.658 208.725 115.648 208.836 114.952C208.892 114.625 208.935 114.373 208.966 114.182C208.98 114.094 209 114.008 209.027 113.923C209.037 114.011 209.037 114.1 209.027 114.188C209.027 114.379 208.972 114.638 208.935 114.958C208.842 115.66 208.707 116.652 208.534 117.915C208.165 120.49 207.641 124.161 207.007 128.639V128.676L199.701 136.931L199.738 136.851C199.214 140.577 198.654 144.588 198.069 148.758C198.001 149.226 197.939 149.694 197.878 150.125C194.687 159.753 191.822 168.414 189.746 174.691C188.699 177.771 187.855 180.322 187.282 182.083C186.987 182.934 186.759 183.605 186.593 184.079C186.519 184.297 186.457 184.469 186.408 184.597C186.328 184.72 186.303 184.8 186.297 184.8Z" fill="#263238"/>
<path d="M179.422 192.444C179.414 192.404 179.414 192.362 179.422 192.321C179.422 192.223 179.379 192.106 179.355 191.958C179.297 191.613 179.223 191.145 179.133 190.553C178.942 189.321 178.677 187.529 178.344 185.33C177.698 180.857 176.804 174.654 175.788 167.595V167.552C176.01 165.784 176.244 163.948 176.478 162.069C176.891 158.86 177.285 155.774 177.648 152.885L177.692 153.008L173.096 148.24L173.047 148.185V148.117L174.975 137.577C175.215 136.345 175.406 135.335 175.536 134.633C175.603 134.312 175.659 134.054 175.696 133.857C175.708 133.768 175.731 133.681 175.763 133.598C175.773 133.686 175.773 133.775 175.763 133.863C175.733 134.066 175.696 134.325 175.646 134.645C175.529 135.353 175.363 136.351 175.16 137.602C174.716 140.177 174.088 143.805 173.312 148.166L173.281 148.049L177.876 152.799L177.926 152.848V152.922C177.562 155.811 177.168 158.903 176.768 162.113C176.527 163.961 176.293 165.809 176.071 167.589V167.552L178.535 185.305C178.831 187.51 179.065 189.29 179.232 190.547C179.299 191.163 179.361 191.613 179.398 191.958L179.441 192.321C179.433 192.403 179.427 192.444 179.422 192.444Z" fill="#263238"/>
<path d="M193.756 287.573C193.67 287.573 191.489 272.746 188.884 254.427C186.278 236.107 184.239 221.236 184.325 221.224C184.412 221.212 186.598 236.057 189.198 254.383C191.797 272.709 193.843 287.561 193.756 287.573Z" fill="#263238"/>
<path d="M142.912 206.773L155.374 203.188L163.123 221.224L145.764 220.682L142.912 207.506" fill="#9D6054"/>
<path d="M155.374 203.188L165.507 226.78C165.507 226.78 216.167 212.323 219.789 208.263C223.411 204.204 231.074 167.607 232.38 160.493C233.686 153.378 235.127 124.561 229.047 119.947C222.967 115.334 217.035 116.344 211.245 122.713C206.557 127.869 198.925 157.388 196.184 168.414C195.512 171.128 195.333 173.941 195.654 176.718L196.19 181.332C196.19 181.332 191.416 185.675 191.126 189.728L155.374 203.188Z" fill="#E0E0E0"/>
<path d="M204.512 138.452C204.512 138.452 204.45 138.711 204.321 139.21C204.192 139.709 203.982 140.442 203.705 141.427C203.169 143.374 202.387 146.238 201.377 149.916L197.681 163.308C197.317 164.607 196.948 165.957 196.559 167.349C196.131 168.767 195.845 170.223 195.703 171.698C195.543 173.256 195.543 174.827 195.703 176.385C195.896 177.995 196.089 179.638 196.282 181.313V181.375L196.239 181.418C195.062 182.532 194.011 183.771 193.104 185.114C192.1 186.482 191.452 188.078 191.219 189.759V189.839L191.145 189.87L155.417 203.354L155.503 203.151L165.642 226.737L165.451 226.651C169.628 225.419 174.075 224.15 178.517 222.807C187.215 220.195 195.691 217.571 203.804 214.799C207.857 213.413 211.812 212.027 215.612 210.401C216.555 210.001 217.46 209.563 218.366 209.077C218.807 208.842 219.22 208.559 219.598 208.233C219.766 208.058 219.914 207.866 220.041 207.66C220.165 207.444 220.294 207.235 220.405 207.013C221.243 205.218 221.951 203.365 222.524 201.469C223.707 197.717 224.692 194.009 225.604 190.381C226.516 186.753 227.359 183.248 228.142 179.835C229.7 173.01 231.08 166.634 232.207 160.794C233.156 155.525 233.835 150.21 234.24 144.871C234.583 140.843 234.631 136.795 234.382 132.76C234.123 129.446 233.544 126.896 232.762 125.325C232.405 124.507 231.868 123.781 231.191 123.2L231.702 123.643C231.856 123.81 232.029 124.032 232.238 124.29C232.456 124.611 232.652 124.947 232.823 125.294C233.624 126.865 234.228 129.434 234.505 132.748C234.779 136.79 234.75 140.846 234.419 144.883C234.032 150.23 233.368 155.553 232.429 160.831C231.314 166.683 229.965 173.065 228.4 179.927C227.624 183.34 226.793 186.864 225.881 190.486C224.969 194.108 223.978 197.816 222.801 201.574C222.228 203.491 221.518 205.364 220.676 207.179C220.559 207.407 220.423 207.629 220.3 207.851C220.159 208.072 219.996 208.278 219.813 208.467C219.423 208.816 218.993 209.117 218.532 209.366C217.633 209.859 216.684 210.302 215.754 210.709C211.953 212.341 207.98 213.733 203.927 215.126C195.808 217.879 187.332 220.509 178.628 223.134C174.156 224.477 169.733 225.776 165.556 226.971L165.421 227.014L165.365 226.885L155.232 203.28L155.17 203.132L155.324 203.077L191.052 189.636L190.966 189.753C191.204 188.029 191.869 186.392 192.9 184.991C193.825 183.649 194.89 182.41 196.079 181.295L196.042 181.4C195.853 179.712 195.664 178.069 195.475 176.472C195.315 174.899 195.315 173.314 195.475 171.741C195.624 170.253 195.919 168.784 196.356 167.355L197.483 163.32C198.943 158.115 200.2 153.618 201.229 149.941L203.619 141.471C203.89 140.503 204.105 139.77 204.235 139.265C204.364 138.76 204.512 138.452 204.512 138.452Z" fill="#263238"/>
<path d="M197.736 195.13C196.954 193.892 195.995 192.776 194.89 191.816C193.715 190.938 192.415 190.243 191.034 189.752C191.474 189.765 191.909 189.859 192.315 190.03C194.344 190.728 196.067 192.111 197.188 193.941C197.44 194.302 197.625 194.704 197.736 195.13Z" fill="#263238"/>
<path d="M209.07 185.558C209.021 185.595 208.559 184.874 207.573 183.938C206.294 182.711 204.742 181.807 203.044 181.3C201.346 180.794 199.552 180.699 197.81 181.024C196.473 181.27 195.691 181.64 195.666 181.566C195.83 181.447 196.01 181.354 196.202 181.289C196.709 181.083 197.232 180.921 197.767 180.802C199.543 180.408 201.391 180.473 203.136 180.993C204.88 181.512 206.462 182.469 207.733 183.771C208.117 184.163 208.466 184.587 208.774 185.04C208.896 185.198 208.996 185.372 209.07 185.558Z" fill="#263238"/>
<path d="M154.4 228.789C147.513 228.789 137.971 226.405 126.027 221.698C117.188 218.212 110.245 214.676 110.171 214.645L111.293 212.446C111.564 212.588 138.655 226.325 154.413 226.325C160.634 226.325 165.451 223.319 168.722 217.393C170.279 214.51 171.343 211.387 171.87 208.153C172.036 207.167 175.751 185.009 177.026 179.096C177.691 176.016 179.49 170.952 181.19 166.061C182.767 161.583 184.393 156.957 184.72 154.973C185.391 150.951 184.905 142.161 184.905 142.074L187.369 141.933C187.369 142.308 187.874 151.086 187.159 155.374C186.796 157.561 185.206 162.082 183.525 166.862C181.843 171.642 180.075 176.669 179.441 179.601C178.209 185.459 174.352 208.27 174.315 208.504C174.279 208.738 171.519 228.789 154.4 228.789Z" fill="#FF725E"/>
<g opacity="0.4">
<path d="M154.4 228.789C147.513 228.789 137.971 226.405 126.027 221.698C117.188 218.212 110.245 214.676 110.171 214.645L111.293 212.446C111.564 212.588 138.655 226.325 154.413 226.325C160.634 226.325 165.451 223.319 168.722 217.393C170.279 214.51 171.343 211.387 171.87 208.153C172.036 207.167 175.751 185.009 177.026 179.096C177.691 176.016 179.49 170.952 181.19 166.061C182.767 161.583 184.393 156.957 184.72 154.973C185.391 150.951 184.905 142.161 184.905 142.074L187.369 141.933C187.369 142.308 187.874 151.086 187.159 155.374C186.796 157.561 185.206 162.082 183.525 166.862C181.843 171.642 180.075 176.669 179.441 179.601C178.209 185.459 174.352 208.27 174.315 208.504C174.279 208.738 171.519 228.789 154.4 228.789Z" fill="black"/>
</g>
<path d="M184.48 142.844C182.944 142.865 181.462 142.281 180.353 141.218C176.108 137.011 171.587 119.535 171.396 118.796L172.585 118.488C172.634 118.666 177.217 136.352 181.209 140.343C181.748 140.849 182.399 141.221 183.108 141.429C183.817 141.638 184.566 141.677 185.293 141.544C187.301 141.23 189.094 139.813 190.221 137.657C193.498 131.343 202.43 88.2296 202.541 87.7922L203.773 88.0448C203.403 89.825 194.718 131.781 191.361 138.224C190.061 140.731 187.936 142.388 185.539 142.764C185.189 142.821 184.835 142.847 184.48 142.844Z" fill="#E0E0E0"/>
<path d="M202.048 91.3403C202.134 89.6094 201.716 88.2049 201.432 86.4986C201.309 85.7779 201.537 84.552 202.141 84.1331C202.744 83.7143 203.668 84.2255 203.927 84.9339C204.142 85.7626 204.182 86.6269 204.044 87.4719C203.767 89.517 203.188 90.1145 202.855 91.3403" fill="#E0E0E0"/>
<path d="M185.09 143.189H184.708C183.352 143.134 182.037 142.717 180.898 141.98C179.759 141.243 178.839 140.214 178.233 139C176.675 135.92 174.642 131.769 173.811 129.495L176.121 128.652C176.737 130.333 178.27 133.617 180.433 137.892C180.842 138.716 181.466 139.415 182.239 139.916C183.012 140.416 183.905 140.7 184.825 140.737C185.729 140.79 186.63 140.599 187.435 140.182C188.239 139.766 188.916 139.141 189.395 138.372L189.463 138.261C189.512 138.169 189.728 137.645 190.486 135.477L190.572 135.23C191.015 133.998 191.946 131.202 193.19 126.606L195.568 127.222C194.305 131.923 193.35 134.781 192.888 136.062L192.808 136.296C191.872 138.957 191.705 139.327 191.576 139.53L191.477 139.69C190.798 140.768 189.855 141.655 188.737 142.268C187.619 142.88 186.364 143.197 185.09 143.189Z" fill="#FF725E"/>
<g opacity="0.4">
<path d="M185.09 143.189H184.708C183.352 143.134 182.037 142.717 180.898 141.98C179.759 141.243 178.839 140.214 178.233 139C176.675 135.92 174.642 131.769 173.811 129.495L176.121 128.652C176.737 130.333 178.27 133.617 180.433 137.892C180.842 138.716 181.466 139.415 182.239 139.916C183.012 140.416 183.905 140.7 184.825 140.737C185.729 140.79 186.63 140.599 187.435 140.182C188.239 139.766 188.916 139.141 189.395 138.372L189.463 138.261C189.512 138.169 189.728 137.645 190.486 135.477L190.572 135.23C191.015 133.998 191.946 131.202 193.19 126.606L195.568 127.222C194.305 131.923 193.35 134.781 192.888 136.062L192.808 136.296C191.872 138.957 191.705 139.327 191.576 139.53L191.477 139.69C190.798 140.768 189.855 141.655 188.737 142.268C187.619 142.88 186.364 143.197 185.09 143.189Z" fill="black"/>
</g>
<path d="M106.297 217.275C109.59 217.275 112.26 214.606 112.26 211.313C112.26 208.019 109.59 205.35 106.297 205.35C103.004 205.35 100.334 208.019 100.334 211.313C100.334 214.606 103.004 217.275 106.297 217.275Z" fill="#E0E0E0"/>
<path d="M106.63 215.052C108.504 215.052 110.024 213.532 110.024 211.658C110.024 209.783 108.504 208.263 106.63 208.263C104.755 208.263 103.235 209.783 103.235 211.658C103.235 213.532 104.755 215.052 106.63 215.052Z" fill="#263238"/>
<path d="M102.539 217.275C102.539 217.275 101.233 214.195 102.539 213.074C103.845 211.953 117.508 208.263 117.508 208.263C117.508 208.263 127.142 205.479 128.171 205.35C129.2 205.22 141.723 206.058 141.723 206.058C141.723 206.058 148.832 204.099 149.861 204.099C150.889 204.099 149.392 210.641 149.208 212.797C149.023 214.953 147.618 216.24 148.924 217.275C150.23 218.31 153.704 221.224 153.704 221.224C153.704 221.224 150.045 222.24 147.544 221.963C146.059 221.805 144.605 221.425 143.232 220.836C143.232 220.836 138.089 224.674 135.28 225.234C132.471 225.795 123.126 228.881 121.253 228.604C119.381 228.326 117.983 225.795 117.983 225.795C117.983 225.795 113.584 226.448 112.74 224.674C112.253 223.658 111.877 222.592 111.619 221.495L113.399 220.368C113.399 220.368 111.059 221.027 110.03 219.339C109.442 218.439 109.059 217.422 108.909 216.358C108.909 216.358 104.104 217.737 102.539 217.275Z" fill="#455A64"/>
<path d="M172.745 161.016C172.743 161.137 172.724 161.257 172.689 161.373C172.636 161.636 172.562 161.975 172.468 162.39C172.369 162.827 172.246 163.363 172.135 163.991C172.024 164.62 171.864 165.334 171.765 166.135C171.667 166.936 171.513 167.798 171.427 168.741C171.34 169.683 171.254 170.687 171.18 171.747C170.942 176.356 171.296 180.977 172.234 185.496C172.468 186.537 172.677 187.523 172.936 188.434C173.195 189.346 173.429 190.19 173.669 190.96C173.909 191.73 174.156 192.414 174.365 193.017C174.574 193.621 174.765 194.132 174.938 194.551C175.11 194.97 175.215 195.266 175.307 195.518C175.362 195.629 175.399 195.747 175.418 195.869C175.354 195.765 175.298 195.656 175.252 195.543L174.821 194.6C174.636 194.188 174.414 193.683 174.205 193.079C173.995 192.475 173.706 191.804 173.466 191.028C173.225 190.251 172.93 189.42 172.689 188.502C172.449 187.584 172.203 186.599 171.963 185.558C171.484 183.289 171.149 180.993 170.958 178.683C170.795 176.37 170.774 174.05 170.897 171.735C170.977 170.669 171.039 169.652 171.174 168.71C171.31 167.767 171.414 166.893 171.55 166.098C171.685 165.303 171.846 164.583 171.975 163.954C172.104 163.326 172.24 162.796 172.363 162.359L172.64 161.355C172.66 161.238 172.695 161.124 172.745 161.016Z" fill="#263238"/>
</g>
<defs>
<clipPath id="clip0_2178_746">
<rect width="308" height="297" fill="white"/>
</clipPath>
</defs>
</svg>
